<svg xmlns="http://www.w3.org/2000/svg" viewBox="0 0 500 78"><defs><style>.cls-1{isolation:isolate;}.cls-2{fill:#ffc31d;}.cls-3{fill:#dfeed7;}.cls-4{mix-blend-mode:multiply;}.cls-5{fill:#fff;}.cls-6{fill:#ffefbf;}</style></defs><title>BotaoComprar</title><g class="cls-1"><g id="Layer_1" data-name="Layer 1"><path class="cls-2" d="M84.45,74.85a35.85,35.85,0,0,1,0-71.7h331.1a35.85,35.85,0,0,1,0,71.7Z"/><path class="cls-3" d="M415.55,5a34,34,0,0,1,34,34h0a34,34,0,0,1-34,34H84.45a34,34,0,0,1-34-34h0a34,34,0,0,1,34-34h331.1m0-3.69H84.45a37.69,37.69,0,0,0,0,75.38h331.1a37.69,37.69,0,0,0,0-75.38Z"/><g class="cls-4"><path class="cls-2" d="M449.55,39a34,34,0,0,1-34,34H84.45a34,34,0,0,1-34-34Z"/></g><path class="cls-5" d="M128.75,45.76V58.38h-5.1V19h11.18a13.62,13.62,0,0,1,8,3.91,13,13,0,0,1,3.91,9.46A13.38,13.38,0,0,1,133.4,45.76Zm0-21.68V40.64h4.65a8.3,8.3,0,0,0,8.26-8.31,8.28,8.28,0,0,0-8.26-8.25Z"/><path class="cls-5" d="M156.07,36.45a9.09,9.09,0,0,1,7-4.07v5.3a6.52,6.52,0,0,0-4.43,1.8,8.34,8.34,0,0,0-2.59,5.86v13H151V33h5.1Z"/><path class="cls-5" d="M175.83,52.64c.86.75,2.41,1.13,4.66,1.13a8.51,8.51,0,0,0,6.23-2.56c.22-.23.65-.74,1.31-1.53l5.1,1.82a32.82,32.82,0,0,1-2.71,3.43A14,14,0,0,1,166.47,45a14.06,14.06,0,0,1,22.74-11c.41.35.82.72,1.21,1.11.16.16.63.68,1.41,1.55l-2.57,2.59Zm8.53-15.77c-.58-.44-1.87-.67-3.87-.67a8.79,8.79,0,0,0-8.77,8.8q0,3,.66,3.87Z"/><path class="cls-5" d="M204.17,52.93a3,3,0,0,0,2.17.89,2.91,2.91,0,0,0,2.15-.89,3,3,0,0,0,.9-2.19,2.91,2.91,0,0,0-.88-2.14,17.39,17.39,0,0,0-2.64-1.9A17.83,17.83,0,0,1,202,44a6.66,6.66,0,0,1-2-4.85,6.74,6.74,0,0,1,2-4.9,6.66,6.66,0,0,1,4.88-2,6.42,6.42,0,0,1,4.76,1.92,6.14,6.14,0,0,1,1.72,3l-4.95,1.43a2.25,2.25,0,0,0-.35-.81,1.57,1.57,0,0,0-1.18-.44,1.81,1.81,0,0,0-1.8,1.8,1.68,1.68,0,0,0,.52,1.25,16.24,16.24,0,0,0,2.12,1.5A20.14,20.14,0,0,1,212.1,45a7.85,7.85,0,0,1,2.39,5.74,8,8,0,0,1-2.37,5.8,8.11,8.11,0,0,1-11.55,0,8,8,0,0,1-2.17-4.11l5.08-1.09A3.11,3.11,0,0,0,204.17,52.93Z"/><path class="cls-5" d="M228.66,52.64c.86.75,2.41,1.13,4.66,1.13a8.51,8.51,0,0,0,6.23-2.56c.22-.23.65-.74,1.31-1.53L246,51.5a32.82,32.82,0,0,1-2.71,3.43A14,14,0,0,1,219.3,45,14.06,14.06,0,0,1,242,34c.41.35.81.72,1.21,1.11.16.16.63.68,1.4,1.55l-2.56,2.59Zm8.53-15.77c-.58-.44-1.87-.67-3.87-.67a8.79,8.79,0,0,0-8.77,8.8q0,3,.66,3.87Z"/><path class="cls-5" d="M257,39.83V58.38h-5.13V33H257v3a6.24,6.24,0,0,1,6.43-4.33A8.08,8.08,0,0,1,270,34.56a11.42,11.42,0,0,1,2.5,7.34V58.38h-5.1V42.09a5.08,5.08,0,0,0-1.6-3.76,5.46,5.46,0,0,0-7.61,0A5.64,5.64,0,0,0,257,39.83Z"/><path class="cls-5" d="M283,33V23.51h5.1V33h4.56v5.11h-4.56V58.38H283V38.13h-4.56V33Z"/><path class="cls-5" d="M306.5,52.64c.85.75,2.41,1.13,4.66,1.13a8.51,8.51,0,0,0,6.23-2.56c.21-.23.65-.74,1.31-1.53l5.1,1.82a34.27,34.27,0,0,1-2.71,3.43A14,14,0,0,1,297.14,45a14.06,14.06,0,0,1,22.74-11c.41.35.81.72,1.21,1.11.16.16.63.68,1.4,1.55l-2.56,2.59ZM315,36.87c-.57-.44-1.86-.67-3.86-.67a8.81,8.81,0,0,0-8.78,8.8c0,2,.23,3.28.67,3.87Z"/><path class="cls-5" d="M351.69,34.8V33h5.12V58.4h-5.12V55.23A11.59,11.59,0,0,1,343.11,59a14,14,0,0,1-14-14,14,14,0,0,1,14-14A11.62,11.62,0,0,1,351.69,34.8Zm0,12.1V43.15a8.2,8.2,0,0,0-2.37-4.33,8.78,8.78,0,1,0-12.43,12.4,8.79,8.79,0,0,0,12.43,0A8.2,8.2,0,0,0,351.69,46.9Z"/><path class="cls-5" d="M369.33,36.45a9.09,9.09,0,0,1,7-4.07v5.3a6.52,6.52,0,0,0-4.43,1.8,8.34,8.34,0,0,0-2.59,5.86v13h-5.1V33h5.1Z"/><path class="cls-6" d="M418.2,15a6.53,6.53,0,1,1-1.61,9.09A6.54,6.54,0,0,1,418.2,15Z"/><path class="cls-6" d="M430.65,26.38a3.67,3.67,0,1,1-.91,5.11A3.67,3.67,0,0,1,430.65,26.38Z"/></g></g></svg>