<svg id="Layer_1" data-name="Layer 1" xmlns="http://www.w3.org/2000/svg" viewBox="0 0 500 500"><defs><style>.cls-1{fill:#d7eff0;}.cls-2{fill:#947fbb;}.cls-3{fill:#795ea8;}.cls-4{fill:#e8e8e8;}.cls-5{fill:#f04c61;}.cls-6{fill:#e9b820;}.cls-7{fill:#f8ea8a;}.cls-8{fill:#f8f8f9;}.cls-9{fill:#44454a;}.cls-10,.cls-18{fill:#fff;}.cls-11{fill:#d476af;}.cls-12{fill:#cc8fbf;}.cls-13{fill:#deb3d4;}.cls-14{fill:#d3d3d3;}.cls-15{fill:#d3a184;}.cls-16{fill:#e15c49;}.cls-17{fill:#edf0f0;}.cls-18{font-size:25px;font-family:CaviarDreams-Bold, Caviar Dreams;font-weight:700;}</style></defs><title>Opcoes_Presente</title><path class="cls-1" d="M420.54,225.07v2.41a8.92,8.92,0,0,0,8.92,8.93h46.77a19.22,19.22,0,0,1,19.22,19.22h0a19.23,19.23,0,0,1-19.22,19.22H399.87a15.41,15.41,0,0,0-15.41,15.41h0a15.41,15.41,0,0,0,15.41,15.41h0A35.37,35.37,0,0,1,435.24,341v.36a35.73,35.73,0,0,1-35.73,35.73H70.14a13.58,13.58,0,0,1-13.58-13.57h0A13.58,13.58,0,0,1,70.14,350h31a9,9,0,0,0,9-9h0a9,9,0,0,0-9-9H42.29a36.7,36.7,0,0,1-36.7-36.7h0a36.71,36.71,0,0,1,36.7-36.71H64a31.72,31.72,0,0,0,31.73-31.73h0A31.72,31.72,0,0,0,64,195.06H52.52A36.09,36.09,0,0,1,16.43,159h0a36.09,36.09,0,0,1,36.09-36.09H433.63a46.63,46.63,0,0,1,46.63,46.63h0a46.63,46.63,0,0,1-46.63,46.63h-4.17A8.92,8.92,0,0,0,420.54,225.07Z"/><g id="_Group_" data-name="&lt;Group&gt;"><g id="_Group_2" data-name="&lt;Group&gt;"><g id="_Group_3" data-name="&lt;Group&gt;"><path id="_Path_" data-name="&lt;Path&gt;" class="cls-2" d="M284,80.76v-.2s-140-32-205.25,116.62c-26.49,60.28-27,110.21-14.86,150.17h0c0,.08,0,.15.08.22C104.25,463.37,236.1,465.05,236.1,465.05c-102.18,3.89-132.26-181.66-106.53-238.19C178,120.37,284,80.76,284,80.76Z"/><path id="_Path_2" data-name="&lt;Path&gt;" class="cls-3" d="M87.52,194.37c-28.33,59.45-21.82,113-9.72,153h0c0,.08,0,.15.08.22,23.18,66.61,76.65,95.46,117.89,108-69.45-38.26-88.14-180.42-66.19-228.66C178,120.37,284,80.76,284,80.76v-.2a149,149,0,0,0-25.21-2.78C212.45,79.4,143.14,77.65,87.52,194.37Z"/><path id="_Path_3" data-name="&lt;Path&gt;" class="cls-4" d="M314.22,91.35s45.95-15.25,46.29-32.28c0,0,19.32,34.86-20.68,60.87Z"/><g id="_Group_4" data-name="&lt;Group&gt;"><path class="cls-5" d="M347.1,125.5l95.95-88a2,2,0,0,0-2.41-3.24L328.86,101Z"/><path class="cls-6" d="M440.64,34.29l-17.2,10.26-1.85,12.66,21.46-19.68A2,2,0,0,0,440.64,34.29Z"/><polygon class="cls-7" points="399.37 58.92 396.22 80.47 421.6 57.2 423.45 44.55 399.37 58.92"/><polygon class="cls-6" points="375.28 73.3 370.82 103.75 396.2 80.48 399.36 58.93 375.28 73.3"/><polygon class="cls-7" points="351.2 87.68 345.9 123.89 347.1 125.5 370.82 103.75 375.28 73.3 351.2 87.68"/><polygon class="cls-6" points="351.2 87.68 328.86 101.01 345.9 123.89 351.2 87.68"/></g><g id="_Group_5" data-name="&lt;Group&gt;"><path class="cls-8" d="M348,134.7,334.06,114a66.71,66.71,0,0,0-13.12-14.31c22.19-25.35,5.34-57.53,5.34-57.53,0,24.06-76.59,45.11-76.58,45.11-30,7.35-55.71,26.18-71,52.08L153.56,182c-18.8,38.18-49.86,81.87-33.85,121.15l35.06,86c5.36,19.33,28.74,54.13,54.87,64.84,2.63,1.08,30.63,8.83,32.73,9.22,17.69,3.33,35.85-2.66,52.3-8.72,15.77-5.82,31.37-14.08,41.27-28.14,12.31-17.47,13.41-41.17,6.62-61.44-8.43-25.2-27.12-43.74-45.86-61.64l-44.43-42.44C245.16,253.47,238,249.22,238,240c0-6,5.46-10.71,11.83-10.22,2,.16,90.23,41.66,90.23,41.66,9.31,2.24,8.63,16.43,12.86,24.54l2.49,4.78c4.53,8.67,15.23,12.81,24.94,9.64l6.77-2.21c10.43-3.41,17.43-12.65,17.43-23h0a19.72,19.72,0,0,0-1.32-7.09Z"/></g><g id="_Group_6" data-name="&lt;Group&gt;"><ellipse class="cls-9" cx="326.67" cy="188.69" rx="13.02" ry="12.22"/></g><g id="_Group_7" data-name="&lt;Group&gt;"><path class="cls-10" d="M333.27,183.69a3.8,3.8,0,0,0-5.13,0,3.26,3.26,0,0,0,0,4.82,3.8,3.8,0,0,0,5.13,0A3.26,3.26,0,0,0,333.27,183.69Z"/></g><path id="_Path_4" data-name="&lt;Path&gt;" class="cls-11" d="M319.53,103.92a5.36,5.36,0,0,1,3.8-5.72c8.06-2.35,25.82-5.8,35.55,5.64,12.86,15.11,4,50.78,30.19,62.87C389.07,166.71,327.05,175.44,319.53,103.92Z"/><path id="_Path_5" data-name="&lt;Path&gt;" class="cls-12" d="M291,87.68s24.09-6.34,31.14-22.39c0,0,3.41,15.75-9.68,22.39S291,87.68,291,87.68Z"/><path id="_Path_6" data-name="&lt;Path&gt;" class="cls-13" d="M305.9,64.83v-.2S164.93,37.25,102.32,179a225.26,225.26,0,0,0-14.06,44.11c-16.36,77.07,9.92,157.63,70,208.59C188,457,226.44,475.09,269.7,461.23c0,0-137.26,13.26-135.81-193.55l-1.81,2.68A194.62,194.62,0,0,1,153.86,206C208,107.26,305.9,64.83,305.9,64.83Z"/><path id="_Path_7" data-name="&lt;Path&gt;" class="cls-12" d="M305.9,64.83s-129.28-14.68-184.52,137S181,483.23,269.7,461.23c0,0-137.26,13.26-135.81-193.55l-1.81,2.68A194.62,194.62,0,0,1,153.86,206C208,107.26,305.9,64.83,305.9,64.83Z"/><path id="_Path_8" data-name="&lt;Path&gt;" class="cls-2" d="M305.9,64.83S227.22,118.26,180.68,199.2c-39.06,67.92-38.25,152.26,2.86,219,7.24,11.74,15.07,21.78,22.9,27.07,0,0-56.49-22.49-74-101.63S131.31,84.4,305.9,64.83Z"/><path id="_Path_9" data-name="&lt;Path&gt;" class="cls-3" d="M388.81,166.75c-19.08-4.81-37.23-19.75-39.51-37.07-3.62-27.53-22.94-25.48-29.66-27.53a5.22,5.22,0,0,0-.11,1.77C326.77,172.81,384.57,167.25,388.81,166.75Z"/><g id="_Group_8" data-name="&lt;Group&gt;"><path id="_Path_10" data-name="&lt;Path&gt;" class="cls-3" d="M148.28,233.37c-38.89,126.4,38.14,196.05,55,209.46-6.76-5.64-13.47-14.52-19.73-24.67-41.11-66.7-41.92-151-2.86-219C227.22,118.26,305.9,64.83,305.9,64.83S191.81,91.9,148.28,233.37Z"/><path id="_Path_11" data-name="&lt;Path&gt;" class="cls-3" d="M206.44,445.23l-.36-.26Z"/></g><path id="_Path_12" data-name="&lt;Path&gt;" class="cls-9" d="M380.23,250.88a4.86,4.86,0,1,0,4.86,4.86A4.85,4.85,0,0,0,380.23,250.88Z"/><g id="_Group_9" data-name="&lt;Group&gt;"><polygon id="_Path_13" data-name="&lt;Path&gt;" class="cls-4" points="253.63 231.29 253.63 231.29 253.63 231.29 253.63 231.29"/><path id="_Path_14" data-name="&lt;Path&gt;" class="cls-4" d="M245,253.81l0,0h0Z"/><path id="_Path_15" data-name="&lt;Path&gt;" class="cls-14" d="M238,240c0-6,5.46-10.71,11.83-10.22a4.28,4.28,0,0,1,.67.23c-6.51-3.14-23.8-18.53-24-37.42,0,0-17.08,29,17.82,60.63C240.47,249.64,238,245.63,238,240Z"/></g></g></g></g><path class="cls-15" d="M397.91,112.14l-1.47,1.15a10.53,10.53,0,0,1-1.26-2l1.58-1A7.18,7.18,0,0,0,397.91,112.14Z"/><path class="cls-15" d="M407.15,104.45l.16.17c.23.22.8.73,1.25,1.12L407,106.79c-.35-.29-.66-.57-.94-.85l-.18-.17a7,7,0,0,0-.92-.83l1.63-1.07Z"/><path class="cls-15" d="M394.5,111.78l.34-.23.34-.22a10.53,10.53,0,0,0,1.26,2l1.47-1.15a7.18,7.18,0,0,1-1.15-1.85l.34-.22.35-.23a5.91,5.91,0,0,0,1.11,1.84l.46.6-2.71,2.13-.48-.61A12,12,0,0,1,394.5,111.78Z"/><path class="cls-15" d="M404.55,105.17l.36-.23a7,7,0,0,1,.92.83l.18.17c.28.28.59.56.94.85l1.61-1.05c-.45-.39-1-.9-1.25-1.12l-.16-.17-.61-.58.34-.23.34-.22c.18.16.34.32.49.47l.17.16c.29.29,1.21,1.11,1.59,1.42l.42.34-3,2-.23-.19c-.46-.38-.86-.73-1.22-1.08l-.17-.18a6.67,6.67,0,0,0-.88-.78,1.71,1.71,0,0,0-.23-.13Z"/><path class="cls-16" d="M390.78,126.39l.78,34.05a9.85,9.85,0,0,0,2.08,6.08l40.43,61.69c3.22,4.89,10.31,5.94,15.81,2.32l44.37-29.16c5.51-3.61,7.37-10.55,4.16-15.44L457.6,123.67l-.09-.14a10.15,10.15,0,0,0-4.32-3.59l-30.88-14.27c-5-2.32-12.46-1.68-17.27,1.48l-6,4C394.18,114.28,390.65,120.85,390.78,126.39ZM408,118.21a5.86,5.86,0,1,1-1.69,8.11A5.84,5.84,0,0,1,408,118.21Z"/><path class="cls-17" d="M443.32,228a.67.67,0,0,1-.09-1.33,7.18,7.18,0,0,0,3.38-1.17l0,0a.66.66,0,0,1,.92.19.65.65,0,0,1-.19.92l0,0A8.51,8.51,0,0,1,443.32,228Zm5.37-3.07a.68.68,0,0,1,.19-.93l3.34-2.2a.67.67,0,0,1,.92.19.66.66,0,0,1-.19.92l-3.34,2.2A.66.66,0,0,1,448.69,225Zm5.57-3.67a.68.68,0,0,1,.2-.93l3.34-2.19a.66.66,0,0,1,.92.19.65.65,0,0,1-.19.92l-3.35,2.2A.67.67,0,0,1,454.26,221.3Zm5.58-3.67a.66.66,0,0,1,.2-.92l3.34-2.2a.66.66,0,0,1,.92.19.65.65,0,0,1-.19.92l-3.35,2.2A.66.66,0,0,1,459.84,217.63Zm5.59-3.66a.67.67,0,0,1,.19-.93l3.34-2.2a.66.66,0,0,1,.92.2.65.65,0,0,1-.19.91l-3.34,2.21A.67.67,0,0,1,465.43,214ZM471,210.3a.66.66,0,0,1,.2-.92l3.34-2.2a.66.66,0,0,1,.73,1.11l-3.35,2.2A.67.67,0,0,1,471,210.3Zm5.59-3.67a.65.65,0,0,1,.19-.92l3.34-2.2a.67.67,0,0,1,.92.19.66.66,0,0,1-.19.92l-3.35,2.2A.65.65,0,0,1,476.59,206.63Zm5.57-3.66a.68.68,0,0,1,.2-.93l3.34-2.2a.67.67,0,0,1,.92.19.66.66,0,0,1-.19.92l-3.35,2.21A.68.68,0,0,1,482.16,203Zm5.58-3.67a.67.67,0,0,1,.19-.92l3-2,.29-.19a.66.66,0,1,1,.77,1.07l-.33.23-3,2A.67.67,0,0,1,487.74,199.3Zm5.39-3.92a.66.66,0,0,1-.17-.92,5.51,5.51,0,0,0,1.06-3.35.66.66,0,1,1,1.32-.06,6.83,6.83,0,0,1-1.29,4.17.58.58,0,0,1-.18.17A.67.67,0,0,1,493.13,195.38Zm-52.72,32.23a5.15,5.15,0,0,1-2.46-2l-.66-1a.67.67,0,0,1,.19-.92.67.67,0,0,1,.92.19l.66,1a3.91,3.91,0,0,0,1.83,1.46.66.66,0,0,1,.38.86.64.64,0,0,1-.25.31A.69.69,0,0,1,440.41,227.61ZM493.25,189l-2.19-3.35a.67.67,0,0,1,.19-.92.66.66,0,0,1,.92.19l2.2,3.35a.67.67,0,0,1-.19.92A.68.68,0,0,1,493.25,189ZM435.82,222.4l-2.19-3.35a.66.66,0,0,1,.19-.92.65.65,0,0,1,.91.19l2.2,3.35a.66.66,0,1,1-1.11.73Zm53.78-39L487.4,180a.67.67,0,1,1,1.11-.74l2.19,3.36a.66.66,0,1,1-1.1.72Zm-57.44,33.45-2.2-3.36a.68.68,0,0,1,.2-.92.66.66,0,0,1,.91.2l2.2,3.35a.66.66,0,0,1-.19.92A.67.67,0,0,1,432.16,216.82Zm53.78-39-2.2-3.35a.67.67,0,0,1,.19-.92.66.66,0,0,1,.92.19l2.19,3.35a.66.66,0,0,1-.19.92A.65.65,0,0,1,485.94,177.79ZM428.5,211.23l-2.2-3.35a.67.67,0,0,1,1.12-.73l2.19,3.35a.66.66,0,0,1-.19.92A.65.65,0,0,1,428.5,211.23Zm53.77-39-2.19-3.35a.67.67,0,0,1,.19-.92.65.65,0,0,1,.92.19l2.2,3.35a.67.67,0,0,1-.19.92A.68.68,0,0,1,482.27,172.21Zm-57.43,33.44-2.19-3.35a.66.66,0,1,1,1.1-.73l2.2,3.35a.66.66,0,1,1-1.11.73Zm53.78-39-2.2-3.35a.66.66,0,0,1,.19-.92.67.67,0,0,1,.92.19l2.2,3.36a.67.67,0,0,1-.19.92A.66.66,0,0,1,478.62,166.62Zm-57.44,33.44-2.2-3.35a.66.66,0,0,1,1.11-.73l2.2,3.36a.66.66,0,1,1-1.11.72ZM475,161l-2.2-3.35a.66.66,0,0,1,1.11-.73l2.19,3.35a.66.66,0,0,1-.19.92A.65.65,0,0,1,475,161Zm-57.44,33.44-2.2-3.35a.67.67,0,0,1,1.12-.73l2.19,3.35a.66.66,0,1,1-1.11.73Zm53.78-39-2.2-3.34a.67.67,0,0,1,.19-.92.65.65,0,0,1,.92.19l2.19,3.35a.66.66,0,1,1-1.1.72ZM413.86,188.9l-2.19-3.35a.66.66,0,0,1,.19-.92.65.65,0,0,1,.91.19l2.2,3.35a.66.66,0,0,1-1.11.73Zm53.77-39-2.19-3.35a.67.67,0,0,1,.19-.92.66.66,0,0,1,.92.19l2.19,3.35a.65.65,0,0,1-.19.92A.66.66,0,0,1,467.63,149.87ZM410.2,183.31,408,180a.67.67,0,0,1,.2-.92.66.66,0,0,1,.91.19l2.2,3.36a.65.65,0,0,1-.19.91A.66.66,0,0,1,410.2,183.31Zm53.78-39-2.2-3.35A.67.67,0,0,1,462,140a.65.65,0,0,1,.92.19l2.2,3.35a.67.67,0,0,1-.19.92A.66.66,0,0,1,464,144.29Zm-57.44,33.44-2.2-3.35a.67.67,0,0,1,.19-.92.66.66,0,0,1,.92.19l2.2,3.35a.67.67,0,0,1-.19.92A.66.66,0,0,1,406.54,177.73Zm53.78-39-2.2-3.34a.66.66,0,0,1,.19-.92.65.65,0,0,1,.92.19l2.19,3.35a.66.66,0,0,1-1.1.72Zm-57.44,33.45-2.2-3.35a.68.68,0,0,1,.19-.93.67.67,0,0,1,.92.19l2.2,3.36a.66.66,0,0,1-1.11.73Zm53.78-39-2.2-3.35a.66.66,0,0,1,1.11-.73l2.2,3.35a.67.67,0,0,1-.19.92A.66.66,0,0,1,456.66,133.12Zm-57.44,33.44-1.85-2.83a4.06,4.06,0,0,1-.36-.46l0,0a.67.67,0,0,1,1.14-.69,2,2,0,0,0,.25.33l.08.09,1.88,2.87a.66.66,0,0,1-1.11.73Zm53.78-39-.39-.59-.05-.07,0,0,0,0a4.28,4.28,0,0,0-1.82-1.44l-.37-.17a.65.65,0,0,1-.32-.88.67.67,0,0,1,.88-.32l.36.17a5.54,5.54,0,0,1,2.38,1.91l0,.06v0l.05.07.39.59a.66.66,0,1,1-1.11.73ZM396.9,161a.66.66,0,0,1-.69-.63,0,0,0,0,1,0,0l-.09-4a.67.67,0,1,1,1.33,0l.09,4-.66,0,.66,0a.68.68,0,0,1-.3.59A.76.76,0,0,1,396.9,161Zm51-36.91-3.63-1.68a.66.66,0,1,1,.55-1.21l3.64,1.68a.67.67,0,0,1,.32.88.67.67,0,0,1-.88.33ZM396.73,154.3a.67.67,0,0,1-.68-.65l-.09-4a.67.67,0,1,1,1.33,0l.08,4a.66.66,0,0,1-.29.57A.8.8,0,0,1,396.73,154.3Zm45.11-33-3.63-1.68a.66.66,0,1,1,.55-1.21l3.64,1.68a.66.66,0,0,1,.32.88.6.6,0,0,1-.24.28A.66.66,0,0,1,441.84,121.28Zm-45.27,26.34a.66.66,0,0,1-.67-.65l-.1-4a.67.67,0,1,1,1.33,0l.09,4a.64.64,0,0,1-.3.57A.69.69,0,0,1,396.57,147.62Zm39.21-29.14-3.63-1.68a.66.66,0,0,1-.32-.88.67.67,0,0,1,.88-.33l3.63,1.68a.67.67,0,0,1,.32.89.61.61,0,0,1-.23.27A.65.65,0,0,1,435.78,118.48Zm-39.36,22.46a.66.66,0,0,1-.68-.65l-.09-4a.66.66,0,0,1,.65-.68.67.67,0,0,1,.68.64l.09,4a.68.68,0,0,1-.3.57A.61.61,0,0,1,396.42,140.94Zm33.31-25.26L426.09,114a.66.66,0,1,1,.56-1.2l3.63,1.67a.66.66,0,0,1,.32.89.56.56,0,0,1-.23.27A.64.64,0,0,1,429.73,115.68Zm-33.46,18.58a.66.66,0,0,1-.68-.65l-.1-4a.67.67,0,0,1,.65-.68.66.66,0,0,1,.68.65l.09,4a.65.65,0,0,1-.29.57A.63.63,0,0,1,396.27,134.26Zm27.4-21.38L420,111.2a.66.66,0,1,1,.56-1.2l3.64,1.68a.65.65,0,0,1,.32.88.64.64,0,0,1-.24.27A.66.66,0,0,1,423.67,112.88Zm-27.56,14.71a.67.67,0,0,1-.67-.65l0-.66a11.07,11.07,0,0,1,.55-3.51.66.66,0,1,1,1.27.39,9.67,9.67,0,0,0-.49,3.09v.65a.71.71,0,0,1-.3.58A.8.8,0,0,1,396.11,127.59Zm21.55-17.15a14.11,14.11,0,0,0-3.81-.12.64.64,0,0,1-.72-.59.66.66,0,0,1,.59-.73,15.14,15.14,0,0,1,4.17.14.65.65,0,0,1,.54.77.67.67,0,0,1-.77.53Zm-20.33,10.65a.66.66,0,0,1-.28-.9,15.89,15.89,0,0,1,2.41-3.4.65.65,0,0,1,.93,0,.66.66,0,0,1,0,.94,14.48,14.48,0,0,0-2.21,3.12.64.64,0,0,1-.22.24A.65.65,0,0,1,397.33,121.09Zm14-10.29a10.86,10.86,0,0,0-3,1.35l-.39.25a.66.66,0,1,1-.73-1.1l.4-.26a12.18,12.18,0,0,1,3.4-1.52.67.67,0,0,1,.81.46.65.65,0,0,1-.27.74A.49.49,0,0,1,411.35,110.8Zm-9.93,5.08a.67.67,0,0,1,.19-.92l3.35-2.2a.66.66,0,1,1,.73,1.11l-3.35,2.2A.65.65,0,0,1,401.42,115.88Z"/><path class="cls-15" d="M382.44,69c-2.69-.84-6.19-1.22-9.23.77l0,0C370,72,368.7,76.17,369.78,81.09,372,91,380.49,98,388.54,103.49l.58.41a69.23,69.23,0,0,1,9.66,7.48,80.41,80.41,0,0,1,8.36,10.28,1.13,1.13,0,0,0,1.53.24l0,0a1.11,1.11,0,0,0,.3-1.55,82.9,82.9,0,0,0-8.59-10.55,71.55,71.55,0,0,0-9.94-7.71l-.59-.4C382.18,96.38,374,89.74,372,80.52c-.33-1.49-1.12-6.54,2.38-8.88,0,0,0,0,0,0a7.47,7.47,0,0,1,5.28-1"/><path class="cls-15" d="M394.44,82.25a54.51,54.51,0,0,1,5.67,15.65l.43,1.94a62.23,62.23,0,0,0,2.93,10.55,51.18,51.18,0,0,0,5.76,9.88,1.13,1.13,0,0,0,1.57.23,1.11,1.11,0,0,0,.31-1.55,48.66,48.66,0,0,1-5.53-9.47,61.64,61.64,0,0,1-2.83-10.2c-.14-.65-.29-1.31-.43-2-1.13-5.06-2.88-11.29-6.22-16.78"/><path class="cls-15" d="M401.23,104.89a11.21,11.21,0,0,0-3.63,2.79,2.7,2.7,0,0,0-1,2.14,2.52,2.52,0,0,0,.13.47l-1.58,1a4,4,0,0,1,1-4.89,12.92,12.92,0,0,1,4.25-3.24,5.42,5.42,0,0,1,5.43.16,6.51,6.51,0,0,1,.64.51l-1.63,1.07-.06,0A3.81,3.81,0,0,0,401.23,104.89Z"/><path class="cls-15" d="M394,110.22a5.23,5.23,0,0,1,1.62-4.31,13.57,13.57,0,0,1,4.52-3.44,6.22,6.22,0,0,1,6.21.23,6.83,6.83,0,0,1,.86.72l-.34.22-.34.23a6.51,6.51,0,0,0-.64-.51,5.42,5.42,0,0,0-5.43-.16,12.92,12.92,0,0,0-4.25,3.24,4,4,0,0,0-1,4.89l-.34.22-.34.23A5.58,5.58,0,0,1,394,110.22Z"/><path class="cls-15" d="M396.63,109.82a2.7,2.7,0,0,1,1-2.14,11.21,11.21,0,0,1,3.63-2.79,3.81,3.81,0,0,1,3.62,0l.06,0-.36.23-.38.25a3.26,3.26,0,0,0-2.61.2,10.15,10.15,0,0,0-3.36,2.59c-.6.66-.84,1.12-.78,1.48l0,.15-.35.23-.34.22A2.52,2.52,0,0,1,396.63,109.82Z"/><text class="cls-18" transform="translate(411.37 136.87) rotate(56.78)">R$1000</text></svg>