<svg id="Layer_1" data-name="Layer 1" xmlns="http://www.w3.org/2000/svg" viewBox="0 0 500 500"><defs><style>.cls-1{fill:#d7eff0;}.cls-2{fill:#824735;}.cls-3{fill:#e9c145;}.cls-4{fill:#cf973b;}.cls-5{fill:#804534;}.cls-6{fill:#d3a184;}.cls-7{fill:#e15c49;}.cls-8{fill:#edf0f0;}.cls-9{font-size:25px;fill:#fff;font-family:CaviarDreams-Bold, Caviar Dreams;font-weight:700;}</style></defs><title>Opcoes_Presente</title><path class="cls-1" d="M420.5,225.07v2.41a8.93,8.93,0,0,0,8.93,8.93h46.76a19.21,19.21,0,0,1,19.22,19.22h0a19.22,19.22,0,0,1-19.22,19.22H399.84a15.41,15.41,0,0,0-15.41,15.41h0a15.41,15.41,0,0,0,15.41,15.41h0A35.36,35.36,0,0,1,435.2,341v.36a35.73,35.73,0,0,1-35.73,35.73H70.1a13.57,13.57,0,0,1-13.57-13.57h0A13.57,13.57,0,0,1,70.1,350h31a9,9,0,0,0,9-9h0a9,9,0,0,0-9-9H42.26a36.7,36.7,0,0,1-36.7-36.7h0a36.71,36.71,0,0,1,36.7-36.71H64a31.72,31.72,0,0,0,31.72-31.73h0A31.72,31.72,0,0,0,64,195.06H52.49A36.09,36.09,0,0,1,16.4,159h0a36.09,36.09,0,0,1,36.09-36.09H433.6a46.63,46.63,0,0,1,46.63,46.63h0a46.63,46.63,0,0,1-46.63,46.63h-4.17A8.93,8.93,0,0,0,420.5,225.07Z"/><polygon class="cls-2" points="434.56 433.6 434.56 434.56 65.44 434.56 65.44 65.44 66.41 65.44 434.56 433.6"/><polygon class="cls-3" points="434.56 65.44 434.56 433.6 66.41 65.44 434.56 65.44"/><rect class="cls-4" x="82.52" y="82.52" width="334.97" height="334.97"/><rect class="cls-5" x="112.37" y="112.37" width="32.32" height="32.32"/><rect class="cls-5" x="355.33" y="112.37" width="32.32" height="32.32"/><rect class="cls-5" x="112.37" y="355.33" width="32.32" height="32.32"/><rect class="cls-5" x="223.98" y="318.57" width="59.28" height="59.28"/><rect class="cls-3" x="223.98" y="318.57" width="45.68" height="45.68"/><rect class="cls-5" x="355.33" y="355.33" width="32.32" height="32.32"/><polygon class="cls-5" points="179.39 232.89 179.39 189.06 198.44 166.51 314.36 166.51 333.73 188.74 333.73 247.5 315.95 266.23 284.51 266.23 279.74 271.95 279.74 297.36 234.97 297.36 234.97 257.02 255.29 236.7 288.64 236.7 288.64 201.76 284.98 198.11 230.2 198.11 226.15 202.16 226.15 233.21 179.39 232.89"/><polygon class="cls-3" points="169.65 221.14 169.65 177.31 188.71 154.76 304.62 154.76 323.99 177 323.99 235.75 306.21 254.48 274.77 254.48 270 260.2 270 285.61 225.23 285.61 225.23 245.27 245.55 224.95 278.9 224.95 278.9 190.02 275.25 186.36 220.46 186.36 216.41 190.41 216.41 221.46 169.65 221.14"/><path class="cls-6" d="M433.2,102l-1.41.61a8.75,8.75,0,0,1-.59-1.83l1.48-.49A5.85,5.85,0,0,0,433.2,102Z"/><path class="cls-6" d="M442.17,97.8l.1.17c.13.22.48.75.75,1.15l-1.5.5c-.22-.31-.4-.6-.57-.87l-.1-.18a6,6,0,0,0-.56-.85l1.52-.51C441.94,97.41,442.06,97.61,442.17,97.8Z"/><path class="cls-6" d="M430.57,101l.31-.1.32-.11a8.75,8.75,0,0,0,.59,1.83l1.41-.61a5.85,5.85,0,0,1-.52-1.71l.31-.11.33-.11a5.15,5.15,0,0,0,.49,1.71l.25.57-2.61,1.12-.25-.58A9,9,0,0,1,430.57,101Z"/><path class="cls-6" d="M440,97.83l.34-.11a6,6,0,0,1,.56.85l.1.18c.17.27.35.56.57.87l1.5-.5c-.27-.4-.62-.93-.75-1.15l-.1-.17c-.11-.19-.23-.39-.36-.59l.32-.11.32-.11.29.48.1.17c.17.29.73,1.13,1,1.46l.26.36-2.79.93-.14-.19c-.29-.4-.53-.77-.74-1.12l-.1-.18a6.16,6.16,0,0,0-.53-.8.75.75,0,0,0-.16-.15Z"/><path class="cls-7" d="M424.53,111.81,418,139.05a8.1,8.1,0,0,0,.37,5.28l19.17,57.59c1.53,4.58,7,6.9,12.09,5.18l41.44-13.85c5.14-1.72,8.09-6.84,6.56-11.41l-19.35-58.12s0-.09,0-.13a8.45,8.45,0,0,0-2.68-3.77L454,102a15.88,15.88,0,0,0-14-2.46l-5.64,1.89A15.88,15.88,0,0,0,424.53,111.81Zm15.4-2.9a4.83,4.83,0,1,1-3.05,6.11A4.83,4.83,0,0,1,439.93,108.91Z"/><path class="cls-8" d="M444.91,203.73a.55.55,0,0,1,.21-1.07,5.94,5.94,0,0,0,2.94-.22h0a.53.53,0,0,1,.69.34.54.54,0,0,1-.34.69l0,0A7,7,0,0,1,444.91,203.73Zm4.92-1.31a.55.55,0,0,1,.35-.69l3.12-1a.55.55,0,0,1,.35,1l-3.13,1.05A.55.55,0,0,1,449.83,202.42Zm5.21-1.74a.55.55,0,0,1,.35-.69l3.12-1.05a.55.55,0,0,1,.69.35.54.54,0,0,1-.34.69l-3.13,1A.54.54,0,0,1,455,200.68Zm5.21-1.74a.55.55,0,0,1,.35-.69l3.12-1.05a.55.55,0,1,1,.35,1l-3.13,1A.55.55,0,0,1,460.25,198.94Zm5.22-1.74a.53.53,0,0,1,.34-.69l3.12-1a.55.55,0,1,1,.35,1l-3.12,1A.54.54,0,0,1,465.47,197.2Zm5.21-1.74a.55.55,0,0,1,.34-.7l3.13-1a.54.54,0,1,1,.34,1l-3.12,1.05A.54.54,0,0,1,470.68,195.46Zm5.21-1.75a.54.54,0,0,1,.34-.69l3.13-1a.54.54,0,0,1,.69.34.54.54,0,0,1-.35.69l-3.12,1.05A.55.55,0,0,1,475.89,193.71ZM481.1,192a.54.54,0,0,1,.35-.69l3.12-1.05a.55.55,0,0,1,.69.35.54.54,0,0,1-.35.69l-3.12,1A.55.55,0,0,1,481.1,192Zm5.21-1.74a.54.54,0,0,1,.34-.69l2.84-.95.27-.09a.54.54,0,0,1,.39,1l-.31.12-2.84,1A.55.55,0,0,1,486.31,190.23Zm5.11-2a.54.54,0,0,1,.06-.77A4.53,4.53,0,0,0,493,185a.54.54,0,1,1,1.06.23,5.66,5.66,0,0,1-1.9,3,.54.54,0,0,1-.18.1A.55.55,0,0,1,491.42,188.25Zm-48.73,14.54a4.2,4.2,0,0,1-1.54-2.08l-.32-1a.55.55,0,0,1,1-.35l.31,1a3.24,3.24,0,0,0,1.15,1.55.53.53,0,0,1,.12.76.52.52,0,0,1-.27.19A.54.54,0,0,1,442.69,202.79Zm50.18-19.62-1-3.13a.55.55,0,0,1,1-.35l1,3.13a.55.55,0,0,1-1,.35Zm-52.73,14.5-1-3.13a.54.54,0,1,1,1-.34l1.05,3.13a.56.56,0,0,1-.35.69A.55.55,0,0,1,440.14,197.67Zm51-19.72-1.05-3.12a.56.56,0,0,1,.35-.7.55.55,0,0,1,.69.35l1,3.13a.54.54,0,1,1-1,.34ZM438.4,192.46l-1-3.13a.55.55,0,0,1,.35-.69.54.54,0,0,1,.68.34l1.05,3.13a.55.55,0,0,1-1,.35Zm51-19.72-1-3.13a.55.55,0,1,1,1-.34l1,3.12a.55.55,0,0,1-.35.69A.54.54,0,0,1,489.4,172.74Zm-52.73,14.51-1.05-3.13a.57.57,0,0,1,.35-.7.55.55,0,0,1,.69.35l1,3.13a.54.54,0,0,1-1,.35Zm51-19.72-1-3.13a.55.55,0,0,1,.35-.69.54.54,0,0,1,.69.34l1,3.13a.54.54,0,0,1-.34.69A.55.55,0,0,1,487.66,167.53ZM434.93,182l-1-3.13a.55.55,0,0,1,.35-.69.55.55,0,0,1,.69.35l1,3.13a.55.55,0,1,1-1,.34Zm51-19.71-1-3.13a.54.54,0,0,1,.34-.69.55.55,0,0,1,.7.34l1,3.13a.55.55,0,0,1-.35.69A.55.55,0,0,1,485.93,162.32Zm-52.73,14.5-1.05-3.13a.55.55,0,0,1,1-.35l1,3.14a.54.54,0,1,1-1,.34Zm51-19.72L483.15,154a.55.55,0,0,1,.35-.69.55.55,0,0,1,.69.35l1,3.13a.55.55,0,0,1-.35.69A.54.54,0,0,1,484.2,157.1Zm-52.74,14.51-1-3.13a.55.55,0,0,1,.34-.7.57.57,0,0,1,.7.35l1,3.13a.55.55,0,0,1-1,.35Zm51-19.72-1-3.13a.54.54,0,0,1,.34-.69.54.54,0,0,1,.69.35l1,3.12a.54.54,0,0,1-1,.35ZM429.73,166.4l-1.05-3.13a.55.55,0,1,1,1-.35l1,3.13a.55.55,0,0,1-.35.69A.54.54,0,0,1,429.73,166.4Zm51-19.72-1-3.13a.55.55,0,0,1,.35-.69.54.54,0,0,1,.69.34l1,3.13a.54.54,0,0,1-.35.69A.55.55,0,0,1,480.72,146.68ZM428,161.18l-1-3.13a.54.54,0,1,1,1-.34l1,3.13a.54.54,0,1,1-1,.34Zm51-19.72-1-3.12a.55.55,0,0,1,.34-.7.55.55,0,0,1,.69.35l1,3.13a.56.56,0,0,1-.35.69A.55.55,0,0,1,479,141.46ZM426.25,156l-1-3.13a.55.55,0,0,1,1-.35l1,3.13a.55.55,0,0,1-.34.69A.55.55,0,0,1,426.25,156Zm51-19.72-1-3.13a.55.55,0,0,1,.35-.69.55.55,0,0,1,.69.35l1,3.12a.55.55,0,0,1-1,.35Zm-52.73,14.5-1-3.12a.56.56,0,0,1,.35-.7.55.55,0,0,1,.69.35l1,3.13a.54.54,0,1,1-1,.34Zm51-19.71-1-3.13a.53.53,0,0,1,.34-.69.54.54,0,0,1,.69.34l1.05,3.13a.55.55,0,0,1-1,.35Zm-52.74,14.5-.88-2.64a3.38,3.38,0,0,1-.18-.44l0,0a.55.55,0,0,1,1.05-.31,1.46,1.46,0,0,0,.14.31.36.36,0,0,0,0,.09l.89,2.68a.55.55,0,0,1-1,.35Zm51-19.72-.18-.54,0-.07v0l0-.05a3.49,3.49,0,0,0-1.15-1.52l-.25-.21a.54.54,0,0,1-.07-.77.55.55,0,0,1,.77-.07l.25.21a4.54,4.54,0,0,1,1.49,2v.06h0l0,.07.18.55a.55.55,0,0,1-.35.69A.55.55,0,0,1,473.78,125.82Zm-51.67,14.8a.55.55,0,0,1-.42-.65v0l.78-3.2a.54.54,0,0,1,.65-.41.55.55,0,0,1,.41.66l-.77,3.21-.53-.12.53.12a.58.58,0,0,1-.36.4A.57.57,0,0,1,422.11,140.62ZM470.46,122l-2.54-2.1a.54.54,0,0,1-.07-.77.53.53,0,0,1,.76-.08l2.54,2.1a.54.54,0,0,1,.08.77.61.61,0,0,1-.25.18A.57.57,0,0,1,470.46,122Zm-47.08,13.26a.55.55,0,0,1-.4-.66l.77-3.21a.55.55,0,0,1,.66-.4.54.54,0,0,1,.4.66l-.77,3.21a.53.53,0,0,1-.36.38A.5.5,0,0,1,423.38,135.26Zm42.85-16.77-2.54-2.1a.54.54,0,0,1-.07-.77.55.55,0,0,1,.77-.07l2.53,2.1a.54.54,0,0,1,.08.77.59.59,0,0,1-.25.17A.53.53,0,0,1,466.23,118.49Zm-41.56,11.42a.55.55,0,0,1-.41-.65l.77-3.21a.55.55,0,0,1,1.07.25l-.77,3.21a.57.57,0,0,1-.36.39A.51.51,0,0,1,424.67,129.91ZM462,115l-2.54-2.1a.54.54,0,0,1-.07-.77.55.55,0,0,1,.77-.07l2.54,2.1a.55.55,0,0,1,.07.77.59.59,0,0,1-.25.17A.53.53,0,0,1,462,115ZM426,124.57a.55.55,0,0,1-.4-.66l.77-3.21a.55.55,0,0,1,1.06.26l-.77,3.2a.58.58,0,0,1-.36.4A.6.6,0,0,1,426,124.57Zm31.82-13.08-2.54-2.1a.55.55,0,0,1-.07-.77.54.54,0,0,1,.77-.07l2.53,2.1a.54.54,0,0,1,.08.77.59.59,0,0,1-.25.17A.55.55,0,0,1,457.77,111.49Zm-30.53,7.73a.54.54,0,0,1-.41-.66l.77-3.2a.54.54,0,1,1,1.06.25l-.77,3.21a.53.53,0,0,1-.35.39A.51.51,0,0,1,427.24,119.22ZM453.54,108l-2.54-2.1a.54.54,0,0,1-.07-.77.55.55,0,0,1,.77-.08l2.54,2.11a.55.55,0,0,1,.07.77.56.56,0,0,1-.25.16A.55.55,0,0,1,453.54,108Zm-25,5.89a.55.55,0,0,1-.4-.66l.12-.52a8.94,8.94,0,0,1,1.18-2.68.54.54,0,0,1,.75-.17.55.55,0,0,1,.18.75A8.16,8.16,0,0,0,429.3,113l-.12.52a.58.58,0,0,1-.36.4A.61.61,0,0,1,428.52,113.88Zm20.75-9.1a11.17,11.17,0,0,0-3-.9.54.54,0,0,1,.17-1.07,12.12,12.12,0,0,1,3.29,1,.54.54,0,0,1-.05,1A.53.53,0,0,1,449.27,104.78ZM430.85,109a.55.55,0,0,1,0-.77,12.71,12.71,0,0,1,2.64-2.2.53.53,0,0,1,.75.17.55.55,0,0,1-.17.75,11.76,11.76,0,0,0-2.42,2,.51.51,0,0,1-.23.15A.54.54,0,0,1,430.85,109Zm13.33-5.23a8.68,8.68,0,0,0-2.7.43l-.37.12a.54.54,0,0,1-.69-.35.55.55,0,0,1,.34-.69l.37-.12a10.23,10.23,0,0,1,3-.48.54.54,0,0,1,.18,1.06A.45.45,0,0,1,444.18,103.74Zm-9,2a.55.55,0,0,1,.34-.7l3.13-1a.55.55,0,0,1,.69.35.56.56,0,0,1-.34.69l-3.13,1A.53.53,0,0,1,435.21,105.69Z"/><path class="cls-6" d="M431.14,65.22c-2-1.5-5.22-3.28-8.67-2.13h0c-3,1-4.89,4.1-5.06,8.25-.35,8.35,5,15.69,10.2,21.77l.38.44a57.66,57.66,0,0,1,6.11,8,66.05,66.05,0,0,1,4.48,9.94.93.93,0,0,0,1.17.51l0,0a.91.91,0,0,0,.56-1.17,68.17,68.17,0,0,0-4.61-10.19,58.2,58.2,0,0,0-6.29-8.24L429,92c-5-5.83-10.11-12.83-9.78-20.59.05-1.26.48-5.44,3.76-6.56h0a6.8,6.8,0,0,1,5.62,1"/><path class="cls-6" d="M434.29,71.64C438,77.75,438.18,85.42,438,91.1c0,.55,0,1.1-.08,1.64a52.23,52.23,0,0,0,.12,9,41.47,41.47,0,0,0,2.5,9.07.94.94,0,0,0,1.77-.65,40.47,40.47,0,0,1-2.41-8.7,50.66,50.66,0,0,1-.1-8.71c0-.55.05-1.1.07-1.65.26-6.55-.07-15.66-5.26-22.41"/><path class="cls-6" d="M437.37,96.91a9.08,9.08,0,0,0-3.47,1.45c-.8.52-1.17,1-1.22,1.49a1.87,1.87,0,0,0,0,.41l-1.48.49a4.15,4.15,0,0,1-.05-1.06,3.77,3.77,0,0,1,1.91-2.61,10.53,10.53,0,0,1,4.07-1.68,4.46,4.46,0,0,1,4.28,1.27,5,5,0,0,1,.4.54l-1.52.51a.1.1,0,0,0,0,0A3.11,3.11,0,0,0,437.37,96.91Z"/><path class="cls-6" d="M430.5,99.62a4.35,4.35,0,0,1,2.2-3.09A11.28,11.28,0,0,1,437,94.75a5.12,5.12,0,0,1,4.89,1.49,5.85,5.85,0,0,1,.54.75l-.32.11-.32.11a5,5,0,0,0-.4-.54,4.46,4.46,0,0,0-4.28-1.27,10.53,10.53,0,0,0-4.07,1.68,3.77,3.77,0,0,0-1.91,2.61,4.15,4.15,0,0,0,.05,1.06l-.32.11-.31.1A4.55,4.55,0,0,1,430.5,99.62Z"/><path class="cls-6" d="M432.68,99.85c.05-.52.42-1,1.22-1.49a9.08,9.08,0,0,1,3.47-1.45,3.11,3.11,0,0,1,2.88.76.1.1,0,0,1,0,0l-.34.11-.35.12a2.62,2.62,0,0,0-2.12-.39,8.34,8.34,0,0,0-3.22,1.35c-.61.4-.9.71-.93,1,0,0,0,.08,0,.12l-.33.11-.31.11A1.87,1.87,0,0,1,432.68,99.85Z"/><text class="cls-9" transform="translate(441.82 145.28) rotate(69.31)">R$?</text></svg>