<svg id="Layer_1" data-name="Layer 1" xmlns="http://www.w3.org/2000/svg" viewBox="0 0 500 500"><defs><style>.cls-1{fill:#d7eff0;}.cls-2{fill:#bb8252;}.cls-3{fill:#4f4f64;}.cls-4{fill:#f9f9fa;}.cls-5{fill:#735a4d;}.cls-6{fill:#f1f0f0;}.cls-7{fill:#ee8d44;}.cls-8{fill:#4e4d62;}.cls-17,.cls-9{fill:#fff;}.cls-10{fill:#c3bfbf;}.cls-11{fill:#505065;}.cls-12{fill:#4d4d62;}.cls-13{fill:#f08e45;}.cls-14{fill:#d3a184;}.cls-15{fill:#e15c49;}.cls-16{fill:#edf0f0;}.cls-17{font-size:25px;font-family:CaviarDreams-Bold, Caviar Dreams;font-weight:700;}</style></defs><title>Opcoes_Presente</title><path class="cls-1" d="M420,225.07v2.41a8.92,8.92,0,0,0,8.92,8.93h46.77a19.22,19.22,0,0,1,19.22,19.22h0a19.23,19.23,0,0,1-19.22,19.22H399.35a15.41,15.41,0,0,0-15.41,15.41h0a15.41,15.41,0,0,0,15.41,15.41h0A35.36,35.36,0,0,1,434.71,341v.36A35.73,35.73,0,0,1,399,377.12H69.62A13.58,13.58,0,0,1,56,363.55h0A13.58,13.58,0,0,1,69.62,350h31a9,9,0,0,0,9-9h0a9,9,0,0,0-9-9H41.77a36.7,36.7,0,0,1-36.7-36.7h0a36.71,36.71,0,0,1,36.7-36.71H63.46a31.73,31.73,0,0,0,31.73-31.73h0a31.73,31.73,0,0,0-31.73-31.72H52A36.09,36.09,0,0,1,15.91,159h0A36.09,36.09,0,0,1,52,122.88H433.11a46.63,46.63,0,0,1,46.63,46.63h0a46.63,46.63,0,0,1-46.63,46.63h-4.17A8.92,8.92,0,0,0,420,225.07Z"/><path class="cls-2" d="M363.67,406.57a5.22,5.22,0,0,1-3.76-8.86l2-2.06a33.55,33.55,0,0,0,7.74-12.77,5.22,5.22,0,0,1,5-3.59H387a5.23,5.23,0,0,1,5.22,5.23v16.83a5.22,5.22,0,0,1-5.22,5.22Z"/><path class="cls-3" d="M387,384.52v16.82H363.67l2-2a38.55,38.55,0,0,0,8.95-14.77H387m0-10.46H374.61a10.47,10.47,0,0,0-9.93,7.18A28.34,28.34,0,0,1,358.16,392l-2,2.05a10.46,10.46,0,0,0,7.51,17.74H387a10.45,10.45,0,0,0,10.45-10.46V384.52A10.45,10.45,0,0,0,387,374.06Z"/><path class="cls-4" d="M274.39,434.57c-1.59,0-3.21,0-4.85-.06-83-2.12-130.66-32.92-130.66-84.51,0-33.23,15.62-85.45,37.43-125.73a110.88,110.88,0,0,1-28.42-43.52,116.32,116.32,0,0,1-6.73-39.25A114.55,114.55,0,0,1,165.88,70a109,109,0,0,1,8.77-9.67c19-18.62,43.74-28.88,69.59-28.88,28.66,0,55.28,12.26,74.94,34.52,1.89,2.12,3.82,4.5,5.86,7.23a113.28,113.28,0,0,1,22.07,61.46c.15,2,.22,4.21.22,6.83,0,10.72-.83,37.81-8.52,58a11.12,11.12,0,0,0,1.89,10.78c26.9,33.67,41.83,72.57,41,106.71C380.16,395,344.06,434.57,274.39,434.57Z"/><path class="cls-3" d="M244.24,36.69c28,0,53.22,12.6,71,32.75,2,2.2,3.82,4.52,5.59,6.9a108.26,108.26,0,0,1,21,58.63c.16,2.14.21,4.34.21,6.53,0,17.1-2,39.89-8.18,56.17a16.3,16.3,0,0,0,2.69,15.9c25.93,32.46,40.67,70.07,39.84,103.32-1.11,56.79-20.34,112.45-102.06,112.45-1.55,0-3.12,0-4.72-.06-63.51-1.62-125.56-21.41-125.56-79.28,0-31.26,15-84.47,38.79-126.84A105.23,105.23,0,0,1,152.81,179a111.42,111.42,0,0,1-6.43-37.49A108.84,108.84,0,0,1,170,73.28a102.67,102.67,0,0,1,8.34-9.2c17.38-17,40.54-27.39,65.94-27.39m0-10.45C217,26.24,191,37,171,56.61a114.75,114.75,0,0,0-9.16,10.11,119.82,119.82,0,0,0-25.89,74.78,121.48,121.48,0,0,0,7,41,116.34,116.34,0,0,0,26.88,42.78c-21.2,40.46-36.2,91.68-36.2,124.72,0,54.83,49.48,87.53,135.76,89.73,1.69,0,3.34.06,5,.06,40.75,0,70.94-13.21,89.74-39.26,14.63-20.27,22.07-47.57,22.77-83.44.89-35.29-14.46-75.42-42.12-110a5.89,5.89,0,0,1-1.08-5.66c8-21,8.86-48.88,8.86-59.88,0-2.69-.08-5.05-.23-7.21A118.48,118.48,0,0,0,329.24,70.1c-2.16-2.88-4.17-5.37-6.18-7.62-20.33-23-49.07-36.24-78.82-36.24Z"/><path class="cls-5" d="M74.15,394.42A36.35,36.35,0,0,1,57.88,391a14.91,14.91,0,0,1-7.63-9.35C43.9,360.5,70.55,312,108.9,245.72c12.13-20.95,23.59-40.74,31.19-56C152.28,165.31,156,146.47,158.46,134c2.43-12.31,4.35-22,14.51-22,3.45,0,7.44,1.26,13.33,4.2,22.55,11.25,26.08,63.35,26.63,79,1.43,41.45-5.93,82.67-19.71,110.27C167.07,357.9,109.48,394.42,74.15,394.42Z"/><path class="cls-3" d="M173,117.21c2.59,0,6.09,1.2,11,3.65,28.09,14,33.66,124,4.57,182.31-25,50.2-81.32,86-114.39,86a31.13,31.13,0,0,1-13.93-2.87c-28.1-14,55.45-136,84.54-194.24,24-48.1,16-74.87,28.21-74.87m0-10.46h0c-4.05,0-11.45,1.4-15.59,10.76-1.79,4.06-2.79,9.1-4,15.49-2.4,12.19-6,30.6-17.92,54.41-7.53,15.09-19,34.81-31,55.69-40.24,69.53-66.1,116.84-59.13,140a20,20,0,0,0,10.31,12.52,41.23,41.23,0,0,0,18.6,4c36.86,0,96.75-37.7,123.75-91.81,14.15-28.34,21.72-70.5,20.25-112.78-.73-21.06-5.07-71.35-29.51-83.55-6.67-3.33-11.36-4.75-15.67-4.75Z"/><path class="cls-3" d="M421.82,276.37c17.91,53-14.19,60.88-27.44,61.43-32,1.32-75.12-46-75.12-101.94s12.49-132,24.15-102.13C376.44,218.22,404.16,224.11,421.82,276.37Z"/><path class="cls-4" d="M376.45,316.89c-1.13,57.87-21.07,114.56-106.78,112.39-63.51-1.62-125.56-21.41-125.56-79.28,0-31.26,15-84.47,38.79-126.84A105.23,105.23,0,0,1,152.81,179a111.42,111.42,0,0,1-6.43-37.49A108.84,108.84,0,0,1,170,73.28a102.67,102.67,0,0,1,8.34-9.2c17.38-17,40.54-27.39,65.94-27.39,28,0,53.22,12.6,71,32.75,2,2.2,3.82,4.52,5.59,6.9a108.26,108.26,0,0,1,21,58.63c.16,2.14.21,4.34.21,6.53,0,17.1-2,39.89-8.18,56.17a16.3,16.3,0,0,0,2.69,15.9C362.54,246,377.28,283.64,376.45,316.89Z"/><path class="cls-6" d="M376.45,316.89c-1.13,57.87-21.07,114.56-106.78,112.39-4.36-.1-8.73-.31-13.06-.6,78.38-1.78,97-56.54,98.09-112.39.84-33.25-13.9-70.86-39.83-103.33a16.31,16.31,0,0,1-2.7-15.89c6.2-16.28,8.19-39.07,8.19-56.17,0-2.19-.08-4.39-.24-6.53a108.15,108.15,0,0,0-21-58.63c-1.78-2.38-3.66-4.7-5.62-6.9C278.56,52,258.44,40.35,235.83,37.08c2.77-.26,5.56-.39,8.41-.39,28,0,53.22,12.6,71,32.75,2,2.2,3.82,4.52,5.59,6.9.73,1,1.44,2,2.15,3A109.69,109.69,0,0,1,341.89,135c.16,2.14.21,4.34.21,6.53,0,17.1-2,39.89-8.18,56.17a16.3,16.3,0,0,0,2.69,15.9C362.54,246,377.28,283.64,376.45,316.89Z"/><path class="cls-5" d="M188.54,303.17c-29.08,58.28-100.23,97.17-128.32,83.15s55.45-136,84.54-194.24,11.12-85.25,39.21-71.22S217.63,244.88,188.54,303.17Z"/><path class="cls-7" d="M247.35,113.67c0,47.44-57.71,65.34-93.44,65.34-.36,0-.73,0-1.1,0a111.42,111.42,0,0,1-6.43-37.49A108.84,108.84,0,0,1,170,73.28a102.67,102.67,0,0,1,8.34-9.2c1,0,2-.07,3.06-.07C217.09,64,247.35,87.92,247.35,113.67Z"/><path class="cls-7" d="M341.89,135c-17.64-10.43-30.79-26.35-30.79-49a36.31,36.31,0,0,1,4.16-16.55c2,2.2,3.82,4.52,5.59,6.9A108.26,108.26,0,0,1,341.89,135Z"/><path class="cls-5" d="M320.85,76.34c-14-4-26.37-18-41.5-16.93C251.09,65.26,185,88.08,170,73.28c17.93-22.4,44.56-36.59,74.28-36.59C275.29,36.69,303,52.19,320.85,76.34Z"/><path class="cls-8" d="M244.9,117.21c0,15.34-11,22.59-24.51,22.59s-24.18-3-24.18-18.29,10.65-32.07,24.18-32.07S244.9,101.87,244.9,117.21Z"/><path class="cls-9" d="M237.71,104.65c.93,1.58,3.06,11.2.09,11.2s-1.78-5.53-2.37-8.25c-1.78-8.16-12.72-6.92-8.8-10C228.7,96,233.52,97.53,237.71,104.65Z"/><path class="cls-9" d="M241.65,121.11c.24,1.2-.09,2.6-3.06,2.6s-3-2-3.16-2.63c-.48-1.66,1.68-2.48,3.12-2.4C241,118.83,241.38,119.78,241.65,121.11Z"/><path class="cls-8" d="M339.51,117.59c-6.71-.08-14.32-6.62-19.1-13.25-6.2-8.58-5.83-22-1.15-24.31a7.25,7.25,0,0,1,3.74-.71A107.21,107.21,0,0,1,339.51,117.59Z"/><path class="cls-9" d="M319.34,94.42c.12,1.26,2.81,7.49,4.47,6.29s-1.23-3.8-2-5.57c-2.3-5.27,4.31-9,.89-9.11C320.9,86,318.8,88.75,319.34,94.42Z"/><path class="cls-9" d="M323.79,105.21c.35.77,1.1,1.42,2.76.22a1.88,1.88,0,0,0,.7-2.75c-.4-1.12-1.94-.71-2.71-.08C323.25,103.67,323.4,104.36,323.79,105.21Z"/><path class="cls-10" d="M327.6,137.67a31.1,31.1,0,0,0-.27-4.23c-1.62,16.7-11.94,30.61-30.94,30.61S251.9,146.87,248,129.52a20.07,20.07,0,0,0-.52,4.57c0,18.77,28.12,39,48.93,39S327.6,156.44,327.6,137.67Z"/><path class="cls-10" d="M314.42,187.24a45.23,45.23,0,0,0-13.9-2c-.94,0-1.91,0-2.88.11a.76.76,0,0,0-.26,0,27.15,27.15,0,0,0-4.13.39,80,80,0,0,0-23.58,7.13c6.91-7.81,18.54-13.85,28-13.85C305.27,179,310.87,182.25,314.42,187.24Z"/><path class="cls-11" d="M288.91,127.44c-1.52-2.66-5.85-3-9.67-.87s-5.68,6.11-4.15,8.77,3.09-1.77,6.91-4S290.43,130.11,288.91,127.44Z"/><path class="cls-11" d="M308.2,126.84c1.2-2.1,4.62-2.41,7.63-.69s4.49,4.83,3.29,6.93-2.45-1.4-5.46-3.12S307,129,308.2,126.84Z"/><path class="cls-7" d="M217.29,468.54c-.53,0-1,0-1.57-.08-14.32-1.33-26.78-14.15-36-37.07-7.35-18.23-10.72-38.18-10.24-48.46.42-9.16,4.34-11.08,7.55-11.08a7.11,7.11,0,0,1,4,1.27,5.21,5.21,0,0,1,1.35,1.3c17.29,24.11,23.37,26,24.82,26s3.75-6.81,4.75-9.72c2.66-7.78,6.31-18.44,16.58-18.44.29,0,.6,0,.91,0,8.66.56,8.93,10.61,9.17,19.48.33,12,1.26,17.65,5.68,17.65,4,0,12.29-2.82,29.51-16.26A5.22,5.22,0,0,1,277,392h.16c4.47.13,7.54,3.46,7.47,8.08-.25,16.6-44.07,68.41-67.31,68.42Z"/><path class="cls-3" d="M177,377.08a2,2,0,0,1,1.08.38c15.14,21.13,23.7,28.17,29.07,28.17,10.74,0,8.76-28.16,21.32-28.17l.58,0c9.3.61-2.54,37.15,15.19,37.15,6.34,0,16.48-4.68,32.73-17.37,13.93.43-36.17,66.05-59.68,66.05-.37,0-.73,0-1.09-.05-33.76-3.15-47.53-86.18-39.2-86.18m0-10.46c-2.82,0-12.08,1.16-12.77,16.07-.51,10.84,3,31.73,10.61,50.66,10,24.85,24,38.79,40.39,40.32.67.06,1.37.09,2.06.09,15.66,0,33.91-16.51,46.47-30.36,4.31-4.76,25.85-29.22,26.07-43.2.11-7.53-5.16-13.16-12.54-13.39H277a10.44,10.44,0,0,0-6.44,2.21c-16,12.52-23.18,14.73-25.53,15.09-.95-2.71-1.12-9-1.21-12.5a68.64,68.64,0,0,0-1-11.84c-2.38-11.16-10.61-12.56-13.08-12.72-.43,0-.84,0-1.25,0-14,0-18.72,13.76-21.53,22-.46,1.35-1,3.06-1.62,4.54-3-2.47-8.84-8.33-18.76-22.16a10.24,10.24,0,0,0-2.69-2.6,12.33,12.33,0,0,0-6.88-2.15Z"/><path class="cls-12" d="M443.19,395.8c-4.08,31.43-30.41,28.52-39.57,28.52s-15.89-9.5-16.59-21.17c-3.43-56.86,27-100.64,41.07-98C437.11,306.8,444.7,384.17,443.19,395.8Z"/><path class="cls-13" d="M432,389.19c-2.61,24.73-19.46,22.45-25.32,22.45S396,404.18,396,395c0-27.11,20.42-77.14,26.29-77.14S432.92,380,432,389.19Z"/><path class="cls-12" d="M420.83,398.16a5.24,5.24,0,0,1-5.18-4.58c-.94-7.36-4.37-16.25-7.22-16.25h0c-10.09-.23-10.86,3.87-11.46,6.84a7.16,7.16,0,0,1-1.84,4,5.22,5.22,0,0,1-8.45-5.86c0-.08,0-.17.05-.25,2-10.11,9.11-15.23,21-15.23h.81c13.62,0,17,21.16,17.5,25.4a5.23,5.23,0,0,1-4.54,5.84A4.87,4.87,0,0,1,420.83,398.16Zm-33.09-17.34h0Z"/><path class="cls-12" d="M421.28,367.4h0a5.23,5.23,0,0,1-5.22-5.23c0-4.4-1.37-11.76-4.25-13.51-1.51-.92-4,0-5.88,1a5.23,5.23,0,1,1-4.79-9.29c7.68-3.95,13-2.5,16.12-.6,9,5.51,9.26,20.73,9.25,22.44A5.22,5.22,0,0,1,421.28,367.4Z"/><path class="cls-14" d="M389.74,158.86l.86,1.26a8.2,8.2,0,0,1-1.67.93l-.77-1.35A6.14,6.14,0,0,0,389.74,158.86Z"/><path class="cls-14" d="M383.93,150.87l.14-.13c.2-.17.65-.61,1-1l.78,1.38c-.27.27-.51.51-.75.72l-.15.14a5.48,5.48,0,0,0-.73.71l-.79-1.39C383.59,151.17,383.76,151,383.93,150.87Z"/><path class="cls-14" d="M389.25,161.63l-.16-.29-.16-.29a8.2,8.2,0,0,0,1.67-.93l-.86-1.26a6.14,6.14,0,0,1-1.58.84l-.17-.29-.17-.3a4.66,4.66,0,0,0,1.58-.81l.51-.35,1.6,2.34-.52.36A9.38,9.38,0,0,1,389.25,161.63Z"/><path class="cls-14" d="M384.38,153l-.17-.31a5.48,5.48,0,0,1,.73-.71l.15-.14c.24-.21.48-.45.75-.72l-.78-1.38c-.34.35-.79.79-1,1l-.14.13c-.17.14-.34.3-.51.47l-.17-.29-.17-.3.41-.37.15-.13c.25-.22,1-.93,1.25-1.23l.3-.32,1.45,2.56-.16.17c-.34.36-.65.67-1,.94l-.15.14a4.93,4.93,0,0,0-.69.67l-.12.18Z"/><path class="cls-15" d="M401,165.47,429,166.66a8.1,8.1,0,0,0,5.11-1.38l52.75-29.84c4.19-2.37,5.43-8.13,2.75-12.84L468.08,84.65c-2.67-4.7-8.26-6.61-12.44-4.23L402.4,110.53l-.12.07A8.38,8.38,0,0,0,399.1,114l-13.36,24.56a15.83,15.83,0,0,0,.29,14.23L389,157.9A15.88,15.88,0,0,0,401,165.47Zm-5.79-14.53a4.82,4.82,0,1,1,6.57,1.81A4.8,4.8,0,0,1,395.25,150.94Z"/><path class="cls-16" d="M487.2,127.85a.55.55,0,1,1-1.09,0,5.76,5.76,0,0,0-.78-2.84l0,0a.55.55,0,0,1,.95-.54l0,0A6.86,6.86,0,0,1,487.2,127.85ZM485,123.28a.55.55,0,0,1-.75-.2l-1.62-2.86a.55.55,0,0,1,.2-.75.54.54,0,0,1,.74.21l1.63,2.86A.54.54,0,0,1,485,123.28Zm-2.71-4.77a.55.55,0,0,1-.75-.2l-1.62-2.87a.54.54,0,0,1,1-.53l1.62,2.86A.54.54,0,0,1,482.27,118.51Zm-2.71-4.77a.54.54,0,0,1-.74-.2l-1.63-2.87a.54.54,0,0,1,.21-.74.53.53,0,0,1,.74.21l1.63,2.86A.54.54,0,0,1,479.56,113.74Zm-2.7-4.77a.54.54,0,0,1-.75-.21l-1.62-2.86a.54.54,0,0,1,.2-.74.55.55,0,0,1,.75.2l1.62,2.86A.55.55,0,0,1,476.86,109Zm-2.71-4.77a.55.55,0,0,1-.75-.21l-1.62-2.86a.55.55,0,0,1,.21-.75.55.55,0,0,1,.74.21l1.62,2.86A.55.55,0,0,1,474.15,104.2Zm-2.71-4.78a.54.54,0,0,1-.74-.2l-1.63-2.86a.55.55,0,0,1,.21-.75.54.54,0,0,1,.74.21l1.63,2.86A.55.55,0,0,1,471.44,99.42Zm-2.7-4.77a.54.54,0,0,1-.75-.21l-1.63-2.85a.56.56,0,0,1,.21-.75.54.54,0,0,1,.75.21l1.62,2.86A.55.55,0,0,1,468.74,94.65ZM466,89.88a.55.55,0,0,1-.75-.2l-1.47-2.61c-.05-.08-.1-.16-.14-.24a.54.54,0,1,1,.92-.57l.17.28,1.47,2.6A.54.54,0,0,1,466,89.88Zm-2.92-4.63a.54.54,0,0,1-.77.09,4.56,4.56,0,0,0-2.69-1,.54.54,0,1,1,0-1.08A5.57,5.57,0,0,1,463,84.49a.51.51,0,0,1,.13.16A.53.53,0,0,1,463.11,85.25Zm23.59,45a4.25,4.25,0,0,1-1.74,1.91l-.87.49a.54.54,0,0,1-.74-.2.55.55,0,0,1,.2-.75l.88-.49a3.19,3.19,0,0,0,1.29-1.42.54.54,0,0,1,.72-.26.52.52,0,0,1,.24.22A.52.52,0,0,1,486.7,130.21Zm-28.85-45.4L455,86.42a.54.54,0,1,1-.54-.94l2.87-1.62a.54.54,0,0,1,.74.2A.55.55,0,0,1,457.85,84.81Zm24.33,48.88-2.87,1.63a.55.55,0,0,1-.74-.21.54.54,0,0,1,.21-.74l2.86-1.63a.56.56,0,0,1,.75.21A.55.55,0,0,1,482.18,133.69ZM453.07,87.51l-2.86,1.62a.56.56,0,0,1-.75-.21.54.54,0,0,1,.21-.74l2.86-1.62a.55.55,0,0,1,.75.2A.57.57,0,0,1,453.07,87.51Zm24.34,48.89L474.54,138a.55.55,0,0,1-.74-.21.54.54,0,0,1,.2-.74l2.87-1.62a.54.54,0,0,1,.74.2A.55.55,0,0,1,477.41,136.4ZM448.3,90.2l-2.87,1.63a.55.55,0,0,1-.74-.21.54.54,0,0,1,.2-.74l2.87-1.62a.54.54,0,0,1,.54.94Zm24.33,48.9-2.87,1.62a.54.54,0,0,1-.53-.95l2.86-1.62a.55.55,0,1,1,.54.95ZM443.52,92.91l-2.86,1.62a.55.55,0,0,1-.75-.21.54.54,0,0,1,.21-.74L443,92a.55.55,0,1,1,.54,1Zm24.34,48.89L465,143.42a.55.55,0,1,1-.54-.95l2.87-1.62a.55.55,0,0,1,.54,1ZM438.75,95.61l-2.87,1.62a.53.53,0,0,1-.74-.21.54.54,0,0,1,.2-.74l2.87-1.62a.55.55,0,0,1,.54,1Zm24.33,48.89-2.87,1.62a.54.54,0,0,1-.74-.2.55.55,0,0,1,.21-.75l2.86-1.62a.55.55,0,1,1,.54.95ZM434,98.31l-2.86,1.62a.55.55,0,1,1-.54-1l2.86-1.62a.56.56,0,0,1,.75.21A.54.54,0,0,1,434,98.31ZM458.3,147.2l-2.86,1.62a.56.56,0,0,1-.75-.2.56.56,0,0,1,.21-.75l2.87-1.62a.54.54,0,1,1,.53.95ZM429.19,101l-2.86,1.62a.54.54,0,0,1-.74-.2.55.55,0,0,1,.2-.75l2.87-1.62a.54.54,0,0,1,.74.21A.54.54,0,0,1,429.19,101Zm24.34,48.89-2.87,1.62a.54.54,0,0,1-.74-.2.56.56,0,0,1,.2-.75L453,149a.54.54,0,1,1,.54.94Zm-29.11-46.19-2.87,1.62a.54.54,0,1,1-.53-1l2.86-1.61a.54.54,0,1,1,.54.94Zm24.34,48.89-2.87,1.62a.54.54,0,1,1-.54-.94l2.87-1.63a.55.55,0,0,1,.74.21A.54.54,0,0,1,448.76,152.6Zm-29.12-46.19L416.78,108a.54.54,0,0,1-.74-.2.55.55,0,0,1,.2-.75l2.87-1.62a.55.55,0,0,1,.74.21A.54.54,0,0,1,419.64,106.41ZM444,155.3l-2.87,1.63a.55.55,0,0,1-.74-.21.53.53,0,0,1,.21-.74l2.86-1.63a.57.57,0,0,1,.75.21A.55.55,0,0,1,444,155.3Zm-29.11-46.19L412,110.73a.55.55,0,0,1-.75-.2.53.53,0,0,1,.21-.74l2.86-1.62a.54.54,0,1,1,.54.94ZM439.2,158l-2.86,1.63a.55.55,0,1,1-.54-.95l2.87-1.62a.54.54,0,0,1,.74.2A.53.53,0,0,1,439.2,158Zm-29.11-46.19-2.86,1.62a.54.54,0,1,1-.54-.94l2.87-1.63a.55.55,0,0,1,.74.21A.53.53,0,0,1,410.09,111.81Zm24.34,48.9L432,162.08a2.75,2.75,0,0,1-.4.26l0,0a.54.54,0,0,1-.74-.22.57.57,0,0,1,.23-.75,1.38,1.38,0,0,0,.28-.19l.08,0,2.46-1.39a.53.53,0,0,1,.74.21A.54.54,0,0,1,434.43,160.71Zm-29.11-46.2-.5.29-.06,0h0l0,0a3.42,3.42,0,0,0-1.28,1.41l-.15.29a.54.54,0,0,1-.74.22.55.55,0,0,1-.22-.74l.15-.29a4.56,4.56,0,0,1,1.7-1.84l.05,0h0l.06,0,.5-.28a.54.54,0,0,1,.54.94Zm24.41,47.8a.55.55,0,0,1-.55.54h0l-3.29-.14a.55.55,0,0,1,.05-1.1l3.29.15v0a.53.53,0,0,1,.46.27A.55.55,0,0,1,429.73,162.31Zm-27.52-43.8-1.57,2.89a.55.55,0,0,1-1-.52l1.58-2.89a.55.55,0,0,1,.74-.22.63.63,0,0,1,.22.21A.58.58,0,0,1,402.21,118.51Zm22,43.58a.55.55,0,0,1-.57.52l-3.29-.14a.55.55,0,0,1,0-1.09l3.3.15a.52.52,0,0,1,.45.27A.59.59,0,0,1,424.24,162.09Zm-24.65-38.76L398,126.22a.54.54,0,0,1-.74.21.53.53,0,0,1-.22-.74l1.57-2.88a.54.54,0,0,1,.95,0A.55.55,0,0,1,399.59,123.33Zm19.16,38.53a.54.54,0,0,1-.56.52l-3.29-.14a.55.55,0,1,1,0-1.09l3.29.14a.57.57,0,0,1,.46.28A.56.56,0,0,1,418.75,161.86ZM397,128.14,395.4,131a.55.55,0,1,1-1-.52l1.57-2.89a.55.55,0,0,1,.74-.22.56.56,0,0,1,.22.74Zm16.3,33.49a.55.55,0,0,1-.57.52l-3.29-.14a.55.55,0,0,1,0-1.09l3.29.14a.57.57,0,0,1,.45.27A.6.6,0,0,1,413.27,161.63ZM394.35,133l-1.57,2.89a.55.55,0,0,1-.74.22.54.54,0,0,1-.22-.74l1.57-2.89a.53.53,0,0,1,.74-.22.47.47,0,0,1,.21.21A.55.55,0,0,1,394.35,133Zm13.43,28.43a.54.54,0,0,1-.56.53l-3.29-.14a.55.55,0,0,1-.52-.57.53.53,0,0,1,.57-.52l3.28.14a.55.55,0,0,1,.46.27A.58.58,0,0,1,407.78,161.39Zm-16-23.61-1.57,2.89a.56.56,0,0,1-.74.22.54.54,0,0,1-.22-.74l1.57-2.9a.54.54,0,0,1,.74-.21.53.53,0,0,1,.21.21A.55.55,0,0,1,391.73,137.78Zm10.57,23.38a.54.54,0,0,1-.57.52l-.53,0a8.88,8.88,0,0,1-2.85-.64.55.55,0,0,1-.32-.7.55.55,0,0,1,.71-.32,7.66,7.66,0,0,0,2.5.57l.54,0a.55.55,0,0,1,.45.28A.5.5,0,0,1,402.3,161.16Zm-12.89-18.59a11.25,11.25,0,0,0-.31,3.12.53.53,0,0,1-.52.56.55.55,0,0,1-.57-.53,12.62,12.62,0,0,1,.34-3.41.55.55,0,0,1,.66-.4.57.57,0,0,1,.34.26A.55.55,0,0,1,389.41,142.57ZM397,159.82a.54.54,0,0,1-.75.18,13.15,13.15,0,0,1-2.66-2.16.55.55,0,0,1,.8-.75,11.61,11.61,0,0,0,2.44,2,.47.47,0,0,1,.18.19A.54.54,0,0,1,397,159.82Zm-7.68-12a8.9,8.9,0,0,0,.94,2.56l.19.34a.54.54,0,0,1-.21.74.54.54,0,0,1-.74-.21l-.19-.34a10.24,10.24,0,0,1-1.06-2.87.55.55,0,0,1,1-.38A.44.44,0,0,1,389.36,147.77Zm3.63,8.41a.54.54,0,0,1-.74-.2l-1.63-2.87a.55.55,0,0,1,1-.54l1.62,2.87A.54.54,0,0,1,393,156.18Z"/><path class="cls-14" d="M357.33,166.31c5.16-6.85,14.28-9,20.84-10l1.62-.25a51.33,51.33,0,0,0,8.81-1.84A41.79,41.79,0,0,0,397,150a.94.94,0,0,0-1-1.61,40.2,40.2,0,0,1-8.06,4,51.15,51.15,0,0,1-8.52,1.77l-1.63.25c-6.57,1-15.61,3.14-21.21,9.76"/><path class="cls-14" d="M353.69,176.83l0,0c1.58,2.74,5,4,9.05,3.38,8.26-1.26,14.43-7.87,19.38-14.17l.37-.46a56.52,56.52,0,0,1,6.65-7.52,66.11,66.11,0,0,1,8.88-6.3.94.94,0,0,0,.28-1.24l0,0a.9.9,0,0,0-1.25-.32,66.51,66.51,0,0,0-9.11,6.47,58.2,58.2,0,0,0-6.86,7.74l-.36.46c-4.75,6-10.63,12.37-18.3,13.54-1.24.19-5.42.57-7.15-2.43,0,0,0,0,0,0"/><path class="cls-14" d="M384,155.74a9.13,9.13,0,0,0,2.09,3.13c.67.68,1.18.95,1.7.91a1.89,1.89,0,0,0,.4-.08l.77,1.35a3.6,3.6,0,0,1-1,.25,3.71,3.71,0,0,1-2.92-1.36,10.7,10.7,0,0,1-2.43-3.67,4.46,4.46,0,0,1,.43-4.44,4.22,4.22,0,0,1,.45-.49l.79,1.39,0,.05A3.1,3.1,0,0,0,384,155.74Z"/><path class="cls-14" d="M388,162a4.31,4.31,0,0,1-3.45-1.56,11.19,11.19,0,0,1-2.57-3.89,5.1,5.1,0,0,1,.52-5.08,6.79,6.79,0,0,1,.63-.67l.17.3.17.29a4.22,4.22,0,0,0-.45.49,4.46,4.46,0,0,0-.43,4.44,10.7,10.7,0,0,0,2.43,3.67,3.71,3.71,0,0,0,2.92,1.36,3.6,3.6,0,0,0,1-.25l.16.29.16.29A4.51,4.51,0,0,1,388,162Z"/><path class="cls-14" d="M387.76,159.78c-.52,0-1-.23-1.7-.91a9.13,9.13,0,0,1-2.09-3.13,3.1,3.1,0,0,1,.2-3l0-.05.17.31.18.32a2.68,2.68,0,0,0,0,2.16,8.34,8.34,0,0,0,1.94,2.89c.51.52.87.75,1.17.72l.12,0,.17.3.17.29A1.89,1.89,0,0,1,387.76,159.78Z"/><text class="cls-17" transform="translate(412.46 153.01) rotate(-31.28)">R$500</text></svg>