<svg xmlns="http://www.w3.org/2000/svg" viewBox="0 0 500 500"><defs><style>.cls-1{isolation:isolate;}.cls-2{fill:#d7eff0;}.cls-3,.cls-4{fill:#7ecdc3;}.cls-12,.cls-14,.cls-16,.cls-18,.cls-20,.cls-22,.cls-24,.cls-4,.cls-7{opacity:0.5;mix-blend-mode:multiply;}.cls-25,.cls-5{fill:#fff;}.cls-5{opacity:0.3;}.cls-6,.cls-7{fill:#f9d41c;}.cls-8{fill:#d3a184;}.cls-9{fill:#e15c49;}.cls-10{fill:#edf0f0;}.cls-11,.cls-12{fill:#f9aa22;}.cls-13,.cls-14{fill:#ef4739;}.cls-15,.cls-16{fill:#fac7d3;}.cls-17,.cls-18{fill:#f385ad;}.cls-19,.cls-20{fill:#80bc42;}.cls-21,.cls-22{fill:#b096c7;}.cls-23,.cls-24{fill:#58beec;}.cls-25{font-size:25px;font-family:CaviarDreams-Bold, Caviar Dreams;font-weight:700;}</style></defs><title>Opcoes_Presente</title><g class="cls-1"><g id="Layer_1" data-name="Layer 1"><path class="cls-2" d="M415.66,225.71v2.35a8.7,8.7,0,0,0,8.7,8.7h45.57a18.72,18.72,0,0,1,18.72,18.72h0a18.72,18.72,0,0,1-18.72,18.73h-74.4a15,15,0,0,0-15,15h0a15,15,0,0,0,15,15h0A34.45,34.45,0,0,1,430,338.7v.35a34.8,34.8,0,0,1-34.81,34.81H74.24A13.22,13.22,0,0,1,61,360.64h0a13.23,13.23,0,0,1,13.23-13.23h30.21a8.79,8.79,0,0,0,8.8-8.79h0a8.8,8.8,0,0,0-8.8-8.8H47.11a35.76,35.76,0,0,1-35.76-35.76h0a35.77,35.77,0,0,1,35.76-35.77H68.24a30.91,30.91,0,0,0,30.92-30.91h0a30.92,30.92,0,0,0-30.92-30.92H57.07A35.16,35.16,0,0,1,21.91,161.3h0a35.16,35.16,0,0,1,35.16-35.16H428.42a45.43,45.43,0,0,1,45.44,45.43h0A45.43,45.43,0,0,1,428.42,217h-4.06A8.69,8.69,0,0,0,415.66,225.71Z"/><path class="cls-3" d="M252.75,271.15c-31.53,8.64-72.86-.34-87.42-26.86-5.94-10.8-10.31-29.77-1.11-42.46,6.87-9.47,18.64-11.79,23.5-12.75,21.6-4.25,26.6,8.23,43.38,5.07.45-.08.89-.18,1.33-.28s.85-.27,1.29-.43c16.06-5.79,14-19.09,34.79-26.39,4.67-1.64,16-5.62,26.72-1,14.37,6.27,20.23,24.82,20.6,37.14.92,30.24-30.13,59-61.67,67.53-.24.06-.48.11-.71.18Z"/><path class="cls-4" d="M297.47,174.29c-10.73-4.67-22.05-.69-26.73,1C250,182.54,252,195.83,236,201.63l-1.29.43c-.44.09-.87.2-1.33.28-16.78,3.16-21.78-9.32-43.37-5.07-4.86,1-16.64,3.28-23.51,12.75-5.59,7.72-6.15,17.76-4.41,26.87-3.85-10.79-5.17-24.92,2.18-35.06,6.87-9.47,18.64-11.79,23.5-12.75,21.6-4.25,26.6,8.23,43.38,5.07.45-.08.89-.18,1.33-.28s.85-.27,1.29-.43c16.06-5.79,14-19.09,34.79-26.39,4.67-1.64,16-5.62,26.72-1,11.48,5,17.52,17.85,19.68,29.1C311.78,186.46,306.21,178.1,297.47,174.29Z"/><circle class="cls-5" cx="189.98" cy="241.44" r="11.03"/><path class="cls-5" d="M214,255.13a3.4,3.4,0,1,0-4.17-2.38A3.4,3.4,0,0,0,214,255.13Z"/><path class="cls-6" d="M305.2,340.77c-25.68-20.22-43-58.78-30.37-86.26,5.16-11.19,17.81-26,33.48-26.13,11.7-.11,20.57,8,24.22,11.32,16.26,14.83,9.2,26.28,21.72,37.88.34.32.67.61,1,.91s.73.52,1.12.78c14.2,9.46,23.69-.07,41.9,12.29,4.1,2.78,14,9.52,16.65,20.92,3.51,15.27-7.93,31-17.61,38.64-23.78,18.72-65.32,10.83-91-9.44l-.56-.47Z"/><path class="cls-7" d="M409.67,319.14c-2.61-11.4-12.55-18.14-16.65-20.92-18.21-12.36-27.69-2.82-41.9-12.29l-1.11-.78c-.34-.3-.68-.59-1-.9-12.52-11.61-5.45-23.06-21.71-37.89-3.66-3.34-12.53-11.43-24.23-11.32-9.53.09-17.93,5.61-24.22,12.43,6.38-9.51,17-19,29.48-19.09,11.7-.11,20.57,8,24.22,11.32,16.26,14.83,9.2,26.28,21.72,37.88.34.32.67.61,1,.91s.73.52,1.12.78c14.2,9.46,23.69-.07,41.9,12.29,4.1,2.78,14,9.52,16.65,20.92,2.8,12.2-3.94,24.69-11.7,33.12C408.4,337.89,411.81,328.44,409.67,319.14Z"/><path class="cls-5" d="M284.94,281.3a11,11,0,1,0-1.83-15.5A11,11,0,0,0,284.94,281.3Z"/><path class="cls-5" d="M295,300.05a3.39,3.39,0,1,0-.57-4.77A3.39,3.39,0,0,0,295,300.05Z"/><path class="cls-8" d="M333.69,375.82l-.49,1.8a10.52,10.52,0,0,1-2.18-.81l.65-1.78A7.13,7.13,0,0,0,333.69,375.82Z"/><path class="cls-8" d="M336.5,364.13l.23,0c.32,0,1.08.11,1.67.15l-.66,1.81q-.69,0-1.26-.12l-.25,0a6.75,6.75,0,0,0-1.24-.12l.67-1.83Z"/><path class="cls-8" d="M330.74,377.57l.14-.38.14-.38a10.52,10.52,0,0,0,2.18.81l.49-1.8a7.13,7.13,0,0,1-2-.79l.13-.38.15-.4a5.75,5.75,0,0,0,2,.82l.73.2-.91,3.33-.74-.2A11.84,11.84,0,0,1,330.74,377.57Z"/><path class="cls-8" d="M334.84,366.27l.15-.41a6.75,6.75,0,0,1,1.24.12l.25,0q.57.08,1.26.12l.66-1.81c-.59,0-1.35-.11-1.67-.15l-.23,0-.84-.1.14-.39.14-.38c.23,0,.46.06.67.09l.23,0c.41.06,1.64.16,2.13.19l.54,0L338.28,367H338c-.6,0-1.13-.07-1.62-.14l-.25,0a6.2,6.2,0,0,0-1.16-.1l-.27,0Z"/><path class="cls-9" d="M336.5,391.51l21,26.82a9.88,9.88,0,0,0,5.31,3.63l69.3,25.26c5.5,2,11.81-1.4,14.06-7.59l18.12-49.91c2.25-6.19-.4-12.86-5.91-14.86l-69.93-25.5-.16-.05a10.16,10.16,0,0,0-5.61-.3l-33.28,7c-5.42,1.14-11,6.09-13,11.51L334,374.35C332,379.77,333.08,387.14,336.5,391.51Zm8.88-16.84a5.86,5.86,0,1,1,3.51,7.51A5.83,5.83,0,0,1,345.38,374.67Z"/><path class="cls-10" d="M439.39,441.55a.65.65,0,0,1-.93-.07.67.67,0,0,1,.07-.94,7.13,7.13,0,0,0,2-3v0a.66.66,0,0,1,.85-.4.67.67,0,0,1,.4.85V438A8.51,8.51,0,0,1,439.39,441.55Zm2.47-5.67a.68.68,0,0,1-.4-.85l1.37-3.77a.66.66,0,0,1,.85-.39.66.66,0,0,1,.39.85l-1.36,3.76A.66.66,0,0,1,441.86,435.88Zm2.28-6.28a.66.66,0,0,1-.4-.85l1.37-3.76a.66.66,0,0,1,.85-.4.67.67,0,0,1,.4.85L445,429.21A.66.66,0,0,1,444.14,429.6Zm2.28-6.27a.66.66,0,0,1-.4-.85l1.37-3.77a.67.67,0,0,1,.85-.4.68.68,0,0,1,.4.86l-1.37,3.76A.66.66,0,0,1,446.42,423.33Zm2.28-6.28a.66.66,0,0,1-.4-.85l1.37-3.76a.65.65,0,0,1,.85-.4.66.66,0,0,1,.39.85l-1.36,3.77A.66.66,0,0,1,448.7,417.05Zm2.28-6.27a.67.67,0,0,1-.4-.86l1.37-3.76a.66.66,0,1,1,1.24.45l-1.36,3.77A.67.67,0,0,1,451,410.78Zm2.28-6.28a.65.65,0,0,1-.4-.85l1.37-3.77a.65.65,0,0,1,.84-.39.66.66,0,0,1,.4.85l-1.36,3.76A.66.66,0,0,1,453.26,404.5Zm2.28-6.27a.67.67,0,0,1-.4-.86l1.36-3.76a.67.67,0,1,1,1.25.46l-1.36,3.76A.68.68,0,0,1,455.54,398.23Zm2.27-6.28a.66.66,0,0,1-.39-.85l1.24-3.42.11-.32a.66.66,0,0,1,1.26.4l-.12.37-1.24,3.42A.67.67,0,0,1,457.81,392Zm2-6.36a.67.67,0,0,1-.69-.64,5.44,5.44,0,0,0-1.15-3.31.66.66,0,1,1,1-.85,6.88,6.88,0,0,1,1.46,4.12.73.73,0,0,1,0,.25A.67.67,0,0,1,459.79,385.59Zm-23,57.36a5.09,5.09,0,0,1-3.14-.1l-1.14-.42a.66.66,0,0,1-.4-.85.67.67,0,0,1,.85-.4l1.14.42a3.81,3.81,0,0,0,2.34.07.66.66,0,0,1,.8.87A.64.64,0,0,1,436.81,443Zm19.24-62.58L452.29,379a.65.65,0,0,1-.4-.85.66.66,0,0,1,.85-.39l3.76,1.37a.66.66,0,1,1-.45,1.25Zm-26,61.15-3.77-1.38a.66.66,0,0,1-.39-.85.65.65,0,0,1,.84-.39l3.77,1.37a.66.66,0,1,1-.45,1.25Zm19.76-63.44L446,376.71a.67.67,0,1,1,.46-1.25l3.76,1.37a.68.68,0,0,1,.4.85A.66.66,0,0,1,449.78,378.08Zm-26,61.15L420,437.86a.66.66,0,0,1,.45-1.25L424.2,438a.67.67,0,1,1-.46,1.25Zm19.77-63.44-3.77-1.37a.67.67,0,0,1-.4-.85.68.68,0,0,1,.85-.4l3.77,1.38a.66.66,0,0,1,.39.85A.65.65,0,0,1,443.51,375.79Zm-26,61.16-3.76-1.38a.66.66,0,0,1-.4-.85.68.68,0,0,1,.85-.4l3.76,1.38a.65.65,0,0,1,.4.85A.67.67,0,0,1,417.47,437Zm19.76-63.44-3.76-1.37a.67.67,0,0,1-.4-.85.65.65,0,0,1,.85-.4l3.76,1.37a.66.66,0,1,1-.45,1.25Zm-26,61.15-3.77-1.37a.67.67,0,0,1-.39-.86.66.66,0,0,1,.85-.39l3.76,1.37a.68.68,0,0,1,.4.85A.67.67,0,0,1,411.2,434.66ZM431,371.22l-3.77-1.37a.67.67,0,0,1,.46-1.25l3.76,1.37a.68.68,0,0,1,.4.85A.66.66,0,0,1,431,371.22Zm-26,61.15L401.16,431a.66.66,0,0,1,.45-1.25l3.77,1.37a.68.68,0,0,1,.4.85A.66.66,0,0,1,404.93,432.37Zm19.76-63.43-3.77-1.37a.68.68,0,0,1-.4-.86.68.68,0,0,1,.85-.4l3.77,1.38a.66.66,0,0,1-.45,1.25Zm-26,61.15-3.76-1.38a.66.66,0,0,1-.4-.85.68.68,0,0,1,.85-.4l3.77,1.38a.66.66,0,0,1,.39.85A.67.67,0,0,1,398.65,430.09Zm19.76-63.44-3.76-1.37a.67.67,0,0,1-.4-.85.66.66,0,0,1,.85-.4l3.76,1.37a.66.66,0,0,1,.4.85A.65.65,0,0,1,418.41,366.65Zm-26,61.15-3.76-1.37a.66.66,0,0,1,.45-1.25l3.76,1.38a.66.66,0,1,1-.45,1.24Zm19.76-63.44L408.38,363a.66.66,0,0,1,.45-1.25l3.76,1.38a.65.65,0,0,1,.4.85A.66.66,0,0,1,412.14,364.36Zm-26,61.15-3.77-1.37a.66.66,0,1,1,.46-1.24l3.76,1.37a.66.66,0,1,1-.45,1.24Zm19.76-63.44-3.77-1.36a.67.67,0,0,1-.39-.86.66.66,0,0,1,.85-.39l3.76,1.37a.67.67,0,0,1,.4.85A.66.66,0,0,1,405.87,362.07Zm-26,61.16-3.76-1.38a.66.66,0,1,1,.45-1.24l3.77,1.37a.68.68,0,0,1,.4.85A.68.68,0,0,1,379.83,423.23Zm19.77-63.44-3.77-1.37a.66.66,0,0,1-.39-.85.65.65,0,0,1,.85-.4l3.76,1.37a.66.66,0,0,1,.39.85A.65.65,0,0,1,399.6,359.79Zm-26,61.15-3.76-1.37a.66.66,0,0,1,.45-1.25l3.76,1.37a.67.67,0,0,1,.4.85A.66.66,0,0,1,373.56,420.94Zm19.76-63.44-3.76-1.37a.66.66,0,1,1,.45-1.24l3.77,1.37a.66.66,0,1,1-.46,1.24Zm-26,61.15-3.18-1.15a3.58,3.58,0,0,1-.56-.16l-.05,0a.66.66,0,0,1-.37-.86.68.68,0,0,1,.87-.37,2,2,0,0,0,.4.11l.11,0,3.23,1.18a.66.66,0,1,1-.45,1.24Zm19.76-63.44-.66-.23-.08,0h0l-.06,0a4.26,4.26,0,0,0-2.32-.06l-.4.08a.66.66,0,0,1-.78-.51.67.67,0,0,1,.51-.79l.39-.08a5.53,5.53,0,0,1,3.05.11l.07,0h0l.08,0,.66.24a.66.66,0,1,1-.45,1.24Zm-25,60.36a.65.65,0,0,1-.93-.09l0,0-2.47-3.16a.66.66,0,1,1,1.05-.81l2.47,3.15-.52.42.52-.42a.7.7,0,0,1,.11.65A.65.65,0,0,1,362.09,415.57Zm18.8-60.08-3.91.83a.66.66,0,1,1-.28-1.3l3.92-.83a.68.68,0,0,1,.79.51.76.76,0,0,1,0,.37A.64.64,0,0,1,380.89,355.49ZM358,410.31a.67.67,0,0,1-.94-.11L354.56,407a.66.66,0,0,1,.11-.93.67.67,0,0,1,.93.11l2.47,3.16a.68.68,0,0,1,.1.64A.61.61,0,0,1,358,410.31Zm16.4-53.44-3.91.83a.66.66,0,0,1-.79-.51.68.68,0,0,1,.51-.79l3.92-.83a.68.68,0,0,1,.79.52.73.73,0,0,1,0,.36A.64.64,0,0,1,374.36,356.87Zm-20.52,48.18a.66.66,0,0,1-.93-.11l-2.47-3.15a.67.67,0,0,1,.11-.94.66.66,0,0,1,.93.12l2.47,3.15a.65.65,0,0,1,.1.64A.61.61,0,0,1,353.84,405.05Zm14-46.8-3.92.83a.66.66,0,0,1-.79-.51.68.68,0,0,1,.52-.79l3.91-.83a.68.68,0,0,1,.79.52.63.63,0,0,1,0,.36A.64.64,0,0,1,367.84,358.25Zm-18.12,41.54a.66.66,0,0,1-.93-.11l-2.47-3.15a.66.66,0,1,1,1-.82l2.47,3.15a.64.64,0,0,1-.11.93Zm11.59-40.16-3.92.83a.66.66,0,0,1-.78-.51.66.66,0,0,1,.51-.79l3.91-.83a.66.66,0,0,1,.79.52.56.56,0,0,1,0,.36A.64.64,0,0,1,361.31,359.63Zm-15.71,34.9a.66.66,0,0,1-.93-.11l-2.47-3.16a.66.66,0,1,1,1.05-.81l2.46,3.15a.68.68,0,0,1,.11.64A.61.61,0,0,1,345.6,394.53ZM354.78,361l-3.92.83a.66.66,0,1,1-.27-1.3l3.92-.83a.66.66,0,0,1,.78.52.63.63,0,0,1,0,.36A.67.67,0,0,1,354.78,361Zm-13.29,28.26a.66.66,0,0,1-.93-.11l-.41-.51a11,11,0,0,1-1.66-3.15.67.67,0,0,1,.41-.85.66.66,0,0,1,.84.41,9.78,9.78,0,0,0,1.46,2.77l.4.51a.68.68,0,0,1,.1.64A.66.66,0,0,1,341.49,389.27Zm7-26.62a13.72,13.72,0,0,0-3.13,2.18.65.65,0,0,1-.93,0,.66.66,0,0,1,0-.94,15.23,15.23,0,0,1,3.42-2.39.66.66,0,0,1,.92.82A.65.65,0,0,1,348.51,362.65Zm-9.93,20.7a.66.66,0,0,1-.76-.56,15.83,15.83,0,0,1-.11-4.17.66.66,0,0,1,1.32.15,14.47,14.47,0,0,0,.1,3.82.61.61,0,0,1,0,.33A.68.68,0,0,1,338.58,383.35Zm5.08-16.64a11,11,0,0,0-1.63,2.9l-.16.44a.66.66,0,0,1-.85.39.67.67,0,0,1-.4-.85l.17-.44a12.07,12.07,0,0,1,1.82-3.25.67.67,0,0,1,1.15.64A.42.42,0,0,1,343.66,366.71Zm-4.92,10a.67.67,0,0,1-.4-.85l1.37-3.77a.67.67,0,0,1,1.25.46l-1.37,3.77A.66.66,0,0,1,338.74,376.72Z"/><path class="cls-8" d="M348.15,377.21l0,0a1.11,1.11,0,0,0-.69-1.42,82.13,82.13,0,0,0-13.19-3.32,70.74,70.74,0,0,0-12.59-.23l-.7,0c-9.34.37-19.85-.07-27-6.24-1.16-1-4.81-4.57-3.4-8.54,0,0,0,0,0,0,1.46-4,6.58-5.18,8.71-5.5,11.19-1.63,21.11,5.6,27.61,11.19l1.5,1.31a63.18,63.18,0,0,0,8.66,6.69,51.17,51.17,0,0,0,10.52,4.48,1.14,1.14,0,0,0,1.4-.75,1.11,1.11,0,0,0-.67-1.43,49.53,49.53,0,0,1-10.1-4.28,61.63,61.63,0,0,1-8.37-6.49l-1.52-1.31c-6.8-5.85-17.23-13.43-29.26-11.67-2.54.37-8.63,1.8-10.52,7,0,0,0,0,0,0-1.3,3.62.21,7.75,4,11.05,7.69,6.64,18.69,7.13,28.43,6.74l.71,0a70.26,70.26,0,0,1,12.22.22,80.2,80.2,0,0,1,12.84,3.24A1.13,1.13,0,0,0,348.15,377.21Z"/><path class="cls-8" d="M332,368a11.06,11.06,0,0,0-1.24,4.4,2.66,2.66,0,0,0,.5,2.29,2,2,0,0,0,.39.31l-.65,1.78a5.1,5.1,0,0,1-1-.76,4.55,4.55,0,0,1-1-3.79,13,13,0,0,1,1.47-5.14,5.44,5.44,0,0,1,4.45-3.12,7.13,7.13,0,0,1,.81,0l-.67,1.83h-.07A3.81,3.81,0,0,0,332,368Z"/><path class="cls-8" d="M329.42,376.62a5.23,5.23,0,0,1-1.28-4.43,13.87,13.87,0,0,1,1.56-5.46,6.18,6.18,0,0,1,5.12-3.52,6.85,6.85,0,0,1,1.12.05l-.14.38-.14.39a7.13,7.13,0,0,0-.81,0,5.44,5.44,0,0,0-4.45,3.12,13,13,0,0,0-1.47,5.14,4.55,4.55,0,0,0,1,3.79,5.1,5.1,0,0,0,1,.76l-.14.38-.14.38A5.87,5.87,0,0,1,329.42,376.62Z"/><path class="cls-8" d="M331.28,374.72a2.66,2.66,0,0,1-.5-2.29A11.06,11.06,0,0,1,332,368a3.81,3.81,0,0,1,2.9-2.17H335l-.15.41-.15.42a3.24,3.24,0,0,0-2,1.73,10.21,10.21,0,0,0-1.15,4.08c-.08.89,0,1.4.26,1.65l.12.1-.15.4-.13.38A2,2,0,0,1,331.28,374.72Z"/><path class="cls-11" d="M287.9,233.52c-29.23-14.64-54-48.92-47.11-78.39,2.8-12,12.22-29,27.54-32.33,11.43-2.46,21.75,3.68,26,6.21,18.92,11.26,14.3,23.9,28.89,32.75l1.18.68,1.25.54c15.82,6.41,23.19-4.84,43.52,3.6,4.57,1.9,15.66,6.51,20.52,17.15,6.51,14.26-1.53,32-9.48,41.39-19.52,23.13-61.81,23.75-91,9.06l-.65-.34Z"/><path class="cls-12" d="M385.88,191.32c-4.86-10.65-15.94-15.25-20.52-17.15-20.32-8.44-27.7,2.81-43.52-3.61-.43-.17-.83-.36-1.24-.54s-.79-.44-1.18-.68c-14.6-8.85-10-21.48-28.89-32.74-4.26-2.53-14.58-8.68-26-6.21-9.32,2-16.44,9.1-21.23,17,4.34-10.59,12.8-22,25-24.63,11.43-2.46,21.75,3.68,26,6.21,18.92,11.26,14.3,23.9,28.89,32.75l1.18.68,1.25.54c15.82,6.41,23.19-4.84,43.52,3.6,4.57,1.9,15.66,6.51,20.52,17.15,5.2,11.39,1.11,25-4.8,34.79C388.4,209.94,389.84,200,385.88,191.32Z"/><path class="cls-5" d="M256.09,179.34a11,11,0,1,0-4.91-14.81A11,11,0,0,0,256.09,179.34Z"/><path class="cls-5" d="M269.73,195.68a3.39,3.39,0,1,0-1.51-4.56A3.38,3.38,0,0,0,269.73,195.68Z"/><path class="cls-13" d="M370.41,177.39c29.61-13.85,71.86-12,90.7,11.68,7.68,9.64,15.2,27.59,8.28,41.65-5.17,10.5-16.38,14.78-21,16.54-20.56,7.85-27.61-3.61-43.6,2.35-.44.16-.85.33-1.27.5l-1.2.65c-14.84,8.42-10.59,21.19-29.82,31.89-4.33,2.41-14.82,8.25-26.18,5.46-15.22-3.74-24.13-21-26.59-33.11-6-29.66,19.72-63.21,49.36-77l.67-.29Z"/><path class="cls-14" d="M342.72,280.42c11.36,2.79,21.85-3.05,26.18-5.46,19.23-10.71,15-23.47,29.83-31.89.4-.23.8-.44,1.2-.65s.82-.34,1.26-.5c16-6,23,5.5,43.6-2.35,4.63-1.77,15.85-6,21-16.54,4.21-8.56,3.06-18.54-.2-27.23,5.62,10,9.31,23.68,3.79,34.92-5.17,10.5-16.38,14.78-21,16.54-20.56,7.85-27.61-3.61-43.6,2.35-.44.16-.85.33-1.27.5l-1.2.65c-14.84,8.42-10.59,21.19-29.82,31.89-4.33,2.41-14.82,8.25-26.18,5.46-12.16-3-20.28-14.63-24.31-25.35C326.56,270.84,333.47,278.14,342.72,280.42Z"/><path class="cls-5" d="M432.64,186.05a11,11,0,1,0,14.66,5.33A11,11,0,0,0,432.64,186.05Z"/><path class="cls-5" d="M411.36,186.61a3.39,3.39,0,1,0,4.51,1.64A3.38,3.38,0,0,0,411.36,186.61Z"/><path class="cls-15" d="M239.26,375.54c-32-6.74-64.63-33.62-65.46-63.87-.34-12.31,4.45-31.18,18.43-38.26,10.43-5.28,22-2,26.73-.59,21.15,6.09,19.89,19.48,36.26,24.34l1.31.36,1.34.2c16.93,2.19,21.21-10.56,43-7.55,4.91.67,16.8,2.31,24.2,11.37,9.92,12.14,6.64,31.32,1.34,42.45-13,27.31-53.75,38.65-85.73,31.85l-.71-.16Z"/><path class="cls-16" d="M323.32,309.84c-7.4-9.06-19.29-10.69-24.19-11.37-21.81-3-26.08,9.75-43,7.56-.46-.06-.9-.14-1.35-.21s-.87-.22-1.31-.36c-16.37-4.85-15.11-18.24-36.26-24.33-4.76-1.37-16.29-4.7-26.73.59-8.51,4.3-13.59,13-16.21,21.88,1.51-11.36,6.8-24.53,18-30.19,10.43-5.28,22-2,26.73-.59,21.15,6.09,19.89,19.48,36.26,24.34l1.31.36,1.34.2c16.93,2.19,21.21-10.56,43-7.55,4.91.67,16.8,2.31,24.2,11.37,7.92,9.7,7.42,23.88,4.19,34.87C330.49,327.22,329.36,317.23,323.32,309.84Z"/><path class="cls-5" d="M194.74,331.21a11,11,0,1,0-8.51-13.08A11,11,0,0,0,194.74,331.21Z"/><path class="cls-5" d="M212.08,343.55a3.39,3.39,0,1,0-2.62-4A3.39,3.39,0,0,0,212.08,343.55Z"/><path class="cls-17" d="M384.57,325c-17.05-27.89-19.9-70.09,1.53-91.44,8.73-8.7,25.73-18.17,40.48-12.86,11,4,16.5,14.64,18.77,19,10.09,19.57-.52,27.84,7.18,43.08.21.41.43.8.64,1.2s.5.74.77,1.12c10,13.81,22.24,8.17,35,26.09,2.87,4,9.84,13.81,8.33,25.41-2,15.54-18.23,26.33-30,30.1-28.8,9.29-65-12.57-82-40.49l-.36-.63Z"/><path class="cls-18" d="M490,341c1.51-11.6-5.46-21.37-8.33-25.41-12.78-17.92-25-12.28-35-26.09-.27-.38-.52-.75-.77-1.12s-.44-.79-.65-1.2c-7.69-15.24,2.91-23.51-7.17-43.08-2.27-4.4-7.77-15.07-18.78-19-9-3.23-18.76-1-27,3.23,9.29-6.69,22.5-11.89,34.28-7.65,11,4,16.5,14.64,18.77,19,10.09,19.57-.52,27.84,7.18,43.08.21.41.43.8.64,1.2s.5.74.77,1.12c10,13.81,22.24,8.17,35,26.09,2.87,4,9.84,13.81,8.33,25.41-1.62,12.42-12.29,21.78-22.49,27C482.32,358.14,488.81,350.47,490,341Z"/><path class="cls-5" d="M386.27,262.14A11,11,0,1,0,389.94,247,11,11,0,0,0,386.27,262.14Z"/><path class="cls-5" d="M389.18,283.23a3.4,3.4,0,1,0,1.14-4.67A3.41,3.41,0,0,0,389.18,283.23Z"/><path class="cls-19" d="M101.65,191.84c29.61-13.85,71.86-12,90.7,11.68,7.68,9.64,15.2,27.59,8.28,41.65-5.16,10.5-16.38,14.78-21,16.55-20.56,7.85-27.6-3.61-43.6,2.34l-1.27.51c-.39.21-.79.41-1.19.64-14.85,8.43-10.6,21.19-29.83,31.9-4.33,2.41-14.82,8.25-26.18,5.45-15.22-3.74-24.13-21-26.58-33.11-6-29.65,19.71-63.21,49.35-77,.22-.11.45-.2.67-.3Z"/><path class="cls-20" d="M74,294.87c11.36,2.79,21.85-3.05,26.17-5.46,19.23-10.7,15-23.46,29.83-31.89.4-.23.8-.43,1.2-.64s.83-.35,1.26-.51c16-6,23,5.5,43.61-2.35,4.62-1.76,15.84-6,21-16.54,4.21-8.55,3.06-18.54-.2-27.23,5.62,10,9.32,23.69,3.79,34.92-5.16,10.5-16.38,14.78-21,16.55-20.56,7.85-27.6-3.61-43.6,2.34l-1.27.51c-.39.21-.79.41-1.19.64-14.85,8.43-10.6,21.19-29.83,31.9-4.33,2.41-14.82,8.25-26.18,5.45-12.16-3-20.28-14.62-24.31-25.34C57.8,285.3,64.71,292.6,74,294.87Z"/><circle class="cls-5" cx="168.54" cy="210.5" r="11.03"/><path class="cls-5" d="M142.6,201.06a3.39,3.39,0,1,0,4.51,1.64A3.38,3.38,0,0,0,142.6,201.06Z"/><path class="cls-21" d="M183,235.6c29.61-13.84,71.86-12,90.71,11.68,7.67,9.64,15.19,27.59,8.27,41.65-5.16,10.5-16.38,14.78-21,16.55-20.56,7.85-27.6-3.61-43.6,2.34l-1.26.51c-.4.21-.8.41-1.2.64-14.85,8.43-10.6,21.19-29.83,31.9-4.33,2.41-14.81,8.25-26.18,5.45-15.21-3.74-24.13-21-26.58-33.11-6-29.65,19.71-63.21,49.35-77l.67-.3Z"/><path class="cls-22" d="M155.31,338.63c11.36,2.79,21.85-3.05,26.17-5.46,19.23-10.7,15-23.46,29.83-31.89.4-.23.8-.43,1.2-.64s.83-.35,1.26-.51c16-5.95,23,5.5,43.61-2.34,4.62-1.77,15.84-6.05,21-16.55,4.21-8.55,3.06-18.54-.2-27.22,5.62,10,9.32,23.68,3.79,34.91-5.16,10.5-16.38,14.78-21,16.55-20.56,7.85-27.6-3.61-43.6,2.34l-1.26.51c-.4.21-.8.41-1.2.64-14.85,8.43-10.6,21.19-29.83,31.9-4.33,2.41-14.81,8.25-26.18,5.45-12.15-3-20.28-14.62-24.31-25.34C139.14,329.06,146.05,336.36,155.31,338.63Z"/><path class="cls-5" d="M245.22,244.26a11,11,0,1,0,14.66,5.34A11,11,0,0,0,245.22,244.26Z"/><path class="cls-5" d="M223.94,244.82a3.39,3.39,0,1,0,4.51,1.64A3.39,3.39,0,0,0,223.94,244.82Z"/><path class="cls-23" d="M104,354.92C74.28,368.59,32,366.5,13.34,342.72,5.72,333-1.7,315,5.3,301c5.22-10.47,16.47-14.69,21.1-16.43C47,276.86,54,288.36,70,282.5c.44-.16.85-.33,1.27-.5s.79-.41,1.2-.64c14.89-8.34,10.72-21.12,30-31.72,4.34-2.38,14.86-8.16,26.2-5.3,15.2,3.82,24,21.17,26.4,33.26,5.85,29.69-20.08,63.1-49.8,76.71l-.67.29Z"/><path class="cls-24" d="M132.25,252.05c-11.35-2.86-21.87,2.92-26.21,5.3C86.75,268,90.93,280.74,76,289.08c-.4.22-.8.42-1.2.63s-.83.34-1.27.5c-16,5.87-23-5.63-43.62,2.1-4.63,1.74-15.87,5.95-21.1,16.42-4.25,8.53-3.16,18.52.05,27.23C3.33,326-.29,312.22,5.3,301c5.22-10.47,16.47-14.69,21.1-16.43C47,276.86,54,288.36,70,282.5c.44-.16.85-.33,1.27-.5s.79-.41,1.2-.64c14.89-8.34,10.72-21.12,30-31.72,4.34-2.38,14.86-8.16,26.2-5.3,12.15,3,20.2,14.74,24.17,25.48C148.36,261.71,141.49,254.38,132.25,252.05Z"/><circle class="cls-5" cx="37.19" cy="335.87" r="11.03"/><path class="cls-5" d="M63.08,345.46a3.4,3.4,0,1,0-4.51-1.66A3.38,3.38,0,0,0,63.08,345.46Z"/><text class="cls-25" transform="matrix(0.95, 0.32, -0.32, 0.95, 382.7, 398.75)">R$50</text></g></g></svg>