<svg id="Layer_1" data-name="Layer 1" xmlns="http://www.w3.org/2000/svg" viewBox="0 0 500 500"><defs><style>.cls-1{fill:#d7eff0;}.cls-2{fill:#eea74f;}.cls-3{fill:#d79142;}.cls-4{fill:#f4c269;}.cls-5{fill:#f2eed1;}.cls-6{fill:#d3a184;}.cls-7{fill:#e15c49;}.cls-8{fill:#edf0f0;}.cls-9{font-size:25px;fill:#fff;font-family:CaviarDreams-Bold, Caviar Dreams;font-weight:700;}</style></defs><title>Opcoes_Presente</title><path class="cls-1" d="M398.47,228.23v2.1a7.8,7.8,0,0,0,7.8,7.8h40.84a16.79,16.79,0,0,1,16.78,16.78h0a16.79,16.79,0,0,1-16.78,16.79H380.43A13.45,13.45,0,0,0,367,285.15h0a13.45,13.45,0,0,0,13.46,13.46h0a30.89,30.89,0,0,1,30.88,30.88v.32a31.2,31.2,0,0,1-31.2,31.2H92.48a11.86,11.86,0,0,1-11.86-11.85h0a11.85,11.85,0,0,1,11.86-11.85h27.08a7.88,7.88,0,0,0,7.88-7.89h0a7.88,7.88,0,0,0-7.88-7.88H68.16a32.05,32.05,0,0,1-32-32.05h0a32.05,32.05,0,0,1,32.05-32.06H87.1a27.71,27.71,0,0,0,27.71-27.7h0A27.71,27.71,0,0,0,87.1,202h-10A31.52,31.52,0,0,1,45.58,170.5h0A31.51,31.51,0,0,1,77.09,139H409.91a40.72,40.72,0,0,1,40.72,40.72h0a40.72,40.72,0,0,1-40.72,40.72h-3.64A7.8,7.8,0,0,0,398.47,228.23Z"/><path class="cls-2" d="M309.63,203.53a16.52,16.52,0,0,0,.17-2.11c0-14.27-18.11-25.84-40.46-25.84s-40.46,11.57-40.46,25.84a16.52,16.52,0,0,0,.17,2.11Z"/><path class="cls-3" d="M309.63,203.53a16.52,16.52,0,0,0,.17-2.11c0-14.27-18.11-25.84-40.46-25.84v27.95Z"/><path class="cls-4" d="M279.25,170.54a9.91,9.91,0,1,1-9.91-9.91A9.91,9.91,0,0,1,279.25,170.54Z"/><path class="cls-4" d="M266,263.32v57.2s-34,1.46-32.49,0,21.77-9.42,21.77-28.27V261.7Z"/><path class="cls-3" d="M265.48,263.32v57.2s34,1.46,32.5,0-21.77-9.42-21.77-28.27V261.7Z"/><path class="cls-2" d="M369.75,187.91c-27.95,0-49.07,16.9-61.74,26.65l2.21,7.83c.36-1.81,1.93-4,5.59-6.53,14-9.75,36.69-17.21,49-17.21,16.5,0,32.74,3.62,32.74,14.67s-11.9,25.14-35.62,25.14-43.89-8.63-43.89-8.63-4.65-1.21-6.84-3.83l1.64,5.78s22.75,15.32,54.92,15.32S412,226.58,412,212.93,397.7,187.91,369.75,187.91Z"/><path class="cls-4" d="M88,183.38a98,98,0,0,1,33.8-5.85c52,0,70.84,38.35,131.29,38.35s74.1-8.45,74.1-8.45a40.91,40.91,0,0,1,5.2,19.5c0,11-7.8,42.24-75.08,42.24s-80.27-76-128.69-76c-15.27,0-35.75,4.55-35.75,4.55Z"/><path class="cls-2" d="M260.24,240.9c-61.75,0-86.77-55.57-139.74-55.57a117.18,117.18,0,0,0-30.35,4.36l2.72,8s20.48-4.55,35.75-4.55c48.42,0,61.42,76,128.69,76,61.7,0,73.36-26.22,74.88-39.1C319.06,235,296,240.9,260.24,240.9Z"/><path class="cls-3" d="M318.41,217.5H220.27a9.12,9.12,0,0,1-9.1-9.1h0a9.13,9.13,0,0,1,9.1-9.1h98.14a9.13,9.13,0,0,1,9.1,9.1h0A9.12,9.12,0,0,1,318.41,217.5Z"/><path class="cls-5" d="M317.44,238.3a11.05,11.05,0,1,1-11.05-11.05A11.05,11.05,0,0,1,317.44,238.3Z"/><path class="cls-5" d="M289.57,244.52a6.22,6.22,0,1,1-6.22-6.22A6.21,6.21,0,0,1,289.57,244.52Z"/><path class="cls-2" d="M315.48,339.37h-100a9.45,9.45,0,0,1-9.42-9.42h0a9.45,9.45,0,0,1,9.42-9.43h100a9.45,9.45,0,0,1,9.43,9.43h0A9.45,9.45,0,0,1,315.48,339.37Z"/><path class="cls-3" d="M215.48,339.37h100a9.45,9.45,0,0,0,9.43-9.42H206.06A9.45,9.45,0,0,0,215.48,339.37Z"/><path class="cls-4" d="M318.41,199.3H220.27a9.13,9.13,0,0,0-9.1,9.1H327.51A9.13,9.13,0,0,0,318.41,199.3Z"/><path class="cls-6" d="M377.49,272.91l-1.3,1.33a10.65,10.65,0,0,1-1.51-1.78l1.43-1.23A7.5,7.5,0,0,0,377.49,272.91Z"/><path class="cls-6" d="M385.66,264.08l.18.15c.26.19.89.62,1.38.95l-1.45,1.25a11.93,11.93,0,0,1-1-.72l-.19-.15a7.82,7.82,0,0,0-1-.7l1.48-1.27C385.22,263.75,385.45,263.92,385.66,264.08Z"/><path class="cls-6" d="M374.07,273l.3-.27.31-.26a10.65,10.65,0,0,0,1.51,1.78l1.3-1.33a7.5,7.5,0,0,1-1.38-1.68l.31-.27.32-.28a5.71,5.71,0,0,0,1.34,1.69l.53.53-2.41,2.47-.55-.54A11.07,11.07,0,0,1,374.07,273Z"/><path class="cls-6" d="M383.17,265.14l.33-.28a7.82,7.82,0,0,1,1,.7l.19.15a11.93,11.93,0,0,0,1,.72l1.45-1.25c-.49-.33-1.12-.76-1.38-.95l-.18-.15c-.21-.16-.44-.33-.68-.49l.31-.27.31-.27c.19.13.37.27.54.4l.19.14c.32.25,1.34,1,1.76,1.21l.46.28-2.71,2.34-.25-.16a14.35,14.35,0,0,1-1.35-.92l-.2-.15a6.91,6.91,0,0,0-1-.66l-.25-.1Z"/><path class="cls-7" d="M372.27,288l5.19,33.66a9.81,9.81,0,0,0,2.86,5.76l48.09,55.92c3.82,4.44,11,4.56,16,.26l40.22-34.67c5-4.3,5.94-11.42,2.11-15.86L438.18,276.6l-.11-.13a10.17,10.17,0,0,0-4.75-3l-32.47-10.14c-5.29-1.65-12.57-.06-16.93,3.71l-5.47,4.71C374.08,275.51,371.43,282.49,372.27,288Zm16-10.34a5.86,5.86,0,1,1-.61,8.27A5.86,5.86,0,0,1,388.25,277.62Z"/><path class="cls-8" d="M437.55,381.93a.66.66,0,0,1-.26-1.3,7.18,7.18,0,0,0,3.2-1.6l0,0a.67.67,0,0,1,.94.07.65.65,0,0,1-.07.93l0,0A8.5,8.5,0,0,1,437.55,381.93Zm4.93-3.74a.67.67,0,0,1,.07-.94l3-2.61a.65.65,0,0,1,.93.07.64.64,0,0,1-.07.93l-3,2.62A.65.65,0,0,1,442.48,378.19Zm5-4.36a.67.67,0,0,1,.07-.94l3-2.61a.65.65,0,0,1,.93.07.67.67,0,0,1-.07.94l-3,2.61A.67.67,0,0,1,447.53,373.83Zm5.06-4.36a.65.65,0,0,1,.07-.93l3-2.62a.67.67,0,1,1,.87,1l-3,2.61A.65.65,0,0,1,452.59,369.47Zm5.06-4.36a.65.65,0,0,1,.07-.93l3-2.62a.67.67,0,0,1,.94.07.67.67,0,0,1-.07.94l-3,2.61A.65.65,0,0,1,457.65,365.11Zm5.05-4.36a.65.65,0,0,1,.07-.93l3-2.62a.65.65,0,0,1,.93.07.67.67,0,0,1-.07.94l-3,2.61A.67.67,0,0,1,462.7,360.75Zm5.06-4.36a.65.65,0,0,1,.07-.93l3-2.62a.67.67,0,1,1,.87,1l-3,2.61A.67.67,0,0,1,467.76,356.39Zm5.06-4.35a.67.67,0,0,1,.07-.94l3-2.62a.66.66,0,0,1,.86,1l-3,2.62A.67.67,0,0,1,472.82,352Zm5.05-4.36a.68.68,0,0,1,.07-.94l2.76-2.38.25-.22a.66.66,0,1,1,.91,1l-.29.27-2.76,2.38A.67.67,0,0,1,477.87,347.68Zm4.84-4.59a.65.65,0,0,1-.29-.89,5.57,5.57,0,0,0,.62-3.46.65.65,0,0,1,.53-.77.66.66,0,0,1,.77.54,6.85,6.85,0,0,1-.74,4.3.62.62,0,0,1-.16.2A.65.65,0,0,1,482.71,343.09Zm-48.1,38.8a5.17,5.17,0,0,1-2.68-1.62l-.8-.93a.65.65,0,0,1,.07-.93.67.67,0,0,1,.94.07l.79.92a3.92,3.92,0,0,0,2,1.21.65.65,0,0,1,.49.8.7.7,0,0,1-.21.34A.65.65,0,0,1,434.61,381.89ZM482,336.71l-2.61-3a.65.65,0,0,1,.07-.93.66.66,0,0,1,.93.06l2.62,3a.68.68,0,0,1-.07.94A.67.67,0,0,1,482,336.71Zm-52.61,40.61-2.61-3a.66.66,0,1,1,1-.87l2.62,3a.68.68,0,0,1-.07.94A.67.67,0,0,1,429.39,377.32Zm48.26-45.67-2.62-3a.68.68,0,0,1,.07-.94.67.67,0,0,1,.94.07l2.61,3a.66.66,0,1,1-1,.87ZM425,372.26l-2.62-3a.67.67,0,0,1,1-.87l2.61,3a.66.66,0,1,1-1,.87Zm48.26-45.68-2.62-3a.67.67,0,0,1,1-.87l2.61,3a.66.66,0,0,1-.07.93A.64.64,0,0,1,473.3,326.58ZM420.68,367.2l-2.61-3a.67.67,0,0,1,1-.87l2.61,3a.67.67,0,0,1-.07.94A.68.68,0,0,1,420.68,367.2Zm48.26-45.68-2.61-3a.67.67,0,0,1,.07-.94.65.65,0,0,1,.93.07l2.62,3a.67.67,0,0,1-.07.93A.67.67,0,0,1,468.94,321.52Zm-52.61,40.61-2.61-3a.66.66,0,1,1,1-.86l2.61,3a.67.67,0,0,1-.07.94A.65.65,0,0,1,416.33,362.13Zm48.26-45.67-2.62-3a.67.67,0,0,1,.07-.94.67.67,0,0,1,.94.07l2.61,3a.66.66,0,0,1-1,.86ZM412,357.07l-2.62-3a.65.65,0,0,1,.07-.93.67.67,0,0,1,.94.07l2.61,3a.66.66,0,1,1-1,.86Zm48.25-45.67-2.61-3a.65.65,0,0,1,.07-.93.67.67,0,0,1,.94.06l2.61,3a.67.67,0,0,1-.07.94A.67.67,0,0,1,460.23,311.4ZM407.62,352,405,349a.67.67,0,0,1,.07-.94.67.67,0,0,1,.94.07l2.61,3a.67.67,0,1,1-1,.87Zm48.26-45.67-2.62-3a.67.67,0,0,1,.07-.93.66.66,0,0,1,.94.07l2.61,3a.67.67,0,0,1-.07.94A.65.65,0,0,1,455.88,306.34ZM403.27,347l-2.61-3a.67.67,0,0,1,.07-.94.67.67,0,0,1,.93.07l2.61,3a.66.66,0,1,1-1,.87Zm48.25-45.67-2.61-3a.68.68,0,0,1,.07-.94.67.67,0,0,1,.94.07l2.61,3a.67.67,0,0,1-.07.94A.67.67,0,0,1,451.52,301.28Zm-52.6,40.61-2.62-3a.67.67,0,0,1,1-.87l2.61,3a.66.66,0,1,1-1,.87Zm48.25-45.68-2.61-3a.67.67,0,0,1,1-.87l2.61,3a.65.65,0,0,1-.07.93A.67.67,0,0,1,447.17,296.21Zm-52.61,40.61-2.61-3a.66.66,0,1,1,1-.86l2.62,3a.67.67,0,0,1-.07.93A.67.67,0,0,1,394.56,336.82Zm48.26-45.67-2.61-3a.67.67,0,0,1,.07-.94.65.65,0,0,1,.93.07l2.61,3a.65.65,0,0,1-.07.93A.65.65,0,0,1,442.82,291.15Zm-52.61,40.61-2.62-3a.66.66,0,0,1,1-.86l2.61,3a.67.67,0,0,1-.07.94A.65.65,0,0,1,390.21,331.76Zm48.26-45.67-2.62-3a.65.65,0,0,1,.07-.93.67.67,0,0,1,.94.07l2.61,3a.67.67,0,0,1-.07.94A.65.65,0,0,1,438.47,286.09ZM385.85,326.7l-2.2-2.57a3.25,3.25,0,0,1-.42-.41l0,0a.66.66,0,0,1,1-.82l.29.29.09.07,2.24,2.61a.67.67,0,1,1-1,.87ZM434.11,281l-.46-.53,0-.07,0,0,0-.05a4.28,4.28,0,0,0-2-1.19l-.38-.12a.66.66,0,1,1,.4-1.26l.37.11a5.58,5.58,0,0,1,2.61,1.59l0,.06h0l.06.07.46.53a.67.67,0,1,1-1,.87Zm-51.28,40.44a.66.66,0,0,1-.77-.53v0l-.61-4a.67.67,0,0,1,1.32-.21l.61,4-.66.12.66-.12a.73.73,0,0,1-.22.62A.67.67,0,0,1,382.83,321.47Zm45.78-43.21-3.82-1.19a.68.68,0,0,1-.44-.84.67.67,0,0,1,.83-.44L429,277a.66.66,0,0,1,.43.83.66.66,0,0,1-.83.44Zm-46.82,36.6a.67.67,0,0,1-.76-.56l-.61-3.95a.67.67,0,0,1,.56-.76.67.67,0,0,1,.76.55l.6,4a.66.66,0,0,1-.22.61A.63.63,0,0,1,381.79,314.86Zm40.45-38.59-3.82-1.19a.67.67,0,0,1-.44-.84.66.66,0,0,1,.83-.43l3.82,1.19a.67.67,0,0,1,.24,1.14A.67.67,0,0,1,422.24,276.27Zm-41.47,32a.66.66,0,0,1-.75-.55l-.62-4A.66.66,0,0,1,380,303a.65.65,0,0,1,.75.55l.62,4a.69.69,0,0,1-.23.61A.72.72,0,0,1,380.77,308.26Zm35.1-34-3.82-1.19a.67.67,0,1,1,.4-1.27l3.82,1.19a.67.67,0,0,1,.43.84.69.69,0,0,1-.2.3A.65.65,0,0,1,415.87,274.28Zm-36.12,27.38a.68.68,0,0,1-.76-.56l-.6-4a.67.67,0,0,1,.55-.76.68.68,0,0,1,.76.56l.61,4a.69.69,0,0,1-.22.6A.6.6,0,0,1,379.75,301.66Zm29.75-29.37-3.82-1.19a.66.66,0,0,1-.44-.83.67.67,0,0,1,.84-.44L409.9,271a.66.66,0,0,1,.43.83.6.6,0,0,1-.2.31A.65.65,0,0,1,409.5,272.29Zm-30.77,22.76a.65.65,0,0,1-.75-.55l-.62-4a.67.67,0,1,1,1.32-.2l.61,4a.67.67,0,0,1-.22.61A.7.7,0,0,1,378.73,295.05Zm24.4-24.75-3.82-1.19a.66.66,0,0,1,.39-1.27l3.83,1.19a.67.67,0,0,1,.43.84.69.69,0,0,1-.2.3A.67.67,0,0,1,403.13,270.3Zm-25.41,18.16a.68.68,0,0,1-.76-.56l-.1-.65a10.71,10.71,0,0,1,.09-3.55.67.67,0,0,1,1.31.23,9.48,9.48,0,0,0-.09,3.12l.1.65a.69.69,0,0,1-.22.6A.84.84,0,0,1,377.72,288.46Zm19.14-19.8a13.56,13.56,0,0,0-3.79.38.66.66,0,1,1-.3-1.29,14.59,14.59,0,0,1,4.15-.41.66.66,0,0,1,.4,1.16A.63.63,0,0,1,396.86,268.66Zm-18.78,13.2a.67.67,0,0,1-.4-.85,16,16,0,0,1,1.95-3.69.67.67,0,0,1,.93-.16.66.66,0,0,1,.15.93,14.48,14.48,0,0,0-1.78,3.38.66.66,0,0,1-.19.27A.64.64,0,0,1,378.08,281.86Zm12.57-12a10.65,10.65,0,0,0-2.84,1.73l-.36.3a.66.66,0,0,1-.86-1l.36-.31a12,12,0,0,1,3.17-1.94.66.66,0,0,1,.7,1.11A.62.62,0,0,1,390.65,269.84Zm-9.19,6.32a.67.67,0,0,1,.07-.94l3-2.61a.67.67,0,1,1,.87,1l-3,2.61A.65.65,0,0,1,381.46,276.16Z"/><path class="cls-6" d="M368.33,238.3a25.35,25.35,0,0,0-8.21-5.14c-2.39-.92-8.4-2.66-12.61,1l0,0c-2.9,2.54-3.61,6.87-1.89,11.61,3.45,9.56,12.81,15.36,21.5,19.78l.63.33A68.23,68.23,0,0,1,378.26,272a82.21,82.21,0,0,1,9.63,9.11,1.12,1.12,0,0,0,1.54,0l0,0a1.11,1.11,0,0,0,.09-1.57,81.93,81.93,0,0,0-9.88-9.34,71.36,71.36,0,0,0-10.86-6.37l-.63-.31c-8.34-4.24-17.29-9.77-20.5-18.64-.52-1.44-2-6.34,1.21-9.11l0,0c3.25-2.8,8.27-1.31,10.29-.54a22.93,22.93,0,0,1,5.52,3.06"/><path class="cls-6" d="M372.41,247a61.5,61.5,0,0,1,5.42,11.55c.23.62.45,1.25.67,1.88a63.28,63.28,0,0,0,4.28,10.07,51,51,0,0,0,7,9.05,1.15,1.15,0,0,0,1.7-1.55,49,49,0,0,1-6.72-8.67,62,62,0,0,1-4.13-9.75c-.22-.63-.45-1.26-.68-1.89a66.51,66.51,0,0,0-5-10.91"/><path class="cls-6" d="M379.85,265.29a11.28,11.28,0,0,0-3.24,3.23,2.68,2.68,0,0,0-.68,2.25,2.92,2.92,0,0,0,.18.46l-1.43,1.23a4.8,4.8,0,0,1-.54-1.17,4.5,4.5,0,0,1,.94-3.81,12.82,12.82,0,0,1,3.8-3.77,5.11,5.11,0,0,1,6.1-.12l-1.48,1.27-.06,0A3.8,3.8,0,0,0,379.85,265.29Z"/><path class="cls-6" d="M373.38,271.51a5.28,5.28,0,0,1,1-4.49,13.77,13.77,0,0,1,4-4,6.19,6.19,0,0,1,6.19-.57,6.92,6.92,0,0,1,1,.59l-.31.27-.31.27a5.11,5.11,0,0,0-6.1.12,12.82,12.82,0,0,0-3.8,3.77,4.5,4.5,0,0,0-.94,3.81,4.8,4.8,0,0,0,.54,1.17l-.31.26-.3.27A5.44,5.44,0,0,1,373.38,271.51Z"/><path class="cls-6" d="M375.93,270.77a2.68,2.68,0,0,1,.68-2.25,11.28,11.28,0,0,1,3.24-3.23,3.8,3.8,0,0,1,3.59-.47l.06,0-.33.28-.34.29a3.27,3.27,0,0,0-2.56.54,10.34,10.34,0,0,0-3,3c-.51.73-.69,1.22-.58,1.56a.58.58,0,0,0,.05.14l-.32.28-.31.27A2.92,2.92,0,0,1,375.93,270.77Z"/><text class="cls-9" transform="translate(400.07 303.24) rotate(48.78)">R$100</text></svg>