<svg xmlns="http://www.w3.org/2000/svg" viewBox="0 0 500 500"><defs><style>.cls-1{isolation:isolate;}.cls-2{fill:#d7eff0;}.cls-3{fill:#f0513c;}.cls-4{fill:#de3447;}.cls-5{fill:#efe742;}.cls-6{fill:#94a43a;}.cls-7{fill:#ffc31d;}.cls-8{fill:#f78f1e;}.cls-13,.cls-19,.cls-9{fill:#fff;}.cls-10{fill:#431323;opacity:0.3;mix-blend-mode:multiply;}.cls-11{fill:#574ca0;}.cls-12{fill:#6565ad;}.cls-13{opacity:0.5;}.cls-14{fill:#503522;}.cls-15{fill:#734d1f;}.cls-16{fill:#d3a184;}.cls-17{fill:#e15c49;}.cls-18{fill:#edf0f0;}.cls-19{font-size:25px;font-family:CaviarDreams-Bold, Caviar Dreams;font-weight:700;}</style></defs><title>Opcoes_Presente</title><g class="cls-1"><g id="Layer_1" data-name="Layer 1"><path class="cls-2" d="M415.66,225.71v2.35a8.7,8.7,0,0,0,8.7,8.7h45.57a18.72,18.72,0,0,1,18.72,18.72h0a18.72,18.72,0,0,1-18.72,18.73h-74.4a15,15,0,0,0-15,15h0a15,15,0,0,0,15,15h0A34.45,34.45,0,0,1,430,338.7v.35a34.8,34.8,0,0,1-34.81,34.81H74.24A13.22,13.22,0,0,1,61,360.64h0a13.23,13.23,0,0,1,13.23-13.23h30.21a8.79,8.79,0,0,0,8.8-8.79h0a8.8,8.8,0,0,0-8.8-8.8H47.11a35.76,35.76,0,0,1-35.76-35.76h0a35.77,35.77,0,0,1,35.76-35.77H68.24a30.92,30.92,0,0,0,30.92-30.91h0a30.93,30.93,0,0,0-30.92-30.92H57.07A35.16,35.16,0,0,1,21.91,161.3h0a35.16,35.16,0,0,1,35.16-35.16H428.42a45.43,45.43,0,0,1,45.44,45.43h0A45.43,45.43,0,0,1,428.42,217h-4.06A8.69,8.69,0,0,0,415.66,225.71Z"/><path class="cls-3" d="M314.93,306.54a20.3,20.3,0,0,0,20.3,20.3h142a20.3,20.3,0,0,0,20.31-20.3h0a20.31,20.31,0,0,0-20.31-20.31h-142a20.3,20.3,0,0,0-20.3,20.31Z"/><path class="cls-4" d="M477.19,326.84h-142a20.3,20.3,0,0,1-20.3-20.3H497.5A20.3,20.3,0,0,1,477.19,326.84Z"/><path class="cls-5" d="M235,168.4V79.05A15,15,0,0,1,250,64V168.4Z"/><path class="cls-6" d="M250,168.4V64a15,15,0,0,1,15.05,15V168.4Z"/><path class="cls-3" d="M185.07,306.54a20.3,20.3,0,0,1-20.3,20.3h-142A20.3,20.3,0,0,1,2.5,306.54h0a20.31,20.31,0,0,1,20.31-20.31h142a20.3,20.3,0,0,1,20.3,20.31Z"/><path class="cls-4" d="M22.81,326.84h142a20.3,20.3,0,0,0,20.3-20.3H2.5A20.3,20.3,0,0,0,22.81,326.84Z"/><rect class="cls-4" x="210.62" y="306.54" width="78.76" height="78.02" rx="13.03" ry="13.03"/><path class="cls-7" d="M250,156.1A116,116,0,0,0,62.74,247.62H250Z"/><path class="cls-8" d="M437.26,247.62A116,116,0,0,0,250,156.1v91.52Z"/><path class="cls-8" d="M62.74,247.62A116,116,0,0,0,250,339.15V247.62Z"/><path class="cls-7" d="M250,247.62v91.53a116,116,0,0,0,187.26-91.53Z"/><path class="cls-9" d="M175.33,173.27a17.94,17.94,0,1,1-17.94-17.94A17.94,17.94,0,0,1,175.33,173.27Z"/><circle class="cls-10" cx="250" cy="247.62" r="79.22"/><circle class="cls-9" cx="128.77" cy="200.63" r="9.43"/><path class="cls-11" d="M314.93,247.62A64.92,64.92,0,0,0,250,182.7v64.92Z"/><path class="cls-12" d="M250,182.7a64.92,64.92,0,0,0-64.93,64.92H250Z"/><path class="cls-11" d="M185.07,247.62A64.93,64.93,0,0,0,250,312.55V247.62Z"/><path class="cls-12" d="M250,247.62v64.93a64.93,64.93,0,0,0,64.93-64.93Z"/><circle class="cls-13" cx="227.86" cy="211.6" r="10.32"/><path class="cls-13" d="M214.5,230.06a6.49,6.49,0,1,1-6.49-6.49A6.5,6.5,0,0,1,214.5,230.06Z"/><path class="cls-10" d="M321.52,131.62a122.21,122.21,0,0,1,0,232,116,116,0,0,0,0-232Z"/><path class="cls-10" d="M178.48,131.62a122.21,122.21,0,0,0,0,232,116,116,0,0,1,0-232Z"/><rect class="cls-14" x="105.12" y="286.23" width="8.91" height="140.86"/><rect class="cls-14" x="39.14" y="352.21" width="140.86" height="8.91"/><rect class="cls-14" x="105.11" y="286.23" width="8.91" height="140.86" transform="translate(-220.1 181.94) rotate(-45)"/><rect class="cls-14" x="39.14" y="352.2" width="140.86" height="8.91" transform="translate(-220.1 181.94) rotate(-45)"/><path class="cls-15" d="M109.57,277.32a79.34,79.34,0,1,0,79.34,79.34A79.43,79.43,0,0,0,109.57,277.32Zm0,149.77A70.43,70.43,0,1,1,180,356.66,70.43,70.43,0,0,1,109.57,427.09Z"/><path class="cls-14" d="M109.57,286.23A70.43,70.43,0,1,0,180,356.66,70.43,70.43,0,0,0,109.57,286.23Zm0,132a61.52,61.52,0,1,1,61.52-61.52A61.59,61.59,0,0,1,109.57,418.18Z"/><path class="cls-15" d="M124.24,356.66A14.67,14.67,0,1,1,109.57,342,14.67,14.67,0,0,1,124.24,356.66Z"/><rect class="cls-14" x="385.97" y="286.23" width="8.91" height="140.86"/><rect class="cls-14" x="320" y="352.21" width="140.86" height="8.91"/><rect class="cls-14" x="320" y="352.2" width="140.86" height="8.91" transform="translate(-137.84 380.54) rotate(-45)"/><rect class="cls-14" x="385.97" y="286.23" width="8.91" height="140.86" transform="translate(-137.84 380.54) rotate(-45)"/><path class="cls-15" d="M311.09,356.66a79.34,79.34,0,1,0,79.34-79.34A79.43,79.43,0,0,0,311.09,356.66Zm8.91,0a70.43,70.43,0,1,1,70.43,70.43A70.43,70.43,0,0,1,320,356.66Z"/><path class="cls-14" d="M320,356.66a70.43,70.43,0,1,0,70.43-70.43A70.43,70.43,0,0,0,320,356.66Zm8.91,0a61.52,61.52,0,1,1,61.52,61.52A61.59,61.59,0,0,1,328.91,356.66Z"/><path class="cls-15" d="M375.76,356.66A14.67,14.67,0,1,0,390.43,342,14.67,14.67,0,0,0,375.76,356.66Z"/><path class="cls-3" d="M210.62,367.33v4.19a13,13,0,0,0,13,13h52.7a13,13,0,0,0,13-13v-4.19Z"/><path class="cls-16" d="M275.24,132.45l-.15,1.86a9.9,9.9,0,0,1-2.3-.41l.32-1.86A7.44,7.44,0,0,0,275.24,132.45Z"/><path class="cls-16" d="M275.89,120.45h.24c.32,0,1.08-.08,1.67-.15l-.32,1.9c-.46.06-.88.09-1.27.11H276a7,7,0,0,0-1.24.11l.32-1.92C275.34,120.47,275.63,120.46,275.89,120.45Z"/><path class="cls-16" d="M272.65,134.7l.07-.4.07-.4a9.9,9.9,0,0,0,2.3.41l.15-1.86a7.44,7.44,0,0,1-2.13-.41l.06-.41.07-.41a6.1,6.1,0,0,0,2.11.45l.75.06-.29,3.44-.76-.07A11,11,0,0,1,272.65,134.7Z"/><path class="cls-16" d="M274.65,122.85l.08-.43a7,7,0,0,1,1.24-.11h.24c.39,0,.81,0,1.27-.11l.32-1.9c-.59.07-1.35.13-1.67.15h-.24c-.26,0-.55,0-.84,0l.07-.41.07-.4.67,0h.24c.41,0,1.64-.13,2.12-.19l.54-.08-.6,3.53-.29,0c-.59.08-1.12.13-1.62.15H276a6.53,6.53,0,0,0-1.16.11l-.26.08Z"/><path class="cls-17" d="M280.83,147.38,306.31,170a9.86,9.86,0,0,0,5.87,2.62l72.71,12.35c5.78,1,11.37-3.5,12.47-10l8.83-52.35c1.1-6.5-2.71-12.58-8.49-13.56L324.31,96.56l-.16,0a10.23,10.23,0,0,0-5.57.72l-31.47,12.92c-5.13,2.11-9.71,8-10.67,13.66l-1.2,7.12C274.28,136.64,276.68,143.7,280.83,147.38Zm5.7-18.17a5.86,5.86,0,1,1,4.8,6.76A5.86,5.86,0,0,1,286.53,129.21Z"/><path class="cls-18" d="M391.06,178.06a.68.68,0,0,1-.94.09.66.66,0,0,1-.09-.93,7.14,7.14,0,0,0,1.44-3.28v0a.64.64,0,0,1,.76-.54.65.65,0,0,1,.54.76v0A8.49,8.49,0,0,1,391.06,178.06Zm1.41-6a.66.66,0,0,1-.55-.77l.66-3.94a.67.67,0,0,1,.77-.55.66.66,0,0,1,.54.77l-.66,4A.66.66,0,0,1,392.47,172Zm1.1-6.58a.67.67,0,0,1-.54-.77l.67-4a.66.66,0,1,1,1.3.23l-.66,3.94A.66.66,0,0,1,393.57,165.45Zm1.11-6.59a.66.66,0,0,1-.54-.76l.66-3.95a.67.67,0,1,1,1.32.22l-.67,3.95A.66.66,0,0,1,394.68,158.86Zm1.12-6.58a.66.66,0,0,1-.55-.77l.67-3.94a.66.66,0,0,1,.76-.55.68.68,0,0,1,.55.77l-.67,4A.66.66,0,0,1,395.8,152.28Zm1.11-6.58a.66.66,0,0,1-.55-.77l.67-4a.66.66,0,0,1,1.31.22l-.67,4A.66.66,0,0,1,396.91,145.7Zm1.11-6.59a.66.66,0,0,1-.55-.76l.67-3.95a.66.66,0,0,1,1.31.22l-.67,3.95A.65.65,0,0,1,398,139.11Zm1.11-6.58a.67.67,0,0,1-.55-.77l.67-3.94a.66.66,0,0,1,.76-.55.67.67,0,0,1,.55.77l-.67,4A.66.66,0,0,1,399.13,132.53Zm1.11-6.58a.68.68,0,0,1-.55-.77l.61-3.59c0-.11,0-.22.05-.33a.68.68,0,0,1,.74-.58.66.66,0,0,1,.57.74c0,.13,0,.26-.05.39l-.6,3.59A.67.67,0,0,1,400.24,126Zm.8-6.61a.67.67,0,0,1-.79-.51,5.51,5.51,0,0,0-1.74-3,.67.67,0,0,1,.86-1,6.91,6.91,0,0,1,2.17,3.79.7.7,0,0,1,0,.25A.67.67,0,0,1,401,119.34ZM388.77,179.9a5.1,5.1,0,0,1-3.1.46l-1.21-.2a.67.67,0,1,1,.23-1.31l1.2.21a3.92,3.92,0,0,0,2.31-.36.66.66,0,0,1,.88.31.7.7,0,0,1,.06.4A.68.68,0,0,1,388.77,179.9Zm7.64-65-3.94-.67a.66.66,0,0,1-.55-.77.67.67,0,0,1,.77-.54l3.95.67a.67.67,0,0,1-.23,1.31Zm-14.58,64.84-3.95-.67a.66.66,0,0,1,.22-1.31l3.95.67a.69.69,0,0,1,.55.77A.67.67,0,0,1,381.83,179.71Zm8-66-3.95-.67a.66.66,0,0,1-.54-.76.68.68,0,0,1,.77-.55l3.94.68a.65.65,0,0,1,.55.76A.67.67,0,0,1,389.83,113.75Zm-14.58,64.84-3.95-.67a.67.67,0,0,1-.55-.76.68.68,0,0,1,.77-.55l4,.67a.67.67,0,0,1,.54.77A.66.66,0,0,1,375.25,178.59Zm8-66L379.3,112a.66.66,0,0,1-.54-.76.67.67,0,0,1,.76-.55l4,.68a.66.66,0,1,1-.22,1.3Zm-14.58,64.85-4-.67a.67.67,0,0,1,.23-1.32l3.95.68a.66.66,0,0,1,.54.76A.67.67,0,0,1,368.67,177.48Zm8-66-3.95-.68a.66.66,0,0,1,.22-1.3l3.95.67a.66.66,0,1,1-.22,1.31Zm-14.58,64.84-4-.68a.66.66,0,0,1,.22-1.3l3.95.67a.66.66,0,0,1-.21,1.31Zm8-66-3.95-.67a.68.68,0,0,1-.55-.77.67.67,0,0,1,.77-.54l3.95.67a.66.66,0,1,1-.22,1.31ZM355.5,175.24l-3.95-.67a.67.67,0,0,1-.54-.77.66.66,0,0,1,.76-.54l4,.67a.67.67,0,0,1,.54.76A.67.67,0,0,1,355.5,175.24Zm8-66-3.95-.67a.66.66,0,1,1,.22-1.31l4,.67a.67.67,0,0,1,.54.77A.66.66,0,0,1,363.51,109.28Zm-14.59,64.84-3.95-.67a.66.66,0,1,1,.22-1.31l3.95.67a.66.66,0,1,1-.22,1.31Zm8-66-3.95-.67a.67.67,0,0,1,.23-1.31l3.94.67a.66.66,0,1,1-.22,1.31ZM342.34,173l-3.95-.67a.66.66,0,1,1,.22-1.31l3.95.68a.66.66,0,1,1-.22,1.3Zm8-66-3.95-.67a.67.67,0,0,1,.23-1.31l3.94.67a.66.66,0,0,1,.54.77A.65.65,0,0,1,350.34,107Zm-14.58,64.84-4-.67a.66.66,0,0,1-.54-.76.68.68,0,0,1,.77-.55l4,.68a.66.66,0,1,1-.22,1.3Zm8-66-3.95-.67a.66.66,0,0,1,.22-1.31l4,.67a.66.66,0,0,1-.22,1.31Zm-14.59,64.84-3.95-.67a.66.66,0,0,1-.54-.76.67.67,0,0,1,.76-.55l4,.68a.66.66,0,1,1-.23,1.3Zm8-66-3.95-.67a.66.66,0,1,1,.22-1.3l3.95.67a.66.66,0,1,1-.22,1.3Zm-14.59,64.84-3.95-.66a.67.67,0,0,1,.22-1.32l3.95.68a.66.66,0,0,1,.54.76A.65.65,0,0,1,322.59,169.64Zm8-66-4-.66a.67.67,0,0,1-.55-.77.66.66,0,0,1,.77-.54l3.95.67a.66.66,0,0,1,.54.76A.64.64,0,0,1,330.6,103.68ZM316,168.53l-3.34-.57a3.79,3.79,0,0,1-.58-.05h0a.66.66,0,0,1,.27-1.3,2,2,0,0,0,.42,0h.11l3.39.58a.66.66,0,0,1-.22,1.31Zm8-66-.69-.12h-.18a4.38,4.38,0,0,0-2.29.36l-.37.15a.66.66,0,1,1-.5-1.23l.36-.15a5.65,5.65,0,0,1,3-.44l.07,0h.11l.69.12a.67.67,0,0,1,.55.76A.66.66,0,0,1,324,102.57Zm-13.67,63.86a.65.65,0,0,1-.93.08h0l-3-2.67a.65.65,0,0,1-.06-.93.66.66,0,0,1,.94-.06l3,2.66-.44.5.44-.5a.67.67,0,0,1,.22.62A.64.64,0,0,1,310.34,166.43ZM318,104l-3.7,1.52a.67.67,0,0,1-.51-1.23l3.7-1.52a.66.66,0,0,1,.87.36.64.64,0,0,1,0,.36A.67.67,0,0,1,318,104ZM305.33,162a.67.67,0,0,1-.94.05l-3-2.66a.65.65,0,0,1-.05-.93.64.64,0,0,1,.93-.06l3,2.66a.65.65,0,0,1,.21.61A.71.71,0,0,1,305.33,162Zm6.5-55.53-3.7,1.52a.65.65,0,0,1-.86-.36.67.67,0,0,1,.36-.87l3.7-1.52a.66.66,0,0,1,.87.37.74.74,0,0,1,0,.36A.65.65,0,0,1,311.83,106.48Zm-11.5,51.1a.67.67,0,0,1-.94,0l-3-2.66a.66.66,0,0,1-.05-.94.65.65,0,0,1,.93-.05l3,2.66a.68.68,0,0,1,.22.61A.92.92,0,0,1,300.33,157.58ZM305.66,109l-3.7,1.51a.66.66,0,1,1-.5-1.22l3.7-1.52a.67.67,0,0,1,.87.36.74.74,0,0,1,0,.36A.65.65,0,0,1,305.66,109Zm-10.33,44.12a.66.66,0,0,1-.94.06l-3-2.66a.66.66,0,1,1,.87-1l3,2.66a.67.67,0,0,1,.22.6A.64.64,0,0,1,295.33,153.14Zm4.16-41.59-3.7,1.52a.67.67,0,0,1-.51-1.23l3.7-1.52a.67.67,0,0,1,.87.36.67.67,0,0,1-.36.87Zm-9.16,37.16a.67.67,0,0,1-.94.06l-3-2.66a.67.67,0,0,1-.05-.94.66.66,0,0,1,.94,0l3,2.65a.67.67,0,0,1,.22.61A.64.64,0,0,1,290.33,148.71Zm3-34.63-3.71,1.52a.67.67,0,0,1-.87-.36.68.68,0,0,1,.37-.87l3.7-1.52a.68.68,0,0,1,.87.37.64.64,0,0,1,0,.36A.66.66,0,0,1,293.32,114.08Zm-8,30.2a.67.67,0,0,1-.94.05l-.49-.43a10.76,10.76,0,0,1-2.2-2.8.66.66,0,1,1,1.15-.65,9.67,9.67,0,0,0,1.93,2.46l.49.43a.68.68,0,0,1,.21.61A.71.71,0,0,1,285.34,144.28Zm2.1-27.45a14,14,0,0,0-2.68,2.7.65.65,0,0,1-.92.13.66.66,0,0,1-.14-.93,15,15,0,0,1,2.94-3,.66.66,0,0,1,.94.13.71.71,0,0,1,.12.5A.7.7,0,0,1,287.44,116.83Zm-6,22.14a.65.65,0,0,1-.84-.41,16.07,16.07,0,0,1-.86-4.08.67.67,0,1,1,1.33-.09,14.35,14.35,0,0,0,.78,3.74.62.62,0,0,1,0,.33A.65.65,0,0,1,281.4,139Zm2-17.28a11,11,0,0,0-1.08,3.14l-.08.47a.66.66,0,0,1-1.31-.22l.08-.47a12.28,12.28,0,0,1,1.21-3.52.67.67,0,0,1,.89-.29.66.66,0,0,1,.35.7A.6.6,0,0,1,283.41,121.69Zm-3,10.74a.67.67,0,0,1-.54-.77l.67-4a.67.67,0,0,1,.76-.55.68.68,0,0,1,.55.77l-.67,3.95A.66.66,0,0,1,280.37,132.43Z"/><path class="cls-16" d="M235,113.53c-2.75,1.2-6.78,3.69-7.54,8.2a.07.07,0,0,1,0,0c-.61,3.8,1.61,7.6,5.95,10.15,8.76,5.15,19.67,3.65,29.18,1.5l.69-.15a69.45,69.45,0,0,1,12.06-2,82.11,82.11,0,0,1,13.22.87,1.12,1.12,0,0,0,1.22-.95v-.05a1.12,1.12,0,0,0-.93-1.28,83.49,83.49,0,0,0-13.57-.88,70.91,70.91,0,0,0-12.42,2l-.69.15c-9.12,2.06-19.54,3.52-27.67-1.27-1.32-.77-5.56-3.62-4.89-7.79a0,0,0,0,0,0,0c.51-3,3.12-4.94,5.32-6"/><path class="cls-16" d="M264.82,120.29l1.48.85,1.72,1a63.29,63.29,0,0,0,9.72,5,50.7,50.7,0,0,0,11.16,2.51,1.15,1.15,0,0,0,.32-2.28A48.28,48.28,0,0,1,278.51,125a61.41,61.41,0,0,1-9.39-4.86l-1.74-1c-.74-.43-1.52-.87-2.33-1.32"/><path class="cls-16" d="M272.19,125.09a11.17,11.17,0,0,0-.43,4.55c.11,1.16.39,1.81.91,2.16a2.34,2.34,0,0,0,.44.24l-.32,1.86a4.43,4.43,0,0,1-1.16-.56,4.48,4.48,0,0,1-1.71-3.53,13,13,0,0,1,.51-5.33,5.42,5.42,0,0,1,3.82-3.86,5.74,5.74,0,0,1,.8-.12l-.32,1.92h-.07A3.81,3.81,0,0,0,272.19,125.09Z"/><path class="cls-16" d="M271.18,134a5.27,5.27,0,0,1-2.06-4.12,13.71,13.71,0,0,1,.56-5.65,6.21,6.21,0,0,1,4.4-4.39,6.28,6.28,0,0,1,1.11-.15l-.07.4-.07.41a5.74,5.74,0,0,0-.8.12,5.42,5.42,0,0,0-3.82,3.86,13,13,0,0,0-.51,5.33,4.48,4.48,0,0,0,1.71,3.53,4.43,4.43,0,0,0,1.16.56l-.07.4-.07.4A5.48,5.48,0,0,1,271.18,134Z"/><path class="cls-16" d="M272.67,131.8c-.52-.35-.8-1-.91-2.16a11.17,11.17,0,0,1,.43-4.55,3.81,3.81,0,0,1,2.47-2.66h.07l-.08.43-.07.44a3.26,3.26,0,0,0-1.63,2,10.16,10.16,0,0,0-.39,4.23c.08.88.25,1.37.55,1.57l.13.08-.07.41-.06.41A2.34,2.34,0,0,1,272.67,131.8Z"/><text class="cls-19" transform="matrix(0.99, 0.17, -0.17, 0.99, 315.1, 142.48)">R$250</text></g></g></svg>