<?xml version="1.0" encoding="utf-8"?>
<!-- Generator: Adobe Illustrator 22.0.1, SVG Export Plug-In . SVG Version: 6.00 Build 0)  -->
<svg version="1.1" id="Layer_1" xmlns="http://www.w3.org/2000/svg" xmlns:xlink="http://www.w3.org/1999/xlink" x="0px" y="0px"
	 viewBox="0 0 1080 1080" style="enable-background:new 0 0 1080 1080;" xml:space="preserve">
<style type="text/css">
	.st0{fill:url(#SVGID_1_);}
	.st1{fill:url(#SVGID_2_);}
	.st2{fill:url(#SVGID_3_);}
	.st3{fill:url(#SVGID_4_);}
	.st4{fill:url(#SVGID_5_);}
	.st5{fill:url(#SVGID_6_);}
	.st6{fill:url(#SVGID_7_);}
	.st7{fill:url(#SVGID_8_);}
	.st8{fill:url(#SVGID_9_);}
	.st9{fill:url(#SVGID_10_);}
	.st10{fill:url(#SVGID_11_);}
	.st11{fill:url(#SVGID_12_);}
	.st12{fill:url(#SVGID_13_);}
	.st13{fill:url(#SVGID_14_);}
	.st14{fill:url(#SVGID_15_);}
	.st15{fill:url(#SVGID_16_);}
	.st16{fill:url(#SVGID_17_);}
	.st17{fill:url(#SVGID_18_);}
	.st18{fill:url(#SVGID_19_);}
	.st19{fill:url(#SVGID_20_);}
	.st20{fill:url(#SVGID_21_);}
	.st21{fill:url(#SVGID_22_);}
	.st22{fill:url(#SVGID_23_);}
	.st23{fill:url(#SVGID_24_);}
	.st24{fill:url(#SVGID_25_);}
	.st25{fill:url(#SVGID_26_);}
	.st26{fill:url(#SVGID_27_);}
	.st27{fill:url(#SVGID_28_);}
	.st28{fill:url(#SVGID_29_);}
	.st29{fill:url(#SVGID_30_);}
	.st30{fill:url(#SVGID_31_);}
	.st31{fill:url(#SVGID_32_);}
	.st32{fill:url(#SVGID_33_);}
	.st33{fill:url(#SVGID_34_);}
	.st34{fill:url(#SVGID_35_);}
	.st35{fill:url(#SVGID_36_);}
	.st36{fill:url(#SVGID_37_);}
	.st37{fill:url(#SVGID_38_);}
	.st38{fill:url(#SVGID_39_);}
	.st39{fill:url(#SVGID_40_);}
	.st40{fill:url(#SVGID_41_);}
	.st41{fill:url(#SVGID_42_);}
	.st42{fill:url(#SVGID_43_);}
	.st43{fill:url(#SVGID_44_);}
	.st44{fill:url(#SVGID_45_);}
	.st45{fill:url(#SVGID_46_);}
	.st46{fill:url(#SVGID_47_);}
	.st47{fill:url(#SVGID_48_);}
	.st48{fill:url(#SVGID_49_);}
	.st49{fill:url(#SVGID_50_);}
	.st50{fill:url(#SVGID_51_);}
	.st51{fill:url(#SVGID_52_);}
	.st52{fill:url(#SVGID_53_);}
	.st53{fill:url(#SVGID_54_);}
	.st54{fill:url(#SVGID_55_);}
	.st55{fill:url(#SVGID_56_);}
	.st56{fill:url(#SVGID_57_);}
	.st57{fill:url(#SVGID_58_);}
	.st58{fill:url(#SVGID_59_);}
	.st59{fill:url(#SVGID_60_);}
	.st60{fill:url(#SVGID_61_);}
	.st61{fill:url(#SVGID_62_);}
	.st62{fill:url(#SVGID_63_);}
	.st63{fill:url(#SVGID_64_);}
	.st64{fill:url(#SVGID_65_);}
	.st65{fill:url(#SVGID_66_);}
	.st66{fill:url(#SVGID_67_);}
	.st67{fill:url(#SVGID_68_);}
	.st68{fill:url(#SVGID_69_);}
	.st69{fill:url(#SVGID_70_);}
	.st70{fill:url(#SVGID_71_);}
	.st71{fill:url(#SVGID_72_);}
	.st72{fill:url(#SVGID_73_);}
	.st73{fill:url(#SVGID_74_);}
	.st74{fill:url(#SVGID_75_);}
	.st75{fill:#1D1D1B;}
	.st76{fill:url(#SVGID_76_);}
	.st77{fill:none;stroke:#683B11;stroke-width:7.9521;stroke-miterlimit:10;}
</style>
<g>
	<linearGradient id="SVGID_1_" gradientUnits="userSpaceOnUse" x1="919.612" y1="288.1327" x2="1028.71" y2="288.1327">
		<stop  offset="0" style="stop-color:#CE6B4E"/>
		<stop  offset="0.2623" style="stop-color:#CC673B"/>
		<stop  offset="0.7315" style="stop-color:#C9611E"/>
		<stop  offset="1" style="stop-color:#C85F13"/>
	</linearGradient>
	<path class="st0" d="M1005.8,233.6c12-4.6,24.6,5.2,22.7,17.8l-12.4,81.5c-0.7,4.6-3.2,8.3-6.5,10.8c-0.5-0.7-1-1.3-1.6-2
		c-1.2-1.5-2.4-3-3.6-4.5c-0.3-0.4-0.6-0.8-1-1.1c-2.4-2.8-4.8-5.6-7.3-8.3c-0.1-0.1-0.2-0.2-0.3-0.3c0,0,0-0.1-0.1-0.1l8.4-55.4
		c1.9-12.6-10.7-22.5-22.7-17.8l-53.8,20.9c-2.7-1.4-5.4-2.8-8.1-4.1c1.8-3.1,4.6-5.6,8.3-7.1L1005.8,233.6z"/>
	<linearGradient id="SVGID_2_" gradientUnits="userSpaceOnUse" x1="962.4822" y1="261.4805" x2="988.8362" y2="330.1349">
		<stop  offset="0" style="stop-color:#CABA9F"/>
		<stop  offset="0.3262" style="stop-color:#C7B79C"/>
		<stop  offset="0.5574" style="stop-color:#BFAE93"/>
		<stop  offset="0.7593" style="stop-color:#B09E84"/>
		<stop  offset="0.9432" style="stop-color:#9B886F"/>
		<stop  offset="1" style="stop-color:#938067"/>
	</linearGradient>
	<path class="st1" d="M981.5,254.2c12-4.6,24.6,5.2,22.7,17.8l-8.4,55.4c-1.3-1.4-2.5-2.7-3.8-4c0,0,0,0,0-0.1
		c-7.1-7.3-14.6-14.2-22.5-20.6c-3.2-2.6-6.4-5.1-9.7-7.5c-1.6-1.3-3.3-2.4-5-3.6c-1.7-1.2-3.4-2.4-5.1-3.5
		c-1.6-1.1-3.2-2.2-4.9-3.1c-0.2-0.1-0.3-0.2-0.5-0.3c-1.7-1.1-3.4-2.1-5.1-3.1c-1.8-1.1-3.5-2.1-5.3-3.1c-1.8-1-3.6-2-5.4-3
		c-0.3-0.2-0.5-0.3-0.8-0.4L981.5,254.2z"/>
	<linearGradient id="SVGID_3_" gradientUnits="userSpaceOnUse" x1="583.3459" y1="288.1917" x2="692.5237" y2="288.1917">
		<stop  offset="0" style="stop-color:#CE6B4E"/>
		<stop  offset="0.2623" style="stop-color:#CC673B"/>
		<stop  offset="0.7315" style="stop-color:#C9611E"/>
		<stop  offset="1" style="stop-color:#C85F13"/>
	</linearGradient>
	<path class="st2" d="M692.5,271.1L692.5,271.1c-2.7,1.3-5.4,2.7-8,4.1l-53.9-20.9c-12-4.6-24.6,5.2-22.7,17.8l8.5,55.7
		c-0.1,0-0.1,0.1-0.2,0.2c-2.8,3-5.5,6-8.1,9.2c-0.2,0.2-0.4,0.5-0.6,0.7c-1.7,2-3.4,4.1-5,6.1c-3.4-2.4-6-6.2-6.6-10.9l-12.4-81.5
		c-1.9-12.6,10.7-22.5,22.7-17.8l77.8,30.2C687.9,265.4,690.7,268,692.5,271.1z"/>
	<linearGradient id="SVGID_4_" gradientUnits="userSpaceOnUse" x1="628.5078" y1="249.837" x2="654.6638" y2="311.4567">
		<stop  offset="0" style="stop-color:#CABA9F"/>
		<stop  offset="0.3262" style="stop-color:#C7B79C"/>
		<stop  offset="0.5574" style="stop-color:#BFAE93"/>
		<stop  offset="0.7593" style="stop-color:#B09E84"/>
		<stop  offset="0.9432" style="stop-color:#9B886F"/>
		<stop  offset="1" style="stop-color:#938067"/>
	</linearGradient>
	<path class="st3" d="M684.5,275.1c-0.2,0.1-0.4,0.2-0.6,0.3c-1.7,0.9-3.4,1.8-5,2.8c-0.2,0.1-0.3,0.2-0.5,0.3
		c-9.2,5.2-18.1,11-26.6,17.3c-1.3,0.9-2.6,1.9-3.9,3c-1.1,0.8-2.1,1.6-3.1,2.4c-1.2,0.9-2.3,1.9-3.4,2.8c-1.1,0.9-2.2,1.8-3.2,2.7
		c-1.3,1.1-2.6,2.2-3.8,3.3c-1.2,1.1-2.4,2.1-3.6,3.3c-1.1,0.9-2.1,1.9-3.2,3c-1,0.9-2,1.9-3,2.9c-1.3,1.2-2.5,2.5-3.7,3.7
		c-1.6,1.6-3.2,3.2-4.6,4.9l-8.5-55.7c-1.9-12.6,10.7-22.5,22.7-17.8L684.5,275.1z"/>
	<linearGradient id="SVGID_5_" gradientUnits="userSpaceOnUse" x1="848.7218" y1="716.2449" x2="911.4949" y2="716.2449">
		<stop  offset="0" style="stop-color:#9F4D0C"/>
		<stop  offset="1" style="stop-color:#C85F13"/>
	</linearGradient>
	<path class="st4" d="M906.2,690.6c8.2,20.6,6.8,40.5-3.2,44.4c-0.4,0.2-0.8,0.3-1.2,0.4c-4.8,1.2-8.7,4.2-12.3,7.4
		c-0.9,0.8-1.9,1.4-3,1.9c-10,3.9-24.8-9.7-33-30.3c-2.4-6.1-4-12.1-4.8-17.6c19.5-1.8,38.3-4.9,56-9.4
		C905.2,688.3,905.7,689.4,906.2,690.6z"/>
	<linearGradient id="SVGID_6_" gradientUnits="userSpaceOnUse" x1="794.0066" y1="728.7114" x2="854.7723" y2="728.7114">
		<stop  offset="0" style="stop-color:#9F4D0C"/>
		<stop  offset="1" style="stop-color:#C85F13"/>
	</linearGradient>
	<path class="st5" d="M849.4,705.8c8.3,20.6,6.8,40.5-3.2,44.4c-0.4,0.1-0.8,0.2-1.2,0.4c-4.7,1.1-8.7,4.2-12.3,7.4
		c-0.9,0.8-1.9,1.4-3,1.9c-10,3.9-24.8-9.6-33-30.3c-1.1-2.8-2-5.5-2.8-8.2c8.8-6.1,17.6-12.4,26.3-18.9c-2.3-1.3-4.5-2.6-6.7-3.9
		c10.7-0.2,21.3-0.7,31.7-1.6C846.8,699.7,848.2,702.7,849.4,705.8z"/>
	<g>
		<linearGradient id="SVGID_7_" gradientUnits="userSpaceOnUse" x1="1061.6321" y1="473.6359" x2="1061.7518" y2="473.6359">
			<stop  offset="0" style="stop-color:#CE6B4E"/>
			<stop  offset="0.2623" style="stop-color:#CC673B"/>
			<stop  offset="0.7315" style="stop-color:#C9611E"/>
			<stop  offset="1" style="stop-color:#C85F13"/>
		</linearGradient>
		<path class="st6" d="M1061.6,473.1c0,0.4,0.1,0.7,0.1,1.1h0C1061.7,473.8,1061.7,473.4,1061.6,473.1z"/>
		<linearGradient id="SVGID_8_" gradientUnits="userSpaceOnUse" x1="1060.8333" y1="468.38" x2="1061.3925" y2="468.38">
			<stop  offset="0" style="stop-color:#CE6B4E"/>
			<stop  offset="0.2623" style="stop-color:#CC673B"/>
			<stop  offset="0.7315" style="stop-color:#C9611E"/>
			<stop  offset="1" style="stop-color:#C85F13"/>
		</linearGradient>
		<path class="st7" d="M1061.4,470.8c-0.2-1.6-0.4-3.2-0.6-4.8C1061,467.6,1061.2,469.2,1061.4,470.8z"/>
		<linearGradient id="SVGID_9_" gradientUnits="userSpaceOnUse" x1="1059.4354" y1="458.951" x2="1060.1543" y2="458.951">
			<stop  offset="0" style="stop-color:#CE6B4E"/>
			<stop  offset="0.2623" style="stop-color:#CC673B"/>
			<stop  offset="0.7315" style="stop-color:#C9611E"/>
			<stop  offset="1" style="stop-color:#C85F13"/>
		</linearGradient>
		<path class="st8" d="M1060.2,461.3c-0.2-1.6-0.4-3.1-0.7-4.6C1059.7,458.2,1060,459.7,1060.2,461.3z"/>
		<linearGradient id="SVGID_10_" gradientUnits="userSpaceOnUse" x1="1058.3171" y1="453.2818" x2="1059.3556" y2="453.2818">
			<stop  offset="0" style="stop-color:#CE6B4E"/>
			<stop  offset="0.2623" style="stop-color:#CC673B"/>
			<stop  offset="0.7315" style="stop-color:#C9611E"/>
			<stop  offset="1" style="stop-color:#C85F13"/>
		</linearGradient>
		<path class="st9" d="M1059.4,456.1c-0.3-1.9-0.6-3.8-1-5.7C1058.7,452.3,1059,454.2,1059.4,456.1z"/>
		<linearGradient id="SVGID_11_" gradientUnits="userSpaceOnUse" x1="1054.3234" y1="435.4079" x2="1055.5215" y2="435.4079">
			<stop  offset="0" style="stop-color:#CE6B4E"/>
			<stop  offset="0.2623" style="stop-color:#CC673B"/>
			<stop  offset="0.7315" style="stop-color:#C9611E"/>
			<stop  offset="1" style="stop-color:#C85F13"/>
		</linearGradient>
		<path class="st10" d="M1055.5,437.7c-0.4-1.6-0.8-3.1-1.2-4.6C1054.8,434.6,1055.2,436.2,1055.5,437.7z"/>
		<linearGradient id="SVGID_12_" gradientUnits="userSpaceOnUse" x1="1028.8428" y1="374.7393" x2="1031.8782" y2="374.7393">
			<stop  offset="0" style="stop-color:#CE6B4E"/>
			<stop  offset="0.2623" style="stop-color:#CC673B"/>
			<stop  offset="0.7315" style="stop-color:#C9611E"/>
			<stop  offset="1" style="stop-color:#C85F13"/>
		</linearGradient>
		<path class="st11" d="M1031.9,377.4c-1-1.8-2-3.6-3-5.4C1029.9,373.8,1030.9,375.6,1031.9,377.4z"/>
		<linearGradient id="SVGID_13_" gradientUnits="userSpaceOnUse" x1="1024.0103" y1="366.2748" x2="1026.6862" y2="366.2748">
			<stop  offset="0" style="stop-color:#CE6B4E"/>
			<stop  offset="0.2623" style="stop-color:#CC673B"/>
			<stop  offset="0.7315" style="stop-color:#C9611E"/>
			<stop  offset="1" style="stop-color:#C85F13"/>
		</linearGradient>
		<path class="st12" d="M1026.7,368.4c-0.9-1.5-1.8-2.9-2.7-4.3C1024.9,365.5,1025.8,367,1026.7,368.4z"/>
		<linearGradient id="SVGID_14_" gradientUnits="userSpaceOnUse" x1="1019.1379" y1="358.9127" x2="1022.0933" y2="358.9127">
			<stop  offset="0" style="stop-color:#CE6B4E"/>
			<stop  offset="0.2623" style="stop-color:#CC673B"/>
			<stop  offset="0.7315" style="stop-color:#C9611E"/>
			<stop  offset="1" style="stop-color:#C85F13"/>
		</linearGradient>
		<path class="st13" d="M1022.1,361.1c-1-1.5-2-3-3-4.4C1020.1,358.2,1021.1,359.6,1022.1,361.1z"/>
		<linearGradient id="SVGID_15_" gradientUnits="userSpaceOnUse" x1="1008.1149" y1="342.8105" x2="1009.6725" y2="342.8105">
			<stop  offset="0" style="stop-color:#CE6B4E"/>
			<stop  offset="0.2623" style="stop-color:#CC673B"/>
			<stop  offset="0.7315" style="stop-color:#C9611E"/>
			<stop  offset="1" style="stop-color:#C85F13"/>
		</linearGradient>
		<path class="st14" d="M1008.1,341.8c0.6,0.6,1.1,1.3,1.6,2h0C1009.2,343.1,1008.6,342.5,1008.1,341.8z"/>
		<linearGradient id="SVGID_16_" gradientUnits="userSpaceOnUse" x1="1004.4806" y1="339.5822" x2="1008.1149" y2="339.5822">
			<stop  offset="0" style="stop-color:#CE6B4E"/>
			<stop  offset="0.2623" style="stop-color:#CC673B"/>
			<stop  offset="0.7315" style="stop-color:#C9611E"/>
			<stop  offset="1" style="stop-color:#C85F13"/>
		</linearGradient>
		<path class="st15" d="M1008.1,341.8c-1.2-1.5-2.4-3-3.6-4.5C1005.7,338.8,1007,340.3,1008.1,341.8z"/>
		<linearGradient id="SVGID_17_" gradientUnits="userSpaceOnUse" x1="996.1735" y1="332.0429" x2="1003.522" y2="332.0429">
			<stop  offset="0" style="stop-color:#CE6B4E"/>
			<stop  offset="0.2623" style="stop-color:#CC673B"/>
			<stop  offset="0.7315" style="stop-color:#C9611E"/>
			<stop  offset="1" style="stop-color:#C85F13"/>
		</linearGradient>
		<path class="st16" d="M1003.5,336.2c-2.4-2.8-4.8-5.6-7.3-8.3C998.7,330.6,1001.2,333.4,1003.5,336.2z"/>
		<linearGradient id="SVGID_18_" gradientUnits="userSpaceOnUse" x1="995.774" y1="327.5154" x2="995.8939" y2="327.5154">
			<stop  offset="0" style="stop-color:#CE6B4E"/>
			<stop  offset="0.2623" style="stop-color:#CC673B"/>
			<stop  offset="0.7315" style="stop-color:#C9611E"/>
			<stop  offset="1" style="stop-color:#C85F13"/>
		</linearGradient>
		<path class="st17" d="M995.8,327.5c0,0,0,0.1,0.1,0.1C995.9,327.5,995.8,327.5,995.8,327.5L995.8,327.5z"/>
		<linearGradient id="SVGID_19_" gradientUnits="userSpaceOnUse" x1="991.9799" y1="325.4682" x2="995.814" y2="325.4682">
			<stop  offset="0" style="stop-color:#CE6B4E"/>
			<stop  offset="0.2623" style="stop-color:#CC673B"/>
			<stop  offset="0.7315" style="stop-color:#C9611E"/>
			<stop  offset="1" style="stop-color:#C85F13"/>
		</linearGradient>
		<path class="st18" d="M995.8,327.5L995.8,327.5c-1.3-1.3-2.6-2.7-3.8-4C993.3,324.8,994.5,326.1,995.8,327.5z"/>
		<linearGradient id="SVGID_20_" gradientUnits="userSpaceOnUse" x1="969.4548" y1="313.0667" x2="991.94" y2="313.0667">
			<stop  offset="0" style="stop-color:#CE6B4E"/>
			<stop  offset="0.2623" style="stop-color:#CC673B"/>
			<stop  offset="0.7315" style="stop-color:#C9611E"/>
			<stop  offset="1" style="stop-color:#C85F13"/>
		</linearGradient>
		<path class="st19" d="M991.9,323.4c-7.1-7.3-14.6-14.2-22.5-20.6C977.4,309.2,984.9,316.1,991.9,323.4z"/>
		<linearGradient id="SVGID_21_" gradientUnits="userSpaceOnUse" x1="954.7576" y1="293.4607" x2="959.7499" y2="293.4607">
			<stop  offset="0" style="stop-color:#CE6B4E"/>
			<stop  offset="0.2623" style="stop-color:#CC673B"/>
			<stop  offset="0.7315" style="stop-color:#C9611E"/>
			<stop  offset="1" style="stop-color:#C85F13"/>
		</linearGradient>
		<path class="st20" d="M959.7,295.3c-1.6-1.2-3.3-2.4-5-3.6C956.4,292.8,958.1,294,959.7,295.3z"/>
		<linearGradient id="SVGID_22_" gradientUnits="userSpaceOnUse" x1="949.6854" y1="289.9371" x2="954.7576" y2="289.9371">
			<stop  offset="0" style="stop-color:#CE6B4E"/>
			<stop  offset="0.2623" style="stop-color:#CC673B"/>
			<stop  offset="0.7315" style="stop-color:#C9611E"/>
			<stop  offset="1" style="stop-color:#C85F13"/>
		</linearGradient>
		<path class="st21" d="M954.8,291.7c-1.7-1.2-3.4-2.3-5.1-3.5C951.4,289.3,953.1,290.4,954.8,291.7z"/>
		<linearGradient id="SVGID_23_" gradientUnits="userSpaceOnUse" x1="944.813" y1="286.63" x2="949.6854" y2="286.63">
			<stop  offset="0" style="stop-color:#CE6B4E"/>
			<stop  offset="0.2623" style="stop-color:#CC673B"/>
			<stop  offset="0.7315" style="stop-color:#C9611E"/>
			<stop  offset="1" style="stop-color:#C85F13"/>
		</linearGradient>
		<path class="st22" d="M949.7,288.2c-1.6-1.1-3.2-2.1-4.9-3.1C946.5,286,948.1,287.1,949.7,288.2z"/>
		<linearGradient id="SVGID_24_" gradientUnits="userSpaceOnUse" x1="939.2616" y1="283.1852" x2="944.3337" y2="283.1852">
			<stop  offset="0" style="stop-color:#CE6B4E"/>
			<stop  offset="0.2623" style="stop-color:#CC673B"/>
			<stop  offset="0.7315" style="stop-color:#C9611E"/>
			<stop  offset="1" style="stop-color:#C85F13"/>
		</linearGradient>
		<path class="st23" d="M944.3,284.7c-1.7-1.1-3.4-2.1-5.1-3.1C941,282.6,942.7,283.6,944.3,284.7z"/>
		<linearGradient id="SVGID_25_" gradientUnits="userSpaceOnUse" x1="933.9498" y1="280.075" x2="939.2616" y2="280.075">
			<stop  offset="0" style="stop-color:#CE6B4E"/>
			<stop  offset="0.2623" style="stop-color:#CC673B"/>
			<stop  offset="0.7315" style="stop-color:#C9611E"/>
			<stop  offset="1" style="stop-color:#C85F13"/>
		</linearGradient>
		<path class="st24" d="M939.3,281.6c-1.8-1.1-3.6-2.1-5.3-3.1C935.7,279.5,937.5,280.5,939.3,281.6z"/>
		<linearGradient id="SVGID_26_" gradientUnits="userSpaceOnUse" x1="928.5182" y1="277.0238" x2="933.9498" y2="277.0238">
			<stop  offset="0" style="stop-color:#CE6B4E"/>
			<stop  offset="0.2623" style="stop-color:#CC673B"/>
			<stop  offset="0.7315" style="stop-color:#C9611E"/>
			<stop  offset="1" style="stop-color:#C85F13"/>
		</linearGradient>
		<path class="st25" d="M933.9,278.5c-1.8-1-3.6-2-5.4-3C930.4,276.5,932.2,277.5,933.9,278.5z"/>
		<linearGradient id="SVGID_27_" gradientUnits="userSpaceOnUse" x1="919.612" y1="273.0278" x2="927.7195" y2="273.0278">
			<stop  offset="0" style="stop-color:#CE6B4E"/>
			<stop  offset="0.2623" style="stop-color:#CC673B"/>
			<stop  offset="0.7315" style="stop-color:#C9611E"/>
			<stop  offset="1" style="stop-color:#C85F13"/>
		</linearGradient>
		<path class="st26" d="M927.7,275.1L927.7,275.1c-2.7-1.4-5.4-2.8-8.1-4.1v0C922.4,272.3,925,273.7,927.7,275.1z"/>
		<linearGradient id="SVGID_28_" gradientUnits="userSpaceOnUse" x1="917.4554" y1="270.4688" x2="919.612" y2="270.4688">
			<stop  offset="0" style="stop-color:#CE6B4E"/>
			<stop  offset="0.2623" style="stop-color:#CC673B"/>
			<stop  offset="0.7315" style="stop-color:#C9611E"/>
			<stop  offset="1" style="stop-color:#C85F13"/>
		</linearGradient>
		<path class="st27" d="M919.6,271L919.6,271c-0.7-0.3-1.4-0.7-2.2-1C918.2,270.3,918.9,270.6,919.6,271z"/>
		<linearGradient id="SVGID_29_" gradientUnits="userSpaceOnUse" x1="906.073" y1="267.3979" x2="917.4554" y2="267.3979">
			<stop  offset="0" style="stop-color:#CE6B4E"/>
			<stop  offset="0.2623" style="stop-color:#CC673B"/>
			<stop  offset="0.7315" style="stop-color:#C9611E"/>
			<stop  offset="1" style="stop-color:#C85F13"/>
		</linearGradient>
		<path class="st28" d="M917.5,269.9c-3.8-1.8-7.5-3.5-11.4-5.1C909.9,266.4,913.7,268.1,917.5,269.9z"/>
		<linearGradient id="SVGID_30_" gradientUnits="userSpaceOnUse" x1="900.282" y1="263.6972" x2="906.073" y2="263.6972">
			<stop  offset="0" style="stop-color:#CE6B4E"/>
			<stop  offset="0.2623" style="stop-color:#CC673B"/>
			<stop  offset="0.7315" style="stop-color:#C9611E"/>
			<stop  offset="1" style="stop-color:#C85F13"/>
		</linearGradient>
		<path class="st29" d="M906.1,264.9c-1.9-0.8-3.8-1.6-5.8-2.3C902.2,263.3,904.2,264,906.1,264.9z"/>
		<linearGradient id="SVGID_31_" gradientUnits="userSpaceOnUse" x1="894.4111" y1="261.4335" x2="900.282" y2="261.4335">
			<stop  offset="0" style="stop-color:#CE6B4E"/>
			<stop  offset="0.2623" style="stop-color:#CC673B"/>
			<stop  offset="0.7315" style="stop-color:#C9611E"/>
			<stop  offset="1" style="stop-color:#C85F13"/>
		</linearGradient>
		<path class="st30" d="M900.3,262.5c-2-0.7-3.9-1.5-5.9-2.2C896.4,261,898.3,261.7,900.3,262.5z"/>
		<linearGradient id="SVGID_32_" gradientUnits="userSpaceOnUse" x1="876.4389" y1="255.3115" x2="881.4711" y2="255.3115">
			<stop  offset="0" style="stop-color:#CE6B4E"/>
			<stop  offset="0.2623" style="stop-color:#CC673B"/>
			<stop  offset="0.7315" style="stop-color:#C9611E"/>
			<stop  offset="1" style="stop-color:#C85F13"/>
		</linearGradient>
		<path class="st31" d="M881.5,256c-1.7-0.5-3.4-1-5-1.5C878.2,255.1,879.8,255.5,881.5,256z"/>
		<linearGradient id="SVGID_33_" gradientUnits="userSpaceOnUse" x1="868.611" y1="252.9296" x2="871.8061" y2="252.9296">
			<stop  offset="0" style="stop-color:#CE6B4E"/>
			<stop  offset="0.2623" style="stop-color:#CC673B"/>
			<stop  offset="0.7315" style="stop-color:#C9611E"/>
			<stop  offset="1" style="stop-color:#C85F13"/>
		</linearGradient>
		<path class="st32" d="M871.8,253.3c-1-0.3-2.1-0.6-3.2-0.8C869.7,252.8,870.7,253,871.8,253.3z"/>
		<linearGradient id="SVGID_34_" gradientUnits="userSpaceOnUse" x1="864.1379" y1="252.0044" x2="868.611" y2="252.0044">
			<stop  offset="0" style="stop-color:#CE6B4E"/>
			<stop  offset="0.2623" style="stop-color:#CC673B"/>
			<stop  offset="0.7315" style="stop-color:#C9611E"/>
			<stop  offset="1" style="stop-color:#C85F13"/>
		</linearGradient>
		<path class="st33" d="M868.6,252.5c-1.5-0.4-3-0.7-4.5-1.1C865.7,251.8,867.1,252.1,868.6,252.5z"/>
		<linearGradient id="SVGID_35_" gradientUnits="userSpaceOnUse" x1="857.9076" y1="250.8036" x2="864.1379" y2="250.8036">
			<stop  offset="0" style="stop-color:#CE6B4E"/>
			<stop  offset="0.2623" style="stop-color:#CC673B"/>
			<stop  offset="0.7315" style="stop-color:#C9611E"/>
			<stop  offset="1" style="stop-color:#C85F13"/>
		</linearGradient>
		<path class="st34" d="M864.1,251.5c-2.1-0.5-4.2-0.9-6.2-1.3C860,250.5,862.1,251,864.1,251.5z"/>
		<linearGradient id="SVGID_36_" gradientUnits="userSpaceOnUse" x1="852.7156" y1="249.6226" x2="857.9076" y2="249.6226">
			<stop  offset="0" style="stop-color:#CE6B4E"/>
			<stop  offset="0.2623" style="stop-color:#CC673B"/>
			<stop  offset="0.7315" style="stop-color:#C9611E"/>
			<stop  offset="1" style="stop-color:#C85F13"/>
		</linearGradient>
		<path class="st35" d="M857.9,250.1c-1.7-0.4-3.4-0.7-5.2-1C854.4,249.4,856.2,249.8,857.9,250.1z"/>
		<linearGradient id="SVGID_37_" gradientUnits="userSpaceOnUse" x1="846.6051" y1="248.4415" x2="850.6389" y2="248.4415">
			<stop  offset="0" style="stop-color:#CE6B4E"/>
			<stop  offset="0.2623" style="stop-color:#CC673B"/>
			<stop  offset="0.7315" style="stop-color:#C9611E"/>
			<stop  offset="1" style="stop-color:#C85F13"/>
		</linearGradient>
		<path class="st36" d="M850.6,248.8c-1.3-0.2-2.7-0.4-4-0.6C848,248.3,849.3,248.5,850.6,248.8z"/>
		<linearGradient id="SVGID_38_" gradientUnits="userSpaceOnUse" x1="835.2227" y1="246.7879" x2="838.6175" y2="246.7879">
			<stop  offset="0" style="stop-color:#CE6B4E"/>
			<stop  offset="0.2623" style="stop-color:#CC673B"/>
			<stop  offset="0.7315" style="stop-color:#C9611E"/>
			<stop  offset="1" style="stop-color:#C85F13"/>
		</linearGradient>
		<path class="st37" d="M838.6,247c-1.1-0.2-2.2-0.3-3.4-0.4C836.3,246.7,837.5,246.8,838.6,247z"/>
		<linearGradient id="SVGID_39_" gradientUnits="userSpaceOnUse" x1="830.9493" y1="246.3746" x2="835.2227" y2="246.3746">
			<stop  offset="0" style="stop-color:#CE6B4E"/>
			<stop  offset="0.2623" style="stop-color:#CC673B"/>
			<stop  offset="0.7315" style="stop-color:#C9611E"/>
			<stop  offset="1" style="stop-color:#C85F13"/>
		</linearGradient>
		<path class="st38" d="M835.2,246.6c-1.4-0.2-2.9-0.3-4.3-0.4C832.4,246.3,833.8,246.4,835.2,246.6z"/>
		<linearGradient id="SVGID_40_" gradientUnits="userSpaceOnUse" x1="789.0543" y1="245.3116" x2="799.558" y2="245.3116">
			<stop  offset="0" style="stop-color:#CE6B4E"/>
			<stop  offset="0.2623" style="stop-color:#CC673B"/>
			<stop  offset="0.7315" style="stop-color:#C9611E"/>
			<stop  offset="1" style="stop-color:#C85F13"/>
		</linearGradient>
		<path class="st39" d="M799.6,245.1c-3.5,0.1-7,0.2-10.5,0.5C792.5,245.3,796,245.1,799.6,245.1z"/>
		<linearGradient id="SVGID_41_" gradientUnits="userSpaceOnUse" x1="759.1006" y1="248.9336" x2="762.4954" y2="248.9336">
			<stop  offset="0" style="stop-color:#CE6B4E"/>
			<stop  offset="0.2623" style="stop-color:#CC673B"/>
			<stop  offset="0.7315" style="stop-color:#C9611E"/>
			<stop  offset="1" style="stop-color:#C85F13"/>
		</linearGradient>
		<path class="st40" d="M762.5,248.6c-1.1,0.2-2.3,0.4-3.4,0.6C760.2,249,761.4,248.8,762.5,248.6z"/>
		<linearGradient id="SVGID_42_" gradientUnits="userSpaceOnUse" x1="754.4678" y1="249.6816" x2="759.1006" y2="249.6816">
			<stop  offset="0" style="stop-color:#CE6B4E"/>
			<stop  offset="0.2623" style="stop-color:#CC673B"/>
			<stop  offset="0.7315" style="stop-color:#C9611E"/>
			<stop  offset="1" style="stop-color:#C85F13"/>
		</linearGradient>
		<path class="st41" d="M759.1,249.2c-1.6,0.3-3.1,0.6-4.6,0.9C756,249.8,757.5,249.5,759.1,249.2z"/>
		<linearGradient id="SVGID_43_" gradientUnits="userSpaceOnUse" x1="748.1975" y1="250.8036" x2="754.4678" y2="250.8036">
			<stop  offset="0" style="stop-color:#CE6B4E"/>
			<stop  offset="0.2623" style="stop-color:#CC673B"/>
			<stop  offset="0.7315" style="stop-color:#C9611E"/>
			<stop  offset="1" style="stop-color:#C85F13"/>
		</linearGradient>
		<path class="st42" d="M754.5,250.1c-2.1,0.4-4.2,0.9-6.3,1.3C750.3,251,752.4,250.5,754.5,250.1z"/>
		<linearGradient id="SVGID_44_" gradientUnits="userSpaceOnUse" x1="742.8857" y1="252.1029" x2="748.1975" y2="252.1029">
			<stop  offset="0" style="stop-color:#CE6B4E"/>
			<stop  offset="0.2623" style="stop-color:#CC673B"/>
			<stop  offset="0.7315" style="stop-color:#C9611E"/>
			<stop  offset="1" style="stop-color:#C85F13"/>
		</linearGradient>
		<path class="st43" d="M748.2,251.5c-1.8,0.4-3.6,0.8-5.3,1.3C744.6,252.3,746.4,251.9,748.2,251.5z"/>
		<linearGradient id="SVGID_45_" gradientUnits="userSpaceOnUse" x1="736.6554" y1="253.7957" x2="740.9687" y2="253.7957">
			<stop  offset="0" style="stop-color:#CE6B4E"/>
			<stop  offset="0.2623" style="stop-color:#CC673B"/>
			<stop  offset="0.7315" style="stop-color:#C9611E"/>
			<stop  offset="1" style="stop-color:#C85F13"/>
		</linearGradient>
		<path class="st44" d="M741,253.2c-1.4,0.4-2.9,0.8-4.3,1.2C738.1,254,739.5,253.6,741,253.2z"/>
		<linearGradient id="SVGID_46_" gradientUnits="userSpaceOnUse" x1="730.1854" y1="255.5083" x2="735.4173" y2="255.5083">
			<stop  offset="0" style="stop-color:#CE6B4E"/>
			<stop  offset="0.2623" style="stop-color:#CC673B"/>
			<stop  offset="0.7315" style="stop-color:#C9611E"/>
			<stop  offset="1" style="stop-color:#C85F13"/>
		</linearGradient>
		<path class="st45" d="M735.4,254.7c-1.8,0.5-3.5,1-5.2,1.5C731.9,255.7,733.7,255.2,735.4,254.7z"/>
		<linearGradient id="SVGID_47_" gradientUnits="userSpaceOnUse" x1="724.634" y1="257.2012" x2="729.6662" y2="257.2012">
			<stop  offset="0" style="stop-color:#CE6B4E"/>
			<stop  offset="0.2623" style="stop-color:#CC673B"/>
			<stop  offset="0.7315" style="stop-color:#C9611E"/>
			<stop  offset="1" style="stop-color:#C85F13"/>
		</linearGradient>
		<path class="st46" d="M729.7,256.4c-1.7,0.6-3.4,1.1-5,1.6C726.3,257.5,727.9,256.9,729.7,256.4z"/>
		<linearGradient id="SVGID_48_" gradientUnits="userSpaceOnUse" x1="684.4962" y1="273.1459" x2="692.5237" y2="273.1459">
			<stop  offset="0" style="stop-color:#CE6B4E"/>
			<stop  offset="0.2623" style="stop-color:#CC673B"/>
			<stop  offset="0.7315" style="stop-color:#C9611E"/>
			<stop  offset="1" style="stop-color:#C85F13"/>
		</linearGradient>
		<path class="st47" d="M692.5,271.1c-2.7,1.3-5.4,2.6-8,4.1l0,0C687.1,273.8,689.8,272.4,692.5,271.1z"/>
		<linearGradient id="SVGID_49_" gradientUnits="userSpaceOnUse" x1="683.9371" y1="275.2916" x2="684.5361" y2="275.2916">
			<stop  offset="0" style="stop-color:#CE6B4E"/>
			<stop  offset="0.2623" style="stop-color:#CC673B"/>
			<stop  offset="0.7315" style="stop-color:#C9611E"/>
			<stop  offset="1" style="stop-color:#C85F13"/>
		</linearGradient>
		<path class="st48" d="M684.5,275.1L684.5,275.1c-0.2,0.1-0.4,0.2-0.6,0.3C684.1,275.4,684.3,275.3,684.5,275.1z"/>
		<linearGradient id="SVGID_50_" gradientUnits="userSpaceOnUse" x1="678.4256" y1="278.3821" x2="678.9048" y2="278.3821">
			<stop  offset="0" style="stop-color:#CE6B4E"/>
			<stop  offset="0.2623" style="stop-color:#CC673B"/>
			<stop  offset="0.7315" style="stop-color:#C9611E"/>
			<stop  offset="1" style="stop-color:#C85F13"/>
		</linearGradient>
		<path class="st49" d="M678.9,278.2c-0.2,0.1-0.3,0.2-0.5,0.3C678.6,278.4,678.7,278.3,678.9,278.2z"/>
		<linearGradient id="SVGID_51_" gradientUnits="userSpaceOnUse" x1="647.9927" y1="297.2795" x2="651.8667" y2="297.2795">
			<stop  offset="0" style="stop-color:#CE6B4E"/>
			<stop  offset="0.2623" style="stop-color:#CC673B"/>
			<stop  offset="0.7315" style="stop-color:#C9611E"/>
			<stop  offset="1" style="stop-color:#C85F13"/>
		</linearGradient>
		<path class="st50" d="M651.9,295.8c-1.3,1-2.6,2-3.9,3C649.3,297.7,650.5,296.7,651.9,295.8z"/>
		<linearGradient id="SVGID_52_" gradientUnits="userSpaceOnUse" x1="641.4429" y1="302.5944" x2="644.8776" y2="302.5944">
			<stop  offset="0" style="stop-color:#CE6B4E"/>
			<stop  offset="0.2623" style="stop-color:#CC673B"/>
			<stop  offset="0.7315" style="stop-color:#C9611E"/>
			<stop  offset="1" style="stop-color:#C85F13"/>
		</linearGradient>
		<path class="st51" d="M644.9,301.2c-1.2,0.9-2.3,1.8-3.4,2.8C642.6,303,643.7,302.1,644.9,301.2z"/>
		<linearGradient id="SVGID_53_" gradientUnits="userSpaceOnUse" x1="634.3738" y1="308.3621" x2="638.2079" y2="308.3621">
			<stop  offset="0" style="stop-color:#CE6B4E"/>
			<stop  offset="0.2623" style="stop-color:#CC673B"/>
			<stop  offset="0.7315" style="stop-color:#C9611E"/>
			<stop  offset="1" style="stop-color:#C85F13"/>
		</linearGradient>
		<path class="st52" d="M638.2,306.7c-1.3,1.1-2.6,2.2-3.8,3.3C635.6,308.9,636.9,307.8,638.2,306.7z"/>
		<linearGradient id="SVGID_54_" gradientUnits="userSpaceOnUse" x1="627.6642" y1="314.7596" x2="630.8193" y2="314.7596">
			<stop  offset="0" style="stop-color:#CE6B4E"/>
			<stop  offset="0.2623" style="stop-color:#CC673B"/>
			<stop  offset="0.7315" style="stop-color:#C9611E"/>
			<stop  offset="1" style="stop-color:#C85F13"/>
		</linearGradient>
		<path class="st53" d="M630.8,313.3c-1.1,0.9-2.1,1.9-3.2,3C628.7,315.2,629.7,314.2,630.8,313.3z"/>
		<linearGradient id="SVGID_55_" gradientUnits="userSpaceOnUse" x1="620.9546" y1="320.98" x2="624.6689" y2="320.98">
			<stop  offset="0" style="stop-color:#CE6B4E"/>
			<stop  offset="0.2623" style="stop-color:#CC673B"/>
			<stop  offset="0.7315" style="stop-color:#C9611E"/>
			<stop  offset="1" style="stop-color:#C85F13"/>
		</linearGradient>
		<path class="st54" d="M624.7,319.1c-1.2,1.2-2.5,2.5-3.7,3.7C622.2,321.6,623.4,320.3,624.7,319.1z"/>
		<linearGradient id="SVGID_56_" gradientUnits="userSpaceOnUse" x1="608.0945" y1="332.476" x2="616.162" y2="332.476">
			<stop  offset="0" style="stop-color:#CE6B4E"/>
			<stop  offset="0.2623" style="stop-color:#CC673B"/>
			<stop  offset="0.7315" style="stop-color:#C9611E"/>
			<stop  offset="1" style="stop-color:#C85F13"/>
		</linearGradient>
		<path class="st55" d="M616.2,327.9c-2.8,3-5.4,6.1-8.1,9.2C610.7,333.9,613.4,330.9,616.2,327.9z"/>
		<linearGradient id="SVGID_57_" gradientUnits="userSpaceOnUse" x1="602.5432" y1="340.842" x2="607.4955" y2="340.842">
			<stop  offset="0" style="stop-color:#CE6B4E"/>
			<stop  offset="0.2623" style="stop-color:#CC673B"/>
			<stop  offset="0.7315" style="stop-color:#C9611E"/>
			<stop  offset="1" style="stop-color:#C85F13"/>
		</linearGradient>
		<path class="st56" d="M607.5,337.8c-1.6,2-3.3,4.1-4.9,6.1h0C604.1,341.8,605.8,339.8,607.5,337.8z"/>
		<linearGradient id="SVGID_58_" gradientUnits="userSpaceOnUse" x1="600.4664" y1="345.2711" x2="602.5831" y2="345.2711">
			<stop  offset="0" style="stop-color:#CE6B4E"/>
			<stop  offset="0.2623" style="stop-color:#CC673B"/>
			<stop  offset="0.7315" style="stop-color:#C9611E"/>
			<stop  offset="1" style="stop-color:#C85F13"/>
		</linearGradient>
		<path class="st57" d="M602.6,343.9c-0.7,0.9-1.4,1.8-2.1,2.7C601.1,345.7,601.8,344.8,602.6,343.9L602.6,343.9z"/>
		<linearGradient id="SVGID_59_" gradientUnits="userSpaceOnUse" x1="593.4772" y1="351.59" x2="600.2667" y2="351.59">
			<stop  offset="0" style="stop-color:#CE6B4E"/>
			<stop  offset="0.2623" style="stop-color:#CC673B"/>
			<stop  offset="0.7315" style="stop-color:#C9611E"/>
			<stop  offset="1" style="stop-color:#C85F13"/>
		</linearGradient>
		<path class="st58" d="M600.3,346.9c-2.3,3.1-4.6,6.3-6.8,9.4C595.7,353.1,597.9,350,600.3,346.9z"/>
		<linearGradient id="SVGID_60_" gradientUnits="userSpaceOnUse" x1="589.9227" y1="359.8969" x2="592.2391" y2="359.8969">
			<stop  offset="0" style="stop-color:#CE6B4E"/>
			<stop  offset="0.2623" style="stop-color:#CC673B"/>
			<stop  offset="0.7315" style="stop-color:#C9611E"/>
			<stop  offset="1" style="stop-color:#C85F13"/>
		</linearGradient>
		<path class="st59" d="M592.2,358.2c-0.8,1.1-1.6,2.3-2.3,3.5C590.7,360.4,591.4,359.3,592.2,358.2z"/>
		<linearGradient id="SVGID_61_" gradientUnits="userSpaceOnUse" x1="583.4926" y1="366.8457" x2="589.9227" y2="366.8457">
			<stop  offset="0" style="stop-color:#CE6B4E"/>
			<stop  offset="0.2623" style="stop-color:#CC673B"/>
			<stop  offset="0.7315" style="stop-color:#C9611E"/>
			<stop  offset="1" style="stop-color:#C85F13"/>
		</linearGradient>
		<path class="st60" d="M589.9,361.6c-2.2,3.4-4.4,6.9-6.4,10.4C585.5,368.5,587.7,365.1,589.9,361.6z"/>
		<linearGradient id="SVGID_62_" gradientUnits="userSpaceOnUse" x1="577.5818" y1="380.4676" x2="580.0979" y2="380.4676">
			<stop  offset="0" style="stop-color:#CE6B4E"/>
			<stop  offset="0.2623" style="stop-color:#CC673B"/>
			<stop  offset="0.7315" style="stop-color:#C9611E"/>
			<stop  offset="1" style="stop-color:#C85F13"/>
		</linearGradient>
		<path class="st61" d="M580.1,378.1c-0.9,1.5-1.7,3.1-2.5,4.7C578.4,381.2,579.2,379.7,580.1,378.1z"/>
		<linearGradient id="SVGID_63_" gradientUnits="userSpaceOnUse" x1="574.866" y1="385.5069" x2="577.5818" y2="385.5069">
			<stop  offset="0" style="stop-color:#CE6B4E"/>
			<stop  offset="0.2623" style="stop-color:#CC673B"/>
			<stop  offset="0.7315" style="stop-color:#C9611E"/>
			<stop  offset="1" style="stop-color:#C85F13"/>
		</linearGradient>
		<path class="st62" d="M577.6,382.8c-1,1.8-1.8,3.6-2.7,5.4C575.7,386.4,576.6,384.6,577.6,382.8z"/>
		<linearGradient id="SVGID_64_" gradientUnits="userSpaceOnUse" x1="572.4697" y1="390.9202" x2="574.6263" y2="390.9202">
			<stop  offset="0" style="stop-color:#CE6B4E"/>
			<stop  offset="0.2623" style="stop-color:#CC673B"/>
			<stop  offset="0.7315" style="stop-color:#C9611E"/>
			<stop  offset="1" style="stop-color:#C85F13"/>
		</linearGradient>
		<path class="st63" d="M574.6,388.6c-0.7,1.5-1.4,3-2.2,4.6C573.1,391.7,573.9,390.2,574.6,388.6z"/>
		<linearGradient id="SVGID_65_" gradientUnits="userSpaceOnUse" x1="567.2778" y1="402.7902" x2="569.3146" y2="402.7902">
			<stop  offset="0" style="stop-color:#CE6B4E"/>
			<stop  offset="0.2623" style="stop-color:#CC673B"/>
			<stop  offset="0.7315" style="stop-color:#C9611E"/>
			<stop  offset="1" style="stop-color:#C85F13"/>
		</linearGradient>
		<path class="st64" d="M569.3,400.3c-0.7,1.6-1.4,3.3-2,4.9C567.9,403.6,568.6,401.9,569.3,400.3z"/>
		<linearGradient id="SVGID_66_" gradientUnits="userSpaceOnUse" x1="565.5204" y1="407.5342" x2="567.2778" y2="407.5342">
			<stop  offset="0" style="stop-color:#CE6B4E"/>
			<stop  offset="0.2623" style="stop-color:#CC673B"/>
			<stop  offset="0.7315" style="stop-color:#C9611E"/>
			<stop  offset="1" style="stop-color:#C85F13"/>
		</linearGradient>
		<path class="st65" d="M567.3,405.3c-0.6,1.5-1.2,3-1.8,4.6C566.1,408.3,566.7,406.7,567.3,405.3z"/>
		<linearGradient id="SVGID_67_" gradientUnits="userSpaceOnUse" x1="561.287" y1="419.3845" x2="562.9644" y2="419.3845">
			<stop  offset="0" style="stop-color:#CE6B4E"/>
			<stop  offset="0.2623" style="stop-color:#CC673B"/>
			<stop  offset="0.7315" style="stop-color:#C9611E"/>
			<stop  offset="1" style="stop-color:#C85F13"/>
		</linearGradient>
		<path class="st66" d="M563,416.9c-0.6,1.7-1.1,3.3-1.7,5C561.8,420.2,562.4,418.6,563,416.9z"/>
		<linearGradient id="SVGID_68_" gradientUnits="userSpaceOnUse" x1="558.2517" y1="430.4867" x2="559.2103" y2="430.4867">
			<stop  offset="0" style="stop-color:#CE6B4E"/>
			<stop  offset="0.2623" style="stop-color:#CC673B"/>
			<stop  offset="0.7315" style="stop-color:#C9611E"/>
			<stop  offset="1" style="stop-color:#C85F13"/>
		</linearGradient>
		<path class="st67" d="M559.2,428.8c-0.3,1.1-0.6,2.3-1,3.5C558.6,431.1,558.9,429.9,559.2,428.8z"/>
		<linearGradient id="SVGID_69_" gradientUnits="userSpaceOnUse" x1="557.2133" y1="434.1875" x2="558.2517" y2="434.1875">
			<stop  offset="0" style="stop-color:#CE6B4E"/>
			<stop  offset="0.2623" style="stop-color:#CC673B"/>
			<stop  offset="0.7315" style="stop-color:#C9611E"/>
			<stop  offset="1" style="stop-color:#C85F13"/>
		</linearGradient>
		<path class="st68" d="M558.3,432.2c-0.4,1.3-0.7,2.6-1,3.9C557.5,434.8,557.9,433.5,558.3,432.2z"/>
		<linearGradient id="SVGID_70_" gradientUnits="userSpaceOnUse" x1="402.6527" y1="837.4705" x2="554.6174" y2="837.4705">
			<stop  offset="0" style="stop-color:#CE6B4E"/>
			<stop  offset="0.2623" style="stop-color:#CC673B"/>
			<stop  offset="0.7315" style="stop-color:#C9611E"/>
			<stop  offset="1" style="stop-color:#C85F13"/>
		</linearGradient>
		<path class="st69" d="M548.1,829.1c2.2-0.5,4.3-1,6.5-1.6c-46.7,12-98,19-152,19.9C448.3,846.5,497.5,840.9,548.1,829.1z"/>
		<linearGradient id="SVGID_71_" gradientUnits="userSpaceOnUse" x1="550.304" y1="462.9076" x2="554.4976" y2="462.9076">
			<stop  offset="0" style="stop-color:#CE6B4E"/>
			<stop  offset="0.2623" style="stop-color:#CC673B"/>
			<stop  offset="0.7315" style="stop-color:#C9611E"/>
			<stop  offset="1" style="stop-color:#C85F13"/>
		</linearGradient>
		<path class="st70" d="M554.5,448c-2,9.8-3.4,19.7-4.2,29.8C551.1,467.7,552.5,457.7,554.5,448z"/>
		<linearGradient id="SVGID_72_" gradientUnits="userSpaceOnUse" x1="17.1299" y1="580.485" x2="592.2391" y2="580.485">
			<stop  offset="0" style="stop-color:#CE6B4E"/>
			<stop  offset="0.2623" style="stop-color:#CC673B"/>
			<stop  offset="0.7315" style="stop-color:#C9611E"/>
			<stop  offset="1" style="stop-color:#C85F13"/>
		</linearGradient>
		<path class="st71" d="M390.5,313.4c-226.3,0-373.3,156.9-373.3,289.1s147.1,245,373.3,245c4,0,8.1,0,12.2-0.1
			c45.6-0.9,94.8-6.5,145.5-18.3c-17.2-42.7-32.7-82.7-26.3-128.2c1.1-8,3.7-18.8,5.6-26.6c-16.4-33.6-23.6-71.7-20.2-108.9
			c19.5,3.4,38.8,8.1,58.1,14c-10.3-23.4-15.9-50.5-15.9-81.4c0-6.8,0.3-13.5,0.8-20.2c0.8-10.1,2.2-20.1,4.2-29.8
			c0.8-4,1.7-8,2.7-11.9c0.3-1.3,0.7-2.6,1-3.9c0.3-1.1,0.6-2.3,1-3.5c0.7-2.3,1.4-4.6,2.1-6.9c0.6-1.7,1.1-3.3,1.7-5
			c0.8-2.4,1.6-4.7,2.6-7c0.6-1.5,1.2-3.1,1.8-4.6c0.6-1.7,1.3-3.3,2-4.9c1-2.4,2-4.8,3.2-7.1c0.7-1.5,1.4-3,2.2-4.6
			c0.1-0.1,0.1-0.3,0.2-0.4c0.8-1.8,1.8-3.6,2.7-5.4c0.8-1.6,1.6-3.1,2.5-4.7c1.1-2,2.2-4.1,3.4-6.1c2-3.5,4.2-7,6.4-10.4
			c0.8-1.2,1.5-2.3,2.3-3.5C532.7,330.5,463.8,313.4,390.5,313.4z"/>
		<linearGradient id="SVGID_73_" gradientUnits="userSpaceOnUse" x1="390.4716" y1="847.4703" x2="402.6527" y2="847.4703">
			<stop  offset="0" style="stop-color:#CE6B4E"/>
			<stop  offset="0.2623" style="stop-color:#CC673B"/>
			<stop  offset="0.7315" style="stop-color:#C9611E"/>
			<stop  offset="1" style="stop-color:#C85F13"/>
		</linearGradient>
		<path class="st72" d="M390.5,847.5c4,0,8.1,0,12.2-0.1C398.6,847.5,394.5,847.5,390.5,847.5z"/>
	</g>
	
		<radialGradient id="SVGID_74_" cx="806.1677" cy="575.139" r="201.617" gradientTransform="matrix(1 0 0 0.9858 0 9.2611)" gradientUnits="userSpaceOnUse">
		<stop  offset="0" style="stop-color:#C9BDBB"/>
		<stop  offset="9.451020e-02" style="stop-color:#CEC5C3"/>
		<stop  offset="0.3634" style="stop-color:#DAD6D4"/>
		<stop  offset="0.6535" style="stop-color:#E1E0DF"/>
		<stop  offset="1" style="stop-color:#E3E3E2"/>
	</radialGradient>
	<path class="st73" d="M1061.8,474.2L1061.8,474.2c-24-13-51.6-20.3-80.9-20.3c-87.5,0-159.5,65.7-167.9,149.9
		c4.4,1.8-18.1,2-14,0.2c-9.9-82.6-81.1-146.7-167.5-146.7c-29.4,0-57.1,7.4-81.2,20.5c-0.6,6.7-0.8,13.4-0.8,20.2
		c0,30.9,5.6,58,15.9,81.4c68.5,20.8,137.1,56.2,216,100.8c4.8,2.7,9.5,5.4,14.3,8.1c5.9,3.3,11.8,6.8,17.8,10.2
		c10.7-0.2,21.3-0.7,31.7-1.6c1.2-0.1,2.3-0.2,3.5-0.3c19.5-1.8,38.3-4.9,56-9.4c92.9-23.4,158.2-83.9,158.2-189.2
		C1062.9,490,1062.5,482,1061.8,474.2z"/>
	<linearGradient id="SVGID_75_" gradientUnits="userSpaceOnUse" x1="806.008" y1="603.9492" x2="806.008" y2="244.9768">
		<stop  offset="0" style="stop-color:#CE6B4E"/>
		<stop  offset="0.2623" style="stop-color:#CC673B"/>
		<stop  offset="0.7315" style="stop-color:#C9611E"/>
		<stop  offset="1" style="stop-color:#C85F13"/>
	</linearGradient>
	<path class="st74" d="M1061.6,473.1c-0.1-0.7-0.2-1.5-0.2-2.3c-0.2-1.6-0.4-3.2-0.6-4.8c-0.2-1.6-0.4-3.1-0.7-4.7
		c-0.2-1.6-0.4-3.1-0.7-4.6c0-0.2,0-0.4-0.1-0.5c-0.3-1.9-0.6-3.8-1-5.7c-0.8-4.3-1.7-8.5-2.8-12.7c-0.4-1.6-0.8-3.1-1.2-4.6
		c-5.2-19.6-12.8-38.2-22.4-55.7c-1-1.8-2-3.6-3-5.4c-0.7-1.2-1.4-2.4-2.2-3.6c-0.9-1.5-1.8-2.9-2.7-4.3c-0.6-1-1.3-2-1.9-3
		c-1-1.5-2-3-3-4.4c-3-4.4-6.2-8.7-9.5-12.9h0c-0.5-0.7-1-1.3-1.5-2c-1.2-1.5-2.4-3-3.6-4.5c-0.3-0.4-0.6-0.8-1-1.1
		c-2.4-2.8-4.8-5.6-7.3-8.3c-0.1-0.1-0.2-0.2-0.3-0.3c0,0-0.1,0-0.1-0.1c-1.2-1.4-2.5-2.7-3.8-4.1c0,0,0,0,0-0.1
		c-7.1-7.3-14.6-14.2-22.5-20.6c-3.2-2.6-6.4-5.1-9.7-7.5c-1.6-1.2-3.3-2.4-5-3.6c-1.7-1.2-3.4-2.3-5.1-3.5
		c-1.6-1.1-3.2-2.1-4.9-3.1c-0.2-0.1-0.3-0.2-0.5-0.3c-1.7-1.1-3.4-2.1-5.1-3.1c-1.8-1.1-3.6-2.1-5.3-3.1c-1.8-1-3.6-2-5.4-3
		c-0.3-0.2-0.5-0.3-0.8-0.4h0c-2.6-1.4-5.4-2.8-8.1-4.1c-0.7-0.4-1.4-0.7-2.2-1.1c-3.8-1.8-7.5-3.5-11.4-5.1
		c-1.9-0.8-3.8-1.6-5.8-2.3c-2-0.7-3.9-1.5-5.9-2.2c-4.2-1.5-8.5-3-12.9-4.3c-1.7-0.5-3.4-1-5-1.5c-1.5-0.4-3.1-0.9-4.6-1.3
		c-1-0.3-2.1-0.6-3.2-0.8c-1.5-0.4-3-0.7-4.5-1.1c-2.1-0.5-4.2-0.9-6.2-1.3c-1.7-0.4-3.4-0.7-5.2-1c-0.7-0.1-1.4-0.2-2.1-0.4
		c-1.3-0.2-2.7-0.4-4-0.6c-2.6-0.4-5.3-0.8-8-1.1c-1.1-0.2-2.2-0.3-3.4-0.4c-1.4-0.2-2.9-0.3-4.3-0.4c-8.1-0.8-16.4-1.2-24.8-1.2
		c-2.2,0-4.4,0-6.6,0.1c-3.5,0.1-7,0.2-10.5,0.5c-9,0.6-17.9,1.6-26.6,3.1c-1.1,0.2-2.3,0.4-3.4,0.6c-1.6,0.3-3.1,0.6-4.6,0.9
		c-2.1,0.4-4.2,0.9-6.3,1.3c-1.8,0.4-3.6,0.8-5.3,1.3c-0.6,0.2-1.3,0.3-1.9,0.5c-1.4,0.4-2.9,0.8-4.3,1.2c-0.4,0.1-0.8,0.2-1.2,0.4
		c-1.8,0.5-3.5,1-5.2,1.5c-0.2,0-0.4,0.1-0.5,0.1c-1.7,0.6-3.4,1.1-5,1.6c-11.1,3.7-21.8,8-32.1,13.1v0c-2.7,1.3-5.4,2.6-8,4.1
		c-0.2,0.1-0.4,0.2-0.6,0.3c-1.7,0.9-3.4,1.8-5,2.8c-0.2,0.1-0.3,0.2-0.5,0.3c-9.2,5.2-18.1,11-26.6,17.3c-1.3,1-2.6,2-3.9,3
		c-1.1,0.8-2.1,1.6-3.1,2.4c-1.2,0.9-2.3,1.8-3.4,2.8c-1.1,0.9-2.2,1.8-3.2,2.7c-1.3,1.1-2.6,2.2-3.8,3.3c-1.2,1.1-2.4,2.1-3.6,3.3
		c-1.1,0.9-2.1,1.9-3.2,3c-1,0.9-2,1.9-3,2.9c-1.2,1.2-2.5,2.5-3.7,3.7c-1.6,1.6-3.2,3.2-4.6,4.9c-0.1,0-0.1,0.1-0.2,0.2
		c-2.8,3-5.4,6.1-8.1,9.2c-0.2,0.2-0.4,0.5-0.6,0.7c-1.6,2-3.3,4.1-4.9,6.1c-0.7,0.9-1.4,1.8-2.1,2.7c-0.1,0.1-0.1,0.2-0.2,0.2
		c-2.3,3.1-4.6,6.3-6.8,9.4c-0.4,0.6-0.8,1.2-1.2,1.9c-0.8,1.1-1.6,2.3-2.3,3.5c-2.2,3.4-4.4,6.9-6.4,10.4c-1.2,2-2.3,4-3.4,6.1
		c-0.9,1.5-1.7,3.1-2.5,4.7c-1,1.8-1.8,3.6-2.7,5.4c-0.1,0.2-0.2,0.3-0.2,0.4c-0.7,1.5-1.4,3-2.2,4.6c-1.1,2.4-2.2,4.7-3.2,7.1
		c-0.7,1.6-1.4,3.3-2,4.9c-0.6,1.5-1.2,3-1.8,4.6c-0.9,2.3-1.8,4.7-2.6,7c-0.6,1.7-1.1,3.3-1.7,5c-0.7,2.3-1.4,4.6-2.1,6.9
		c-0.3,1.1-0.6,2.3-1,3.5c-0.4,1.3-0.7,2.6-1,3.9c-1,3.9-1.9,7.9-2.7,11.9c-2,9.8-3.4,19.7-4.2,29.8c24.1-13.1,51.8-20.5,81.2-20.5
		c86.4,0,157.6,64.1,167.5,146.7c0.4-0.2,0.8-0.3,1.1-0.4c1.8-0.7,3.9-1,6.1-1c2.5,0,4.8,0.5,6.8,1.3
		c8.4-84.2,80.4-149.9,167.9-149.9c29.3,0,56.8,7.4,80.8,20.3C1061.7,473.8,1061.7,473.4,1061.6,473.1z"/>
	<path class="st75" d="M687.9,530.5c0.9,3.2,0.4,6.7-1.1,9.9c-1.5,3.2-3.8,6-6.6,8.2c-5.6,4.4-12.8,6.5-19.8,6.5
		c-7,0-14.2-2.1-19.8-6.5c-2.8-2.2-5.1-5-6.6-8.2c-1.4-3.2-1.9-6.8-1-9.9c1.8,6.3,6.2,10.4,11.1,13c5,2.6,10.7,3.7,16.4,3.8
		c5.7-0.1,11.4-1.1,16.4-3.7C681.7,540.9,686.1,536.8,687.9,530.5z"/>
	<path class="st75" d="M981.2,530.5c0.9,3.2,0.4,6.7-1.1,9.9c-1.5,3.2-3.8,6-6.6,8.2c-5.6,4.4-12.8,6.5-19.8,6.5
		c-7,0-14.2-2.1-19.8-6.5c-2.8-2.2-5.1-5-6.6-8.2c-1.4-3.2-1.9-6.8-1.1-9.9c1.8,6.3,6.2,10.4,11.1,13c5,2.6,10.7,3.7,16.4,3.8
		c5.7-0.1,11.3-1.1,16.4-3.7C975.1,540.9,979.5,536.8,981.2,530.5z"/>
	<linearGradient id="SVGID_76_" gradientUnits="userSpaceOnUse" x1="506.4655" y1="697.2554" x2="820.2858" y2="697.2554">
		<stop  offset="0" style="stop-color:#CABA9F"/>
		<stop  offset="0.3262" style="stop-color:#C7B79C"/>
		<stop  offset="0.5574" style="stop-color:#BFAE93"/>
		<stop  offset="0.7593" style="stop-color:#B09E84"/>
		<stop  offset="0.9432" style="stop-color:#9B886F"/>
		<stop  offset="1" style="stop-color:#938067"/>
	</linearGradient>
	<path class="st76" d="M813.5,698.6c-6-3.5-11.9-6.9-17.8-10.2c-4.8-2.8-9.6-5.5-14.3-8.1c-78.9-44.6-147.5-80-216-100.8
		c-19.3-5.9-38.6-10.6-58.1-14c-3.4,37.2,3.8,75.2,20.2,108.9c-1.9,7.8-4.5,18.6-5.6,26.6c-6.4,45.5,9.1,85.5,26.3,128.2
		c2.2-0.5,4.3-1,6.5-1.6c79.2-19.1,161.7-53,239.4-106.2c8.8-6.1,17.6-12.4,26.3-18.9C818,701.1,815.8,699.8,813.5,698.6z"/>
	<g>
		<path class="st77" d="M794,721.3c0.7,2.7,1.6,5.4,2.8,8.2c8.2,20.6,23,34.2,33,30.3c1.1-0.4,2.1-1,3-1.9c3.6-3.2,7.5-6.3,12.3-7.4
			c0.4-0.1,0.8-0.2,1.2-0.4c10-3.9,11.5-23.7,3.2-44.4c-1.2-3.1-2.6-6.1-4.2-8.8"/>
		<path class="st77" d="M848.7,696.7c0.7,5.6,2.3,11.5,4.8,17.6c8.2,20.6,23,34.1,33,30.3c1.1-0.4,2.1-1.1,3-1.9
			c3.6-3.3,7.5-6.3,12.3-7.4c0.4-0.1,0.8-0.2,1.2-0.4c10-3.9,11.4-23.7,3.2-44.4c-0.4-1.1-0.9-2.2-1.4-3.3"/>
		<path class="st77" d="M554.6,827.5c-46.7,12-98,19-152,19.9c-4,0.1-8.1,0.1-12.2,0.1c-226.3,0-373.3-112.9-373.3-245
			s147.1-289.1,373.3-289.1c73.4,0,142.2,17.1,201.8,44.7"/>
		<path class="st77" d="M813.5,698.6c10.7-0.2,21.3-0.7,31.7-1.6c1.2-0.1,2.3-0.2,3.5-0.3c19.5-1.8,38.3-4.9,56-9.4
			c92.9-23.4,158.2-83.9,158.2-189.2c0-8-0.4-16-1.1-23.8"/>
		<path class="st77" d="M554.5,448c-2,9.7-3.4,19.7-4.2,29.8c-0.6,6.7-0.8,13.4-0.8,20.2c0,30.9,5.6,58,15.9,81.4"/>
		<path class="st77" d="M558.3,432.2c-0.4,1.3-0.7,2.6-1,3.9"/>
		<path class="st77" d="M762.5,248.6c-1.1,0.2-2.3,0.4-3.4,0.6"/>
		<path class="st77" d="M799.6,245.1c-3.5,0.1-7,0.2-10.5,0.5"/>
		<path class="st77" d="M835.2,246.6c-1.4-0.2-2.8-0.3-4.3-0.4"/>
		<path class="st77" d="M871.8,253.3c-1.1-0.3-2.1-0.6-3.2-0.8"/>
		<path class="st77" d="M1026.7,368.4c-0.9-1.5-1.8-2.9-2.7-4.3"/>
		<path class="st77" d="M1055.5,437.7c-0.4-1.6-0.8-3.1-1.2-4.6"/>
		<path class="st77" d="M1059.4,456.1c-0.3-1.9-0.6-3.8-1-5.7"/>
		<path class="st77" d="M1060.2,461.3c-0.2-1.5-0.4-3.1-0.7-4.6"/>
		<path class="st77" d="M122.2,641.6c31.8,17.8,77.5-70.4,310.3-82.8c25.6,0,50.4,2.2,74.8,6.6c19.5,3.4,38.8,8.1,58.1,14
			c68.5,20.8,137.1,56.2,216,100.8c4.8,2.7,9.5,5.4,14.3,8.1c5.9,3.3,11.8,6.8,17.8,10.2c2.2,1.3,4.5,2.6,6.7,3.9
			c-8.7,6.5-17.5,12.8-26.3,18.9c-77.7,53.2-160.2,87.1-239.4,106.2c-2.2,0.6-4.3,1.1-6.5,1.6c-50.7,11.8-99.9,17.4-145.5,18.3
			c-4.1,0.1-8.1,0.1-12.2,0.1"/>
		<path class="st77" d="M117,637.6c1.7,1.7,3.4,3,5.2,4"/>
		<line class="st77" x1="122.2" y1="641.6" x2="122.1" y2="641.5"/>
		<path class="st77" d="M692.5,271.1c-1.8-3.1-4.6-5.7-8.4-7.2l-77.8-30.2c-12-4.6-24.6,5.2-22.7,17.8l12.4,81.5
			c0.7,4.7,3.2,8.5,6.6,10.9"/>
		<path class="st77" d="M684.5,275.1l-53.9-20.9c-12-4.6-24.6,5.2-22.7,17.8l8.5,55.7"/>
		<path class="st77" d="M919.6,271c1.8-3.1,4.6-5.6,8.3-7.1l77.8-30.2c12-4.6,24.6,5.2,22.7,17.8l-12.4,81.5
			c-0.7,4.6-3.2,8.3-6.5,10.8"/>
		<path class="st77" d="M927.7,275.1l53.8-20.9c12-4.6,24.6,5.2,22.7,17.8l-8.4,55.4"/>
		<path class="st77" d="M813,603.8c8.4-84.2,80.4-149.9,167.9-149.9c29.3,0,56.8,7.4,80.8,20.3h0c0-0.4-0.1-0.7-0.1-1.1
			c-0.1-0.7-0.2-1.5-0.2-2.3c-0.2-1.6-0.4-3.2-0.6-4.8c-0.2-1.6-0.4-3.1-0.7-4.7c-0.2-1.6-0.4-3.1-0.7-4.6c0-0.2,0-0.4-0.1-0.5
			c-0.3-1.9-0.6-3.8-1-5.7c-0.8-4.3-1.7-8.5-2.8-12.7c-0.4-1.6-0.8-3.1-1.2-4.6c-5.2-19.6-12.8-38.2-22.4-55.7c-1-1.8-2-3.6-3-5.4
			c-0.7-1.2-1.4-2.4-2.2-3.6c-0.9-1.5-1.8-2.9-2.7-4.3c-0.6-1-1.3-2-1.9-3c-1-1.5-2-3-3-4.4c-3-4.4-6.2-8.7-9.5-12.9
			c-0.5-0.7-1-1.3-1.6-2c-1.2-1.5-2.4-3-3.6-4.5c-0.3-0.4-0.6-0.8-1-1.1c-2.4-2.8-4.8-5.6-7.3-8.3c-0.1-0.1-0.2-0.2-0.3-0.3
			c0,0,0-0.1-0.1-0.1c-1.3-1.4-2.5-2.7-3.8-4c0,0,0,0,0-0.1c-7.1-7.3-14.6-14.2-22.5-20.6c-3.2-2.6-6.4-5.1-9.7-7.5
			c-1.6-1.3-3.3-2.4-5-3.6c-1.7-1.2-3.4-2.4-5.1-3.5c-1.6-1.1-3.2-2.2-4.9-3.1c-0.2-0.1-0.3-0.2-0.5-0.3c-1.7-1.1-3.4-2.1-5.1-3.1
			c-1.8-1.1-3.5-2.1-5.3-3.1c-1.8-1-3.6-2-5.4-3c-0.3-0.2-0.5-0.3-0.8-0.4c-2.7-1.4-5.4-2.8-8.1-4.1c-0.7-0.4-1.4-0.7-2.2-1
			c-3.8-1.8-7.5-3.5-11.4-5.1c-1.9-0.8-3.8-1.6-5.8-2.3c-2-0.8-3.9-1.5-5.9-2.2c-4.2-1.5-8.5-3-12.9-4.3c-1.6-0.5-3.3-1-5-1.5
			c-1.5-0.4-3.1-0.9-4.6-1.3c-1-0.3-2.1-0.6-3.2-0.8c-1.5-0.4-3-0.7-4.5-1.1c-2-0.5-4.2-0.9-6.2-1.3c-1.7-0.4-3.5-0.7-5.2-1
			c-0.7-0.1-1.4-0.2-2.1-0.4c-1.4-0.2-2.7-0.4-4-0.6c-2.6-0.4-5.3-0.8-8-1.1c-1.1-0.2-2.3-0.3-3.4-0.4c-1.4-0.2-2.9-0.3-4.3-0.4
			c-8.1-0.8-16.4-1.2-24.8-1.2c-2.2,0-4.4,0-6.6,0.1c-3.5,0.1-7,0.2-10.5,0.5c-9,0.6-17.9,1.6-26.6,3.1c-1.1,0.2-2.3,0.4-3.4,0.6
			c-1.6,0.3-3.1,0.6-4.6,0.9c-2.1,0.4-4.2,0.9-6.3,1.3c-1.8,0.4-3.6,0.8-5.3,1.3c-0.6,0.2-1.3,0.3-1.9,0.5c-1.4,0.4-2.9,0.7-4.3,1.2
			c-0.4,0.1-0.8,0.2-1.2,0.4c-1.8,0.5-3.5,1-5.2,1.5c-0.2,0-0.4,0.1-0.5,0.1c-1.7,0.6-3.4,1.1-5,1.6c-11.1,3.7-21.8,8-32.1,13.1v0
			c-2.7,1.3-5.4,2.6-8,4c-0.2,0.1-0.4,0.2-0.6,0.3c-1.7,0.9-3.4,1.8-5,2.8c-0.2,0.1-0.3,0.2-0.5,0.3c-9.2,5.2-18.1,11-26.6,17.3
			c-1.3,0.9-2.6,1.9-3.9,3c-1.1,0.8-2.1,1.6-3.1,2.4c-1.2,0.9-2.3,1.8-3.4,2.8c-1.1,0.9-2.2,1.8-3.2,2.7c-1.3,1.1-2.6,2.2-3.8,3.3
			c-1.2,1.1-2.4,2.1-3.6,3.3c-1.1,0.9-2.1,1.9-3.2,3c-1,0.9-2,1.9-3,2.9c-1.3,1.2-2.5,2.5-3.7,3.7c-1.6,1.6-3.2,3.2-4.6,4.9
			c-0.1,0-0.1,0.1-0.2,0.2c-2.8,3-5.5,6-8.1,9.2c-0.2,0.2-0.4,0.5-0.6,0.7c-1.7,2-3.4,4.1-5,6.1c-0.7,0.9-1.4,1.8-2.1,2.7
			c-0.1,0.1-0.1,0.2-0.2,0.2c-2.4,3.1-4.6,6.3-6.8,9.4c-0.4,0.6-0.8,1.2-1.2,1.9c-0.8,1.1-1.6,2.3-2.3,3.5
			c-2.2,3.4-4.4,6.9-6.4,10.4c-1.2,2-2.3,4-3.4,6.1c-0.9,1.5-1.7,3.1-2.5,4.7c-1,1.8-1.9,3.6-2.7,5.4c-0.1,0.2-0.2,0.3-0.2,0.4
			c-0.8,1.5-1.5,3-2.2,4.6c-1.1,2.4-2.2,4.7-3.2,7.1c-0.7,1.6-1.4,3.3-2,4.9c-0.6,1.5-1.2,3-1.8,4.6c-0.9,2.3-1.8,4.7-2.6,7
			c-0.6,1.7-1.1,3.3-1.7,5c-0.7,2.3-1.4,4.6-2.1,6.9c-0.3,1.1-0.6,2.3-1,3.5c-0.4,1.3-0.7,2.6-1,3.9c-1,3.9-1.9,7.9-2.7,11.9
			c-2,9.8-3.4,19.7-4.2,29.8c24.1-13.1,51.8-20.5,81.2-20.5c86.4,0,157.6,64.1,167.5,146.7"/>
		<path class="st77" d="M507.3,565.4c-3.4,37.2,3.8,75.2,20.2,108.9c4.2,8.6,8.9,16.9,14.3,24.9"/>
		<path class="st77" d="M527.5,674.3c-1.9,7.8-4.5,18.6-5.6,26.6c-6.4,45.5,9.1,85.5,26.3,128.2"/>
	</g>
	<path class="st75" d="M815,599.5c-2.6-1.1-5.6-1.7-8.8-1.7c-2.8,0-5.5,0.5-7.8,1.3c-0.5,0.2-1,0.4-1.4,0.6
		c-5.3,2.4-8.9,6.8-8.9,11.7c0,5.2,3.9,9.7,9.5,12c2.6,1,5.5,1.6,8.7,1.6c10.1,0,18.2-6.1,18.2-13.6
		C824.4,606.3,820.6,601.8,815,599.5z"/>
</g>
</svg>
